<?xml version="1.0" encoding="UTF-8" standalone="no"?><svg xmlns="http://www.w3.org/2000/svg" xmlns:xlink="http://www.w3.org/1999/xlink" width="1080" zoomAndPan="magnify" viewBox="0 0 810 809.999993" height="1080" preserveAspectRatio="xMidYMid meet" version="1.0"><path fill="#ffffff" d="M 714.648438 187.59375 C 686.699219 116.777344 624.582031 62.117188 539.480469 33.542969 C 439.472656 0 323.9375 8.695312 243.804688 55.90625 C 174.855469 96.902344 94.726562 213.679688 125.785156 302.507812 C 125.785156 303.128906 67.394531 388.851562 67.394531 388.851562 C 60.5625 398.789062 60.5625 413.695312 65.53125 424.257812 C 70.5 434.816406 80.441406 442.269531 95.96875 445.996094 C 95.96875 445.996094 86.03125 475.8125 86.03125 475.8125 C 82.925781 484.507812 88.515625 493.207031 96.589844 496.3125 L 105.285156 499.417969 C 105.285156 499.417969 96.589844 507.492188 95.96875 508.113281 C 92.863281 512.460938 92.242188 518.050781 94.105469 523.644531 L 99.074219 537.929688 C 102.179688 546.003906 101.558594 559.671875 100.316406 568.367188 L 97.832031 581.410156 C 94.105469 599.425781 102.179688 618.058594 117.710938 628 C 133.859375 638.558594 158.085938 643.527344 189.765625 642.90625 C 216.476562 642.285156 264.925781 648.496094 286.667969 698.191406 C 295.984375 718.6875 300.332031 752.230469 299.710938 795.09375 C 299.710938 801.925781 305.300781 807.515625 312.132812 807.515625 C 318.96875 807.515625 324.558594 801.925781 324.558594 795.09375 C 325.179688 747.882812 320.210938 711.855469 309.648438 687.628906 C 289.152344 641.664062 245.667969 616.195312 189.144531 617.4375 C 156.222656 618.058594 139.449219 611.847656 130.753906 606.257812 C 123.921875 601.910156 120.195312 593.214844 122.058594 585.136719 L 124.542969 572.09375 C 127.027344 560.292969 127.027344 541.65625 122.679688 528.613281 L 119.574219 519.292969 C 119.574219 519.292969 132.617188 506.871094 132.617188 506.871094 C 140.070312 499.417969 138.207031 483.886719 128.269531 480.160156 L 112.742188 473.949219 C 112.742188 473.949219 122.058594 445.375 122.058594 444.753906 C 124.542969 429.847656 114.605469 422.394531 104.664062 420.527344 C 94.105469 418.042969 83.546875 412.453125 88.515625 400.03125 L 146.90625 317.414062 C 151.253906 310.582031 152.496094 301.886719 150.011719 294.433594 C 123.300781 218.648438 196.597656 113.671875 257.472656 77.644531 C 330.148438 33.542969 438.230469 25.46875 531.40625 57.148438 C 609.050781 83.234375 665.578125 132.929688 691.046875 196.910156 C 722.726562 276.417969 709.679688 371.457031 657.503906 445.375 C 575.507812 560.292969 558.117188 676.449219 603.460938 800.0625 C 605.945312 806.273438 612.777344 810 619.613281 807.515625 C 625.824219 805.03125 629.550781 798.199219 627.066406 791.363281 C 584.828125 675.828125 601.597656 567.125 678 459.664062 C 735.148438 378.910156 749.433594 274.554688 714.648438 187.59375 Z M 714.648438 187.59375 " fill-opacity="1" fill-rule="nonzero"/><path fill="#ffffff" d="M 559.359375 303.75 C 559.359375 288.84375 548.175781 277.039062 533.890625 277.039062 L 525.195312 277.039062 C 523.332031 270.828125 520.847656 264.617188 517.742188 258.40625 L 523.953125 252.191406 C 528.921875 247.222656 531.40625 240.390625 530.785156 232.9375 C 530.164062 226.105469 527.679688 219.894531 522.710938 214.921875 L 512.769531 204.984375 C 507.800781 200.015625 501.589844 196.910156 494.757812 196.910156 C 487.304688 196.289062 480.46875 198.773438 475.5 203.742188 L 469.289062 209.953125 C 463.078125 206.847656 456.867188 204.363281 450.65625 202.5 L 450.65625 193.804688 C 450.65625 180.136719 438.851562 168.335938 423.945312 168.335938 L 409.65625 168.335938 C 394.75 168.335938 382.949219 179.515625 382.949219 193.804688 L 382.949219 202.5 C 376.734375 204.363281 370.523438 206.847656 364.3125 209.953125 L 358.101562 203.742188 C 348.164062 193.804688 331.390625 194.425781 321.453125 204.984375 L 311.511719 214.921875 C 300.953125 225.484375 300.332031 242.253906 310.269531 251.570312 L 316.484375 257.785156 C 313.375 263.996094 310.890625 269.585938 309.027344 276.417969 L 300.332031 276.417969 C 286.667969 276.417969 274.863281 288.222656 274.863281 303.128906 L 274.863281 317.414062 C 274.863281 332.324219 286.046875 344.125 300.332031 344.125 L 309.027344 344.125 C 310.890625 350.335938 313.375 356.550781 316.484375 362.761719 L 310.269531 368.972656 C 300.332031 378.910156 300.953125 395.683594 311.511719 405.621094 L 322.074219 416.179688 C 332.632812 426.742188 349.40625 427.363281 358.722656 417.421875 L 364.933594 411.210938 C 371.144531 414.316406 377.355469 416.800781 383.570312 418.664062 L 383.570312 427.363281 C 383.570312 441.027344 395.371094 452.828125 410.277344 452.828125 L 424.566406 452.828125 C 439.472656 452.828125 451.277344 441.648438 451.277344 427.363281 L 451.277344 418.664062 C 457.488281 416.800781 463.699219 414.316406 469.910156 411.210938 L 476.121094 417.421875 C 486.0625 427.363281 502.832031 426.742188 512.769531 416.179688 L 522.710938 406.242188 C 527.679688 401.273438 530.785156 393.820312 530.785156 386.984375 C 530.785156 380.152344 528.300781 373.941406 523.953125 369.59375 L 517.742188 363.382812 C 520.847656 357.171875 523.332031 350.957031 525.195312 344.746094 L 533.890625 344.746094 C 547.554688 344.746094 559.359375 332.945312 559.359375 318.035156 Z M 534.511719 318.65625 C 534.511719 319.898438 533.890625 320.523438 533.890625 320.523438 L 515.253906 320.523438 C 509.664062 320.523438 504.074219 324.871094 502.832031 330.460938 C 500.347656 340.398438 496.621094 350.335938 491.03125 359.65625 C 487.925781 364.625 488.546875 370.835938 492.894531 375.183594 L 505.9375 388.230469 C 505.9375 388.230469 505.9375 389.472656 504.695312 390.09375 L 494.757812 400.03125 C 494.136719 400.652344 492.894531 401.273438 492.894531 401.273438 L 479.847656 388.230469 C 475.5 383.878906 469.289062 383.257812 464.320312 386.363281 C 455.625 391.957031 445.683594 396.304688 435.125 398.167969 C 429.535156 399.410156 425.1875 404.378906 425.1875 410.589844 L 425.1875 428.605469 C 425.1875 428.605469 424.566406 429.226562 423.324219 429.226562 L 409.035156 429.226562 C 407.792969 429.226562 407.171875 428.605469 407.171875 428.605469 L 407.171875 409.96875 C 407.171875 404.378906 402.824219 398.789062 397.234375 397.546875 C 387.296875 395.0625 377.355469 391.335938 368.039062 385.742188 C 363.070312 382.636719 356.859375 383.257812 352.511719 387.605469 L 339.464844 400.652344 C 339.464844 400.652344 338.222656 400.652344 337.601562 399.410156 L 327.664062 388.851562 C 327.042969 388.230469 326.421875 386.984375 326.421875 386.984375 L 339.464844 373.941406 C 343.8125 369.59375 344.433594 363.382812 341.328125 358.414062 C 335.738281 349.714844 331.390625 339.777344 329.527344 329.839844 C 328.285156 324.25 323.316406 319.898438 317.105469 319.898438 L 299.089844 319.898438 C 299.089844 319.898438 298.46875 318.65625 298.46875 318.035156 L 298.46875 303.75 C 298.46875 302.507812 299.089844 301.886719 299.089844 301.886719 L 317.726562 301.886719 C 323.316406 301.886719 328.90625 297.539062 330.148438 291.949219 C 332.632812 281.386719 336.359375 272.070312 341.949219 262.753906 C 345.054688 257.785156 344.433594 251.570312 340.085938 247.222656 L 327.042969 234.179688 C 327.042969 234.179688 327.042969 232.9375 328.285156 232.316406 L 338.222656 222.378906 C 339.464844 221.136719 340.085938 221.136719 340.085938 221.136719 L 353.132812 234.179688 C 357.480469 238.527344 363.691406 239.148438 368.660156 236.042969 C 377.355469 230.453125 387.296875 226.105469 397.855469 224.242188 C 403.445312 223 407.792969 218.027344 407.792969 211.816406 L 407.792969 193.804688 C 407.792969 193.804688 408.414062 193.183594 409.65625 193.183594 L 423.945312 193.183594 C 425.1875 193.183594 425.808594 193.804688 425.808594 193.804688 L 425.808594 212.4375 C 425.808594 218.027344 430.15625 223.621094 435.746094 224.863281 C 445.683594 227.347656 455.625 231.074219 464.320312 236.664062 C 469.289062 239.769531 475.5 239.148438 479.847656 234.800781 L 492.894531 221.757812 C 492.894531 221.757812 494.136719 221.757812 494.757812 223 L 504.695312 232.9375 C 505.9375 234.179688 505.316406 234.800781 505.9375 234.800781 L 492.894531 247.84375 C 488.546875 252.191406 487.925781 258.40625 491.03125 263.375 C 496.621094 272.070312 500.96875 282.007812 502.832031 292.570312 C 504.074219 298.160156 509.042969 302.507812 515.253906 302.507812 L 533.269531 302.507812 C 533.269531 302.507812 533.890625 303.128906 533.890625 304.371094 L 533.890625 318.65625 Z M 534.511719 318.65625 " fill-opacity="1" fill-rule="nonzero"/><path fill="#ffffff" d="M 416.492188 251.570312 C 383.570312 251.570312 356.859375 278.28125 356.859375 311.203125 C 356.859375 344.125 383.570312 370.835938 416.492188 370.835938 C 449.414062 370.835938 476.121094 344.125 476.121094 311.203125 C 476.121094 278.28125 449.414062 251.570312 416.492188 251.570312 Z M 416.492188 345.988281 C 397.234375 345.988281 381.707031 330.460938 381.707031 311.203125 C 381.707031 291.949219 397.234375 276.417969 416.492188 276.417969 C 435.746094 276.417969 451.277344 291.949219 451.277344 311.203125 C 451.277344 330.460938 435.746094 345.988281 416.492188 345.988281 Z M 416.492188 345.988281 " fill-opacity="1" fill-rule="nonzero"/><path fill="#ffffff" d="M 453.140625 107.460938 C 453.140625 108.277344 453.058594 109.085938 452.902344 109.886719 C 452.742188 110.683594 452.503906 111.460938 452.195312 112.214844 C 451.882812 112.96875 451.5 113.683594 451.046875 114.363281 C 450.59375 115.042969 450.078125 115.667969 449.5 116.246094 C 448.921875 116.824219 448.296875 117.339844 447.617188 117.792969 C 446.941406 118.246094 446.222656 118.628906 445.46875 118.9375 C 444.714844 119.25 443.941406 119.488281 443.140625 119.644531 C 442.339844 119.804688 441.53125 119.886719 440.714844 119.886719 C 439.898438 119.886719 439.09375 119.804688 438.292969 119.644531 C 437.492188 119.488281 436.714844 119.25 435.960938 118.9375 C 435.207031 118.628906 434.492188 118.246094 433.8125 117.792969 C 433.136719 117.339844 432.507812 116.824219 431.929688 116.246094 C 431.355469 115.667969 430.839844 115.042969 430.386719 114.363281 C 429.933594 113.683594 429.550781 112.96875 429.238281 112.214844 C 428.925781 111.460938 428.691406 110.683594 428.53125 109.886719 C 428.371094 109.085938 428.292969 108.277344 428.292969 107.460938 C 428.292969 106.644531 428.371094 105.839844 428.53125 105.039062 C 428.691406 104.238281 428.925781 103.460938 429.238281 102.707031 C 429.550781 101.953125 429.933594 101.238281 430.386719 100.558594 C 430.839844 99.882812 431.355469 99.253906 431.929688 98.675781 C 432.507812 98.101562 433.136719 97.585938 433.8125 97.132812 C 434.492188 96.679688 435.207031 96.296875 435.960938 95.984375 C 436.714844 95.671875 437.492188 95.4375 438.292969 95.277344 C 439.09375 95.117188 439.898438 95.039062 440.714844 95.039062 C 441.53125 95.039062 442.339844 95.117188 443.140625 95.277344 C 443.941406 95.4375 444.714844 95.671875 445.46875 95.984375 C 446.222656 96.296875 446.941406 96.679688 447.617188 97.132812 C 448.296875 97.585938 448.921875 98.101562 449.5 98.675781 C 450.078125 99.253906 450.59375 99.882812 451.046875 100.558594 C 451.5 101.238281 451.882812 101.953125 452.195312 102.707031 C 452.503906 103.460938 452.742188 104.238281 452.902344 105.039062 C 453.058594 105.839844 453.140625 106.644531 453.140625 107.460938 Z M 453.140625 107.460938 " fill-opacity="1" fill-rule="nonzero"/><path fill="#ffffff" d="M 500.96875 119.265625 C 500.96875 120.078125 500.890625 120.886719 500.730469 121.6875 C 500.570312 122.488281 500.335938 123.265625 500.023438 124.019531 C 499.710938 124.773438 499.328125 125.488281 498.875 126.164062 C 498.421875 126.84375 497.90625 127.472656 497.332031 128.046875 C 496.753906 128.625 496.125 129.140625 495.449219 129.59375 C 494.769531 130.046875 494.054688 130.429688 493.300781 130.742188 C 492.546875 131.054688 491.769531 131.289062 490.96875 131.449219 C 490.167969 131.609375 489.359375 131.6875 488.546875 131.6875 C 487.730469 131.6875 486.921875 131.609375 486.121094 131.449219 C 485.320312 131.289062 484.546875 131.054688 483.792969 130.742188 C 483.039062 130.429688 482.320312 130.046875 481.644531 129.59375 C 480.964844 129.140625 480.335938 128.625 479.761719 128.046875 C 479.183594 127.472656 478.667969 126.84375 478.214844 126.164062 C 477.761719 125.488281 477.378906 124.773438 477.066406 124.019531 C 476.753906 123.265625 476.519531 122.488281 476.359375 121.6875 C 476.203125 120.886719 476.121094 120.078125 476.121094 119.265625 C 476.121094 118.449219 476.203125 117.640625 476.359375 116.839844 C 476.519531 116.039062 476.753906 115.261719 477.066406 114.507812 C 477.378906 113.757812 477.761719 113.039062 478.214844 112.363281 C 478.667969 111.683594 479.183594 111.054688 479.761719 110.480469 C 480.335938 109.902344 480.964844 109.386719 481.644531 108.933594 C 482.320312 108.480469 483.039062 108.097656 483.792969 107.785156 C 484.546875 107.472656 485.320312 107.238281 486.121094 107.078125 C 486.921875 106.921875 487.730469 106.839844 488.546875 106.839844 C 489.359375 106.839844 490.167969 106.921875 490.96875 107.078125 C 491.769531 107.238281 492.546875 107.472656 493.300781 107.785156 C 494.054688 108.097656 494.769531 108.480469 495.449219 108.933594 C 496.125 109.386719 496.753906 109.902344 497.332031 110.480469 C 497.90625 111.054688 498.421875 111.683594 498.875 112.363281 C 499.328125 113.039062 499.710938 113.757812 500.023438 114.507812 C 500.335938 115.261719 500.570312 116.039062 500.730469 116.839844 C 500.890625 117.640625 500.96875 118.449219 500.96875 119.265625 Z M 500.96875 119.265625 " fill-opacity="1" fill-rule="nonzero"/><path fill="#ffffff" d="M 545.070312 142.246094 C 545.070312 143.0625 544.992188 143.871094 544.832031 144.671875 C 544.671875 145.46875 544.4375 146.246094 544.125 147 C 543.8125 147.753906 543.429688 148.472656 542.976562 149.148438 C 542.523438 149.828125 542.007812 150.453125 541.433594 151.03125 C 540.855469 151.609375 540.230469 152.125 539.550781 152.578125 C 538.871094 153.03125 538.15625 153.414062 537.402344 153.722656 C 536.648438 154.035156 535.871094 154.273438 535.070312 154.429688 C 534.273438 154.589844 533.464844 154.671875 532.648438 154.671875 C 531.832031 154.671875 531.023438 154.589844 530.226562 154.429688 C 529.425781 154.273438 528.648438 154.035156 527.894531 153.722656 C 527.140625 153.414062 526.425781 153.03125 525.746094 152.578125 C 525.066406 152.125 524.441406 151.609375 523.863281 151.03125 C 523.285156 150.453125 522.773438 149.828125 522.320312 149.148438 C 521.867188 148.472656 521.484375 147.753906 521.171875 147 C 520.859375 146.246094 520.621094 145.46875 520.464844 144.671875 C 520.304688 143.871094 520.226562 143.0625 520.226562 142.246094 C 520.226562 141.429688 520.304688 140.625 520.464844 139.824219 C 520.621094 139.023438 520.859375 138.246094 521.171875 137.492188 C 521.484375 136.738281 521.867188 136.023438 522.320312 135.34375 C 522.773438 134.667969 523.285156 134.039062 523.863281 133.460938 C 524.441406 132.886719 525.066406 132.371094 525.746094 131.917969 C 526.425781 131.464844 527.140625 131.082031 527.894531 130.769531 C 528.648438 130.457031 529.425781 130.222656 530.226562 130.0625 C 531.023438 129.902344 531.832031 129.824219 532.648438 129.824219 C 533.464844 129.824219 534.273438 129.902344 535.070312 130.0625 C 535.871094 130.222656 536.648438 130.457031 537.402344 130.769531 C 538.15625 131.082031 538.871094 131.464844 539.550781 131.917969 C 540.230469 132.371094 540.855469 132.886719 541.433594 133.460938 C 542.007812 134.039062 542.523438 134.667969 542.976562 135.34375 C 543.429688 136.023438 543.8125 136.738281 544.125 137.492188 C 544.4375 138.246094 544.671875 139.023438 544.832031 139.824219 C 544.992188 140.625 545.070312 141.429688 545.070312 142.246094 Z M 545.070312 142.246094 " fill-opacity="1" fill-rule="nonzero"/><path fill="#ffffff" d="M 581.71875 174.546875 C 581.71875 175.363281 581.640625 176.171875 581.480469 176.972656 C 581.324219 177.769531 581.085938 178.546875 580.773438 179.300781 C 580.460938 180.054688 580.078125 180.769531 579.625 181.449219 C 579.171875 182.128906 578.660156 182.753906 578.082031 183.332031 C 577.503906 183.910156 576.878906 184.425781 576.199219 184.878906 C 575.519531 185.332031 574.804688 185.714844 574.050781 186.023438 C 573.296875 186.335938 572.519531 186.574219 571.722656 186.730469 C 570.921875 186.890625 570.113281 186.972656 569.296875 186.972656 C 568.480469 186.972656 567.671875 186.890625 566.875 186.730469 C 566.074219 186.574219 565.296875 186.335938 564.542969 186.023438 C 563.789062 185.714844 563.074219 185.332031 562.394531 184.878906 C 561.71875 184.425781 561.089844 183.910156 560.511719 183.332031 C 559.9375 182.753906 559.421875 182.128906 558.96875 181.449219 C 558.515625 180.769531 558.132812 180.054688 557.820312 179.300781 C 557.507812 178.546875 557.273438 177.769531 557.113281 176.972656 C 556.953125 176.171875 556.875 175.363281 556.875 174.546875 C 556.875 173.730469 556.953125 172.925781 557.113281 172.125 C 557.273438 171.324219 557.507812 170.546875 557.820312 169.792969 C 558.132812 169.039062 558.515625 168.324219 558.96875 167.644531 C 559.421875 166.96875 559.9375 166.339844 560.511719 165.761719 C 561.089844 165.1875 561.71875 164.671875 562.394531 164.21875 C 563.074219 163.765625 563.789062 163.382812 564.542969 163.070312 C 565.296875 162.757812 566.074219 162.523438 566.875 162.363281 C 567.671875 162.203125 568.480469 162.125 569.296875 162.125 C 570.113281 162.125 570.921875 162.203125 571.722656 162.363281 C 572.519531 162.523438 573.296875 162.757812 574.050781 163.070312 C 574.804688 163.382812 575.519531 163.765625 576.199219 164.21875 C 576.878906 164.671875 577.503906 165.1875 578.082031 165.761719 C 578.660156 166.339844 579.171875 166.96875 579.625 167.644531 C 580.078125 168.324219 580.460938 169.039062 580.773438 169.792969 C 581.085938 170.546875 581.324219 171.324219 581.480469 172.125 C 581.640625 172.925781 581.71875 173.730469 581.71875 174.546875 Z M 581.71875 174.546875 " fill-opacity="1" fill-rule="nonzero"/><path fill="#ffffff" d="M 610.292969 214.921875 C 610.292969 215.738281 610.214844 216.546875 610.054688 217.347656 C 609.894531 218.148438 609.660156 218.925781 609.347656 219.675781 C 609.035156 220.429688 608.652344 221.148438 608.199219 221.824219 C 607.746094 222.503906 607.230469 223.132812 606.65625 223.707031 C 606.078125 224.285156 605.449219 224.800781 604.773438 225.253906 C 604.09375 225.707031 603.378906 226.089844 602.625 226.402344 C 601.871094 226.714844 601.09375 226.949219 600.292969 227.109375 C 599.496094 227.265625 598.6875 227.347656 597.871094 227.347656 C 597.054688 227.347656 596.246094 227.265625 595.445312 227.109375 C 594.648438 226.949219 593.871094 226.714844 593.117188 226.402344 C 592.363281 226.089844 591.648438 225.707031 590.96875 225.253906 C 590.289062 224.800781 589.664062 224.285156 589.085938 223.707031 C 588.507812 223.132812 587.996094 222.503906 587.542969 221.824219 C 587.089844 221.148438 586.707031 220.429688 586.394531 219.675781 C 586.082031 218.925781 585.84375 218.148438 585.6875 217.347656 C 585.527344 216.546875 585.449219 215.738281 585.449219 214.921875 C 585.449219 214.109375 585.527344 213.300781 585.6875 212.5 C 585.84375 211.699219 586.082031 210.921875 586.394531 210.167969 C 586.707031 209.414062 587.085938 208.699219 587.542969 208.019531 C 587.996094 207.34375 588.507812 206.714844 589.085938 206.140625 C 589.664062 205.5625 590.289062 205.046875 590.96875 204.59375 C 591.648438 204.140625 592.363281 203.757812 593.117188 203.445312 C 593.871094 203.132812 594.648438 202.898438 595.445312 202.738281 C 596.246094 202.578125 597.054688 202.5 597.871094 202.5 C 598.6875 202.5 599.496094 202.578125 600.292969 202.738281 C 601.09375 202.898438 601.871094 203.132812 602.625 203.445312 C 603.378906 203.757812 604.09375 204.140625 604.773438 204.59375 C 605.449219 205.046875 606.078125 205.5625 606.65625 206.140625 C 607.230469 206.714844 607.746094 207.34375 608.199219 208.019531 C 608.652344 208.699219 609.035156 209.414062 609.347656 210.167969 C 609.660156 210.921875 609.894531 211.699219 610.054688 212.5 C 610.214844 213.300781 610.292969 214.109375 610.292969 214.921875 Z M 610.292969 214.921875 " fill-opacity="1" fill-rule="nonzero"/><path fill="#ffffff" d="M 627.6875 261.511719 C 627.6875 262.328125 627.605469 263.132812 627.449219 263.933594 C 627.289062 264.734375 627.054688 265.511719 626.742188 266.265625 C 626.429688 267.019531 626.046875 267.734375 625.59375 268.414062 C 625.140625 269.089844 624.625 269.71875 624.046875 270.296875 C 623.472656 270.871094 622.84375 271.386719 622.164062 271.839844 C 621.488281 272.292969 620.769531 272.675781 620.015625 272.988281 C 619.265625 273.300781 618.488281 273.535156 617.6875 273.695312 C 616.886719 273.855469 616.078125 273.933594 615.261719 273.933594 C 614.449219 273.933594 613.640625 273.855469 612.839844 273.695312 C 612.039062 273.535156 611.261719 273.300781 610.507812 272.988281 C 609.753906 272.675781 609.039062 272.292969 608.363281 271.839844 C 607.683594 271.386719 607.054688 270.871094 606.480469 270.296875 C 605.902344 269.71875 605.386719 269.089844 604.933594 268.414062 C 604.480469 267.734375 604.097656 267.019531 603.785156 266.265625 C 603.472656 265.511719 603.238281 264.734375 603.078125 263.933594 C 602.917969 263.132812 602.839844 262.328125 602.839844 261.511719 C 602.839844 260.695312 602.917969 259.886719 603.078125 259.085938 C 603.238281 258.285156 603.472656 257.511719 603.785156 256.757812 C 604.097656 256.003906 604.480469 255.285156 604.933594 254.609375 C 605.386719 253.929688 605.902344 253.304688 606.480469 252.726562 C 607.054688 252.148438 607.683594 251.632812 608.359375 251.179688 C 609.039062 250.726562 609.753906 250.34375 610.507812 250.03125 C 611.261719 249.722656 612.039062 249.484375 612.839844 249.324219 C 613.640625 249.167969 614.449219 249.085938 615.261719 249.085938 C 616.078125 249.085938 616.886719 249.167969 617.6875 249.324219 C 618.488281 249.484375 619.265625 249.722656 620.015625 250.03125 C 620.769531 250.34375 621.488281 250.726562 622.164062 251.179688 C 622.84375 251.632812 623.472656 252.148438 624.046875 252.726562 C 624.625 253.304688 625.140625 253.929688 625.59375 254.609375 C 626.046875 255.285156 626.429688 256.003906 626.742188 256.757812 C 627.054688 257.511719 627.289062 258.285156 627.449219 259.085938 C 627.605469 259.886719 627.6875 260.695312 627.6875 261.511719 Z M 627.6875 261.511719 " fill-opacity="1" fill-rule="nonzero"/><path fill="#ffffff" d="M 633.898438 310.582031 C 633.898438 311.398438 633.820312 312.207031 633.660156 313.007812 C 633.5 313.804688 633.265625 314.582031 632.953125 315.335938 C 632.640625 316.089844 632.257812 316.804688 631.804688 317.484375 C 631.351562 318.164062 630.835938 318.789062 630.257812 319.367188 C 629.683594 319.945312 629.054688 320.460938 628.378906 320.914062 C 627.699219 321.367188 626.984375 321.75 626.230469 322.058594 C 625.476562 322.371094 624.699219 322.609375 623.898438 322.765625 C 623.097656 322.925781 622.289062 323.007812 621.476562 323.007812 C 620.660156 323.007812 619.851562 322.925781 619.050781 322.765625 C 618.25 322.609375 617.472656 322.371094 616.722656 322.058594 C 615.96875 321.75 615.25 321.367188 614.574219 320.914062 C 613.894531 320.460938 613.265625 319.945312 612.691406 319.367188 C 612.113281 318.789062 611.597656 318.164062 611.144531 317.484375 C 610.691406 316.804688 610.308594 316.089844 609.996094 315.335938 C 609.683594 314.582031 609.449219 313.804688 609.289062 313.007812 C 609.132812 312.207031 609.050781 311.398438 609.050781 310.582031 C 609.050781 309.765625 609.132812 308.960938 609.289062 308.160156 C 609.449219 307.359375 609.683594 306.582031 609.996094 305.828125 C 610.308594 305.074219 610.691406 304.359375 611.144531 303.679688 C 611.597656 303.003906 612.113281 302.375 612.691406 301.796875 C 613.265625 301.222656 613.894531 300.707031 614.574219 300.253906 C 615.25 299.800781 615.96875 299.417969 616.722656 299.105469 C 617.472656 298.792969 618.25 298.558594 619.050781 298.398438 C 619.851562 298.238281 620.660156 298.160156 621.476562 298.160156 C 622.289062 298.160156 623.097656 298.238281 623.898438 298.398438 C 624.699219 298.558594 625.476562 298.792969 626.230469 299.105469 C 626.984375 299.417969 627.699219 299.800781 628.378906 300.253906 C 629.054688 300.707031 629.683594 301.222656 630.257812 301.796875 C 630.835938 302.375 631.351562 303.003906 631.804688 303.679688 C 632.257812 304.359375 632.640625 305.074219 632.953125 305.828125 C 633.265625 306.582031 633.5 307.359375 633.660156 308.160156 C 633.820312 308.960938 633.898438 309.765625 633.898438 310.582031 Z M 633.898438 310.582031 " fill-opacity="1" fill-rule="nonzero"/><path fill="#ffffff" d="M 627.6875 360.277344 C 627.6875 361.09375 627.605469 361.898438 627.449219 362.699219 C 627.289062 363.5 627.054688 364.277344 626.742188 365.03125 C 626.429688 365.785156 626.046875 366.5 625.59375 367.179688 C 625.140625 367.855469 624.625 368.484375 624.046875 369.0625 C 623.472656 369.636719 622.84375 370.152344 622.164062 370.605469 C 621.488281 371.058594 620.769531 371.441406 620.015625 371.753906 C 619.265625 372.066406 618.488281 372.300781 617.6875 372.460938 C 616.886719 372.621094 616.078125 372.699219 615.261719 372.699219 C 614.449219 372.699219 613.640625 372.621094 612.839844 372.460938 C 612.039062 372.300781 611.261719 372.066406 610.507812 371.753906 C 609.753906 371.441406 609.039062 371.058594 608.363281 370.605469 C 607.683594 370.152344 607.054688 369.636719 606.480469 369.0625 C 605.902344 368.484375 605.386719 367.855469 604.933594 367.179688 C 604.480469 366.5 604.097656 365.785156 603.785156 365.03125 C 603.472656 364.277344 603.238281 363.5 603.078125 362.699219 C 602.917969 361.898438 602.839844 361.09375 602.839844 360.277344 C 602.839844 359.460938 602.917969 358.652344 603.078125 357.851562 C 603.238281 357.050781 603.472656 356.277344 603.785156 355.523438 C 604.097656 354.769531 604.480469 354.050781 604.933594 353.375 C 605.386719 352.695312 605.902344 352.066406 606.480469 351.492188 C 607.054688 350.914062 607.683594 350.398438 608.359375 349.945312 C 609.039062 349.492188 609.753906 349.109375 610.507812 348.796875 C 611.261719 348.484375 612.039062 348.25 612.839844 348.089844 C 613.640625 347.933594 614.449219 347.851562 615.261719 347.851562 C 616.078125 347.851562 616.886719 347.933594 617.6875 348.089844 C 618.488281 348.25 619.265625 348.484375 620.015625 348.796875 C 620.769531 349.109375 621.488281 349.492188 622.164062 349.945312 C 622.84375 350.398438 623.472656 350.914062 624.046875 351.492188 C 624.625 352.066406 625.140625 352.695312 625.59375 353.375 C 626.046875 354.050781 626.429688 354.769531 626.742188 355.523438 C 627.054688 356.277344 627.289062 357.050781 627.449219 357.851562 C 627.605469 358.652344 627.6875 359.460938 627.6875 360.277344 Z M 627.6875 360.277344 " fill-opacity="1" fill-rule="nonzero"/><path fill="#ffffff" d="M 610.292969 406.242188 C 610.292969 407.058594 610.214844 407.867188 610.054688 408.667969 C 609.894531 409.464844 609.660156 410.242188 609.347656 410.996094 C 609.035156 411.75 608.652344 412.464844 608.199219 413.144531 C 607.746094 413.824219 607.230469 414.449219 606.65625 415.027344 C 606.078125 415.605469 605.449219 416.117188 604.773438 416.570312 C 604.09375 417.023438 603.378906 417.40625 602.625 417.71875 C 601.871094 418.03125 601.09375 418.269531 600.292969 418.425781 C 599.496094 418.585938 598.6875 418.664062 597.871094 418.664062 C 597.054688 418.664062 596.246094 418.585938 595.445312 418.425781 C 594.648438 418.269531 593.871094 418.03125 593.117188 417.71875 C 592.363281 417.40625 591.648438 417.023438 590.96875 416.570312 C 590.289062 416.117188 589.664062 415.605469 589.085938 415.027344 C 588.507812 414.449219 587.996094 413.824219 587.542969 413.144531 C 587.089844 412.464844 586.707031 411.75 586.394531 410.996094 C 586.082031 410.242188 585.84375 409.464844 585.6875 408.664062 C 585.527344 407.867188 585.449219 407.058594 585.449219 406.242188 C 585.449219 405.425781 585.527344 404.617188 585.6875 403.820312 C 585.84375 403.019531 586.082031 402.242188 586.394531 401.488281 C 586.707031 400.734375 587.085938 400.019531 587.542969 399.339844 C 587.996094 398.660156 588.507812 398.035156 589.085938 397.457031 C 589.664062 396.882812 590.289062 396.367188 590.96875 395.914062 C 591.648438 395.460938 592.363281 395.078125 593.117188 394.765625 C 593.871094 394.453125 594.648438 394.21875 595.445312 394.058594 C 596.246094 393.898438 597.054688 393.820312 597.871094 393.820312 C 598.6875 393.820312 599.496094 393.898438 600.292969 394.058594 C 601.09375 394.21875 601.871094 394.453125 602.625 394.765625 C 603.378906 395.078125 604.09375 395.460938 604.773438 395.914062 C 605.449219 396.367188 606.078125 396.882812 606.65625 397.457031 C 607.230469 398.035156 607.746094 398.660156 608.199219 399.339844 C 608.652344 400.019531 609.035156 400.734375 609.347656 401.488281 C 609.660156 402.242188 609.894531 403.019531 610.054688 403.820312 C 610.214844 404.617188 610.292969 405.425781 610.292969 406.242188 Z M 610.292969 406.242188 " fill-opacity="1" fill-rule="nonzero"/><path fill="#ffffff" d="M 582.339844 447.238281 C 582.339844 448.054688 582.261719 448.863281 582.101562 449.664062 C 581.945312 450.464844 581.707031 451.238281 581.394531 451.992188 C 581.082031 452.746094 580.699219 453.464844 580.246094 454.140625 C 579.792969 454.820312 579.28125 455.445312 578.703125 456.023438 C 578.125 456.601562 577.5 457.117188 576.820312 457.570312 C 576.140625 458.023438 575.425781 458.40625 574.671875 458.71875 C 573.917969 459.027344 573.140625 459.265625 572.34375 459.425781 C 571.542969 459.582031 570.734375 459.664062 569.917969 459.664062 C 569.101562 459.664062 568.292969 459.582031 567.496094 459.425781 C 566.695312 459.265625 565.917969 459.027344 565.164062 458.71875 C 564.410156 458.40625 563.695312 458.023438 563.015625 457.570312 C 562.339844 457.117188 561.710938 456.601562 561.132812 456.023438 C 560.558594 455.445312 560.042969 454.820312 559.589844 454.140625 C 559.136719 453.464844 558.753906 452.746094 558.441406 451.992188 C 558.128906 451.238281 557.894531 450.464844 557.734375 449.664062 C 557.574219 448.863281 557.496094 448.054688 557.496094 447.238281 C 557.496094 446.421875 557.574219 445.617188 557.734375 444.816406 C 557.894531 444.015625 558.128906 443.238281 558.441406 442.484375 C 558.753906 441.730469 559.136719 441.015625 559.589844 440.335938 C 560.042969 439.660156 560.558594 439.03125 561.132812 438.453125 C 561.710938 437.878906 562.339844 437.363281 563.015625 436.910156 C 563.695312 436.457031 564.410156 436.074219 565.164062 435.761719 C 565.917969 435.449219 566.695312 435.214844 567.496094 435.054688 C 568.292969 434.894531 569.101562 434.816406 569.917969 434.816406 C 570.734375 434.816406 571.542969 434.894531 572.34375 435.054688 C 573.140625 435.214844 573.917969 435.449219 574.671875 435.761719 C 575.425781 436.074219 576.140625 436.457031 576.820312 436.910156 C 577.5 437.363281 578.125 437.878906 578.703125 438.453125 C 579.28125 439.03125 579.792969 439.660156 580.246094 440.335938 C 580.699219 441.015625 581.082031 441.730469 581.394531 442.484375 C 581.707031 443.238281 581.945312 444.015625 582.101562 444.816406 C 582.261719 445.617188 582.339844 446.421875 582.339844 447.238281 Z M 582.339844 447.238281 " fill-opacity="1" fill-rule="nonzero"/><path fill="#ffffff" d="M 545.691406 479.539062 C 545.691406 480.355469 545.613281 481.164062 545.453125 481.964844 C 545.296875 482.761719 545.058594 483.539062 544.746094 484.292969 C 544.433594 485.046875 544.050781 485.761719 543.597656 486.441406 C 543.144531 487.121094 542.632812 487.746094 542.054688 488.324219 C 541.476562 488.902344 540.851562 489.417969 540.171875 489.871094 C 539.492188 490.324219 538.777344 490.707031 538.023438 491.015625 C 537.269531 491.328125 536.492188 491.566406 535.691406 491.722656 C 534.894531 491.882812 534.085938 491.964844 533.269531 491.964844 C 532.453125 491.964844 531.644531 491.882812 530.847656 491.722656 C 530.046875 491.566406 529.269531 491.328125 528.515625 491.015625 C 527.761719 490.707031 527.046875 490.324219 526.367188 489.871094 C 525.6875 489.417969 525.0625 488.902344 524.484375 488.324219 C 523.90625 487.746094 523.394531 487.121094 522.941406 486.441406 C 522.488281 485.761719 522.105469 485.046875 521.792969 484.292969 C 521.480469 483.539062 521.242188 482.761719 521.085938 481.964844 C 520.925781 481.164062 520.847656 480.355469 520.847656 479.539062 C 520.847656 478.722656 520.925781 477.917969 521.085938 477.117188 C 521.242188 476.316406 521.480469 475.539062 521.792969 474.785156 C 522.105469 474.03125 522.488281 473.316406 522.941406 472.636719 C 523.394531 471.960938 523.90625 471.332031 524.484375 470.753906 C 525.0625 470.179688 525.6875 469.664062 526.367188 469.210938 C 527.046875 468.757812 527.761719 468.375 528.515625 468.0625 C 529.269531 467.75 530.046875 467.515625 530.847656 467.355469 C 531.644531 467.195312 532.453125 467.117188 533.269531 467.117188 C 534.085938 467.117188 534.894531 467.195312 535.691406 467.355469 C 536.492188 467.515625 537.269531 467.75 538.023438 468.0625 C 538.777344 468.375 539.492188 468.757812 540.171875 469.210938 C 540.851562 469.664062 541.476562 470.179688 542.054688 470.753906 C 542.632812 471.332031 543.144531 471.960938 543.597656 472.636719 C 544.050781 473.316406 544.433594 474.03125 544.746094 474.785156 C 545.058594 475.539062 545.296875 476.316406 545.453125 477.117188 C 545.613281 477.917969 545.691406 478.722656 545.691406 479.539062 Z M 545.691406 479.539062 " fill-opacity="1" fill-rule="nonzero"/><path fill="#ffffff" d="M 501.589844 502.523438 C 501.589844 503.339844 501.511719 504.148438 501.351562 504.945312 C 501.191406 505.746094 500.957031 506.523438 500.644531 507.277344 C 500.332031 508.03125 499.949219 508.746094 499.496094 509.425781 C 499.042969 510.101562 498.527344 510.730469 497.953125 511.308594 C 497.375 511.882812 496.746094 512.398438 496.070312 512.851562 C 495.390625 513.304688 494.675781 513.6875 493.921875 514 C 493.167969 514.3125 492.390625 514.546875 491.589844 514.707031 C 490.789062 514.867188 489.984375 514.945312 489.167969 514.945312 C 488.351562 514.945312 487.542969 514.867188 486.742188 514.707031 C 485.941406 514.546875 485.167969 514.3125 484.414062 514 C 483.660156 513.6875 482.941406 513.304688 482.265625 512.851562 C 481.585938 512.398438 480.957031 511.882812 480.382812 511.308594 C 479.804688 510.730469 479.289062 510.101562 478.835938 509.425781 C 478.382812 508.746094 478 508.03125 477.6875 507.277344 C 477.375 506.523438 477.140625 505.746094 476.980469 504.945312 C 476.824219 504.148438 476.742188 503.339844 476.742188 502.523438 C 476.742188 501.707031 476.824219 500.898438 476.980469 500.097656 C 477.140625 499.300781 477.375 498.523438 477.6875 497.769531 C 478 497.015625 478.382812 496.300781 478.835938 495.621094 C 479.289062 494.941406 479.804688 494.316406 480.382812 493.738281 C 480.957031 493.160156 481.585938 492.648438 482.265625 492.195312 C 482.941406 491.738281 483.660156 491.359375 484.414062 491.046875 C 485.167969 490.734375 485.941406 490.496094 486.742188 490.339844 C 487.542969 490.179688 488.351562 490.101562 489.167969 490.101562 C 489.984375 490.101562 490.789062 490.179688 491.589844 490.339844 C 492.390625 490.496094 493.167969 490.734375 493.921875 491.046875 C 494.675781 491.359375 495.390625 491.738281 496.070312 492.195312 C 496.746094 492.648438 497.375 493.160156 497.953125 493.738281 C 498.527344 494.316406 499.042969 494.941406 499.496094 495.621094 C 499.949219 496.300781 500.332031 497.015625 500.644531 497.769531 C 500.957031 498.523438 501.191406 499.300781 501.351562 500.097656 C 501.511719 500.898438 501.589844 501.707031 501.589844 502.523438 Z M 501.589844 502.523438 " fill-opacity="1" fill-rule="nonzero"/><path fill="#ffffff" d="M 453.761719 514.324219 C 453.761719 515.140625 453.679688 515.949219 453.523438 516.75 C 453.363281 517.550781 453.125 518.324219 452.816406 519.078125 C 452.503906 519.832031 452.121094 520.550781 451.667969 521.226562 C 451.214844 521.90625 450.699219 522.53125 450.121094 523.109375 C 449.542969 523.6875 448.917969 524.203125 448.238281 524.65625 C 447.5625 525.109375 446.84375 525.492188 446.089844 525.804688 C 445.335938 526.113281 444.5625 526.351562 443.761719 526.507812 C 442.960938 526.667969 442.152344 526.75 441.335938 526.75 C 440.519531 526.75 439.714844 526.667969 438.914062 526.507812 C 438.113281 526.351562 437.335938 526.113281 436.582031 525.804688 C 435.828125 525.492188 435.113281 525.109375 434.433594 524.65625 C 433.757812 524.203125 433.128906 523.6875 432.550781 523.109375 C 431.976562 522.53125 431.460938 521.90625 431.007812 521.226562 C 430.554688 520.550781 430.171875 519.832031 429.859375 519.078125 C 429.546875 518.324219 429.3125 517.550781 429.152344 516.75 C 428.992188 515.949219 428.914062 515.140625 428.914062 514.324219 C 428.914062 513.507812 428.992188 512.703125 429.152344 511.902344 C 429.3125 511.101562 429.546875 510.324219 429.859375 509.570312 C 430.171875 508.816406 430.554688 508.101562 431.007812 507.421875 C 431.460938 506.746094 431.976562 506.117188 432.550781 505.539062 C 433.128906 504.964844 433.757812 504.449219 434.433594 503.996094 C 435.113281 503.542969 435.828125 503.160156 436.582031 502.847656 C 437.335938 502.535156 438.113281 502.300781 438.914062 502.140625 C 439.714844 501.980469 440.519531 501.902344 441.335938 501.902344 C 442.152344 501.902344 442.960938 501.980469 443.761719 502.140625 C 444.5625 502.300781 445.335938 502.535156 446.089844 502.847656 C 446.84375 503.160156 447.5625 503.542969 448.238281 503.996094 C 448.917969 504.449219 449.542969 504.964844 450.121094 505.539062 C 450.699219 506.117188 451.214844 506.746094 451.667969 507.421875 C 452.121094 508.101562 452.503906 508.816406 452.816406 509.570312 C 453.125 510.324219 453.363281 511.101562 453.523438 511.902344 C 453.679688 512.703125 453.761719 513.507812 453.761719 514.324219 Z M 453.761719 514.324219 " fill-opacity="1" fill-rule="nonzero"/><path fill="#ffffff" d="M 404.6875 514.324219 C 404.6875 515.140625 404.609375 515.949219 404.449219 516.75 C 404.289062 517.550781 404.054688 518.324219 403.742188 519.078125 C 403.429688 519.832031 403.046875 520.550781 402.59375 521.226562 C 402.140625 521.90625 401.625 522.53125 401.050781 523.109375 C 400.472656 523.6875 399.84375 524.203125 399.167969 524.65625 C 398.488281 525.109375 397.773438 525.492188 397.019531 525.804688 C 396.265625 526.113281 395.488281 526.351562 394.6875 526.507812 C 393.886719 526.667969 393.082031 526.75 392.265625 526.75 C 391.449219 526.75 390.640625 526.667969 389.839844 526.507812 C 389.042969 526.351562 388.265625 526.113281 387.511719 525.804688 C 386.757812 525.492188 386.042969 525.109375 385.363281 524.65625 C 384.683594 524.203125 384.058594 523.6875 383.480469 523.109375 C 382.902344 522.53125 382.386719 521.90625 381.933594 521.226562 C 381.480469 520.550781 381.097656 519.832031 380.789062 519.078125 C 380.476562 518.324219 380.238281 517.550781 380.082031 516.75 C 379.921875 515.949219 379.839844 515.140625 379.839844 514.324219 C 379.839844 513.507812 379.921875 512.703125 380.082031 511.902344 C 380.238281 511.101562 380.476562 510.324219 380.789062 509.570312 C 381.097656 508.816406 381.480469 508.101562 381.933594 507.421875 C 382.386719 506.746094 382.902344 506.117188 383.480469 505.539062 C 384.058594 504.964844 384.683594 504.449219 385.363281 503.996094 C 386.042969 503.542969 386.757812 503.160156 387.511719 502.847656 C 388.265625 502.535156 389.042969 502.300781 389.839844 502.140625 C 390.640625 501.980469 391.449219 501.902344 392.265625 501.902344 C 393.082031 501.902344 393.886719 501.980469 394.6875 502.140625 C 395.488281 502.300781 396.265625 502.535156 397.019531 502.847656 C 397.773438 503.160156 398.488281 503.542969 399.167969 503.996094 C 399.84375 504.449219 400.472656 504.964844 401.050781 505.539062 C 401.625 506.117188 402.140625 506.746094 402.59375 507.421875 C 403.046875 508.101562 403.429688 508.816406 403.742188 509.570312 C 404.054688 510.324219 404.289062 511.101562 404.449219 511.902344 C 404.609375 512.703125 404.6875 513.507812 404.6875 514.324219 Z M 404.6875 514.324219 " fill-opacity="1" fill-rule="nonzero"/><path fill="#ffffff" d="M 356.238281 502.523438 C 356.238281 503.339844 356.15625 504.148438 356 504.945312 C 355.839844 505.746094 355.605469 506.523438 355.292969 507.277344 C 354.980469 508.03125 354.597656 508.746094 354.144531 509.425781 C 353.691406 510.101562 353.175781 510.730469 352.597656 511.308594 C 352.023438 511.882812 351.394531 512.398438 350.714844 512.851562 C 350.039062 513.304688 349.320312 513.6875 348.566406 514 C 347.816406 514.3125 347.039062 514.546875 346.238281 514.707031 C 345.4375 514.867188 344.628906 514.945312 343.8125 514.945312 C 343 514.945312 342.191406 514.867188 341.390625 514.707031 C 340.589844 514.546875 339.8125 514.3125 339.058594 514 C 338.304688 513.6875 337.589844 513.304688 336.910156 512.851562 C 336.234375 512.398438 335.605469 511.882812 335.03125 511.308594 C 334.453125 510.730469 333.9375 510.101562 333.484375 509.425781 C 333.03125 508.746094 332.648438 508.03125 332.335938 507.277344 C 332.023438 506.523438 331.789062 505.746094 331.628906 504.945312 C 331.46875 504.148438 331.390625 503.339844 331.390625 502.523438 C 331.390625 501.707031 331.46875 500.898438 331.628906 500.097656 C 331.789062 499.300781 332.023438 498.523438 332.335938 497.769531 C 332.648438 497.015625 333.03125 496.300781 333.484375 495.621094 C 333.9375 494.941406 334.453125 494.316406 335.03125 493.738281 C 335.605469 493.160156 336.234375 492.648438 336.910156 492.195312 C 337.589844 491.738281 338.304688 491.359375 339.058594 491.046875 C 339.8125 490.734375 340.589844 490.496094 341.390625 490.339844 C 342.191406 490.179688 343 490.101562 343.8125 490.101562 C 344.628906 490.101562 345.4375 490.179688 346.238281 490.339844 C 347.039062 490.496094 347.816406 490.734375 348.566406 491.046875 C 349.320312 491.359375 350.039062 491.738281 350.714844 492.195312 C 351.394531 492.648438 352.023438 493.160156 352.597656 493.738281 C 353.175781 494.316406 353.691406 494.941406 354.144531 495.621094 C 354.597656 496.300781 354.980469 497.015625 355.292969 497.769531 C 355.605469 498.523438 355.839844 499.300781 356 500.097656 C 356.15625 500.898438 356.238281 501.707031 356.238281 502.523438 Z M 356.238281 502.523438 " fill-opacity="1" fill-rule="nonzero"/><path fill="#ffffff" d="M 312.753906 480.160156 C 312.753906 480.976562 312.675781 481.785156 312.515625 482.585938 C 312.359375 483.382812 312.121094 484.160156 311.808594 484.914062 C 311.496094 485.667969 311.113281 486.386719 310.660156 487.0625 C 310.207031 487.742188 309.695312 488.367188 309.117188 488.945312 C 308.539062 489.523438 307.914062 490.039062 307.234375 490.492188 C 306.554688 490.945312 305.839844 491.328125 305.085938 491.636719 C 304.332031 491.949219 303.554688 492.1875 302.757812 492.34375 C 301.957031 492.503906 301.148438 492.585938 300.332031 492.585938 C 299.515625 492.585938 298.707031 492.503906 297.910156 492.34375 C 297.109375 492.1875 296.332031 491.949219 295.578125 491.636719 C 294.824219 491.328125 294.109375 490.945312 293.429688 490.492188 C 292.753906 490.039062 292.125 489.523438 291.546875 488.945312 C 290.972656 488.367188 290.457031 487.742188 290.003906 487.0625 C 289.550781 486.386719 289.167969 485.667969 288.855469 484.914062 C 288.542969 484.160156 288.308594 483.382812 288.148438 482.585938 C 287.988281 481.785156 287.910156 480.976562 287.910156 480.160156 C 287.910156 479.34375 287.988281 478.539062 288.148438 477.738281 C 288.308594 476.9375 288.542969 476.160156 288.855469 475.40625 C 289.167969 474.652344 289.550781 473.9375 290.003906 473.257812 C 290.457031 472.582031 290.972656 471.953125 291.546875 471.375 C 292.125 470.800781 292.753906 470.285156 293.429688 469.832031 C 294.109375 469.378906 294.824219 468.996094 295.578125 468.683594 C 296.332031 468.371094 297.109375 468.136719 297.910156 467.976562 C 298.707031 467.816406 299.515625 467.738281 300.332031 467.738281 C 301.148438 467.738281 301.957031 467.816406 302.757812 467.976562 C 303.554688 468.136719 304.332031 468.371094 305.085938 468.683594 C 305.839844 468.996094 306.554688 469.378906 307.234375 469.832031 C 307.914062 470.285156 308.539062 470.800781 309.117188 471.375 C 309.695312 471.953125 310.207031 472.582031 310.660156 473.257812 C 311.113281 473.9375 311.496094 474.652344 311.808594 475.40625 C 312.121094 476.160156 312.359375 476.9375 312.515625 477.738281 C 312.675781 478.539062 312.753906 479.34375 312.753906 480.160156 Z M 312.753906 480.160156 " fill-opacity="1" fill-rule="nonzero"/><path fill="#ffffff" d="M 275.484375 447.238281 C 275.484375 448.054688 275.40625 448.863281 275.246094 449.664062 C 275.089844 450.464844 274.851562 451.238281 274.539062 451.992188 C 274.226562 452.746094 273.84375 453.464844 273.390625 454.140625 C 272.9375 454.820312 272.425781 455.445312 271.847656 456.023438 C 271.269531 456.601562 270.644531 457.117188 269.964844 457.570312 C 269.285156 458.023438 268.570312 458.40625 267.816406 458.71875 C 267.0625 459.027344 266.285156 459.265625 265.484375 459.425781 C 264.6875 459.582031 263.878906 459.664062 263.0625 459.664062 C 262.246094 459.664062 261.4375 459.582031 260.640625 459.425781 C 259.839844 459.265625 259.0625 459.027344 258.308594 458.71875 C 257.554688 458.40625 256.839844 458.023438 256.160156 457.570312 C 255.480469 457.117188 254.855469 456.601562 254.277344 456.023438 C 253.699219 455.445312 253.1875 454.820312 252.734375 454.140625 C 252.28125 453.464844 251.898438 452.746094 251.585938 451.992188 C 251.273438 451.238281 251.035156 450.464844 250.878906 449.664062 C 250.71875 448.863281 250.640625 448.054688 250.640625 447.238281 C 250.640625 446.421875 250.71875 445.617188 250.878906 444.816406 C 251.035156 444.015625 251.273438 443.238281 251.585938 442.484375 C 251.898438 441.730469 252.28125 441.015625 252.734375 440.335938 C 253.1875 439.660156 253.699219 439.03125 254.277344 438.453125 C 254.855469 437.878906 255.480469 437.363281 256.160156 436.910156 C 256.839844 436.457031 257.554688 436.074219 258.308594 435.761719 C 259.0625 435.449219 259.839844 435.214844 260.640625 435.054688 C 261.4375 434.894531 262.246094 434.816406 263.0625 434.816406 C 263.878906 434.816406 264.6875 434.894531 265.484375 435.054688 C 266.285156 435.214844 267.0625 435.449219 267.816406 435.761719 C 268.570312 436.074219 269.285156 436.457031 269.964844 436.910156 C 270.644531 437.363281 271.269531 437.878906 271.847656 438.453125 C 272.425781 439.03125 272.9375 439.660156 273.390625 440.335938 C 273.84375 441.015625 274.226562 441.730469 274.539062 442.484375 C 274.851562 443.238281 275.089844 444.015625 275.246094 444.816406 C 275.40625 445.617188 275.484375 446.421875 275.484375 447.238281 Z M 275.484375 447.238281 " fill-opacity="1" fill-rule="nonzero"/><path fill="#ffffff" d="M 247.535156 406.863281 C 247.535156 407.679688 247.453125 408.488281 247.292969 409.289062 C 247.136719 410.085938 246.898438 410.863281 246.585938 411.617188 C 246.277344 412.371094 245.894531 413.085938 245.441406 413.765625 C 244.988281 414.445312 244.472656 415.070312 243.894531 415.648438 C 243.316406 416.226562 242.691406 416.738281 242.011719 417.191406 C 241.332031 417.644531 240.617188 418.027344 239.863281 418.339844 C 239.109375 418.652344 238.332031 418.890625 237.535156 419.046875 C 236.734375 419.207031 235.925781 419.285156 235.109375 419.285156 C 234.292969 419.285156 233.488281 419.207031 232.6875 419.046875 C 231.886719 418.890625 231.109375 418.652344 230.355469 418.339844 C 229.601562 418.027344 228.886719 417.644531 228.207031 417.191406 C 227.53125 416.738281 226.902344 416.226562 226.324219 415.648438 C 225.75 415.070312 225.234375 414.445312 224.78125 413.765625 C 224.328125 413.085938 223.945312 412.371094 223.632812 411.617188 C 223.320312 410.863281 223.085938 410.085938 222.925781 409.289062 C 222.765625 408.488281 222.6875 407.679688 222.6875 406.863281 C 222.6875 406.046875 222.765625 405.238281 222.925781 404.441406 C 223.085938 403.640625 223.320312 402.863281 223.632812 402.109375 C 223.945312 401.355469 224.328125 400.640625 224.78125 399.960938 C 225.234375 399.285156 225.75 398.65625 226.324219 398.078125 C 226.902344 397.503906 227.53125 396.988281 228.207031 396.535156 C 228.886719 396.082031 229.601562 395.699219 230.355469 395.386719 C 231.109375 395.074219 231.886719 394.839844 232.6875 394.679688 C 233.488281 394.519531 234.292969 394.441406 235.109375 394.441406 C 235.925781 394.441406 236.734375 394.519531 237.535156 394.679688 C 238.332031 394.839844 239.109375 395.074219 239.863281 395.386719 C 240.617188 395.699219 241.332031 396.082031 242.011719 396.535156 C 242.691406 396.988281 243.316406 397.503906 243.894531 398.078125 C 244.472656 398.65625 244.988281 399.285156 245.441406 399.960938 C 245.894531 400.640625 246.277344 401.355469 246.585938 402.109375 C 246.898438 402.863281 247.136719 403.640625 247.292969 404.441406 C 247.453125 405.238281 247.535156 406.046875 247.535156 406.863281 Z M 247.535156 406.863281 " fill-opacity="1" fill-rule="nonzero"/><path fill="#ffffff" d="M 230.140625 360.277344 C 230.140625 361.09375 230.0625 361.898438 229.902344 362.699219 C 229.742188 363.5 229.507812 364.277344 229.195312 365.03125 C 228.882812 365.785156 228.5 366.5 228.046875 367.179688 C 227.59375 367.855469 227.078125 368.484375 226.503906 369.0625 C 225.925781 369.636719 225.296875 370.152344 224.621094 370.605469 C 223.941406 371.058594 223.226562 371.441406 222.472656 371.753906 C 221.71875 372.066406 220.941406 372.300781 220.140625 372.460938 C 219.339844 372.621094 218.53125 372.699219 217.71875 372.699219 C 216.902344 372.699219 216.09375 372.621094 215.292969 372.460938 C 214.492188 372.300781 213.71875 372.066406 212.964844 371.753906 C 212.210938 371.441406 211.492188 371.058594 210.816406 370.605469 C 210.136719 370.152344 209.507812 369.636719 208.933594 369.0625 C 208.355469 368.484375 207.839844 367.855469 207.386719 367.179688 C 206.933594 366.5 206.550781 365.785156 206.238281 365.03125 C 205.925781 364.277344 205.691406 363.5 205.53125 362.699219 C 205.375 361.898438 205.292969 361.09375 205.292969 360.277344 C 205.292969 359.460938 205.375 358.652344 205.53125 357.851562 C 205.691406 357.050781 205.925781 356.277344 206.238281 355.523438 C 206.550781 354.769531 206.933594 354.050781 207.386719 353.375 C 207.839844 352.695312 208.355469 352.066406 208.933594 351.492188 C 209.507812 350.914062 210.136719 350.398438 210.816406 349.945312 C 211.492188 349.492188 212.210938 349.109375 212.964844 348.796875 C 213.71875 348.484375 214.492188 348.25 215.292969 348.089844 C 216.09375 347.933594 216.902344 347.851562 217.71875 347.851562 C 218.53125 347.851562 219.339844 347.933594 220.140625 348.089844 C 220.941406 348.25 221.71875 348.484375 222.472656 348.796875 C 223.226562 349.109375 223.941406 349.492188 224.621094 349.945312 C 225.296875 350.398438 225.925781 350.914062 226.503906 351.492188 C 227.078125 352.066406 227.59375 352.695312 228.046875 353.375 C 228.5 354.050781 228.882812 354.769531 229.195312 355.523438 C 229.507812 356.277344 229.742188 357.050781 229.902344 357.851562 C 230.0625 358.652344 230.140625 359.460938 230.140625 360.277344 Z M 230.140625 360.277344 " fill-opacity="1" fill-rule="nonzero"/><path fill="#ffffff" d="M 223.929688 311.824219 C 223.929688 312.640625 223.847656 313.449219 223.691406 314.25 C 223.53125 315.050781 223.296875 315.824219 222.984375 316.578125 C 222.671875 317.332031 222.289062 318.050781 221.835938 318.726562 C 221.382812 319.40625 220.867188 320.03125 220.289062 320.609375 C 219.714844 321.1875 219.085938 321.703125 218.40625 322.15625 C 217.730469 322.609375 217.011719 322.992188 216.261719 323.304688 C 215.507812 323.613281 214.730469 323.851562 213.929688 324.007812 C 213.128906 324.167969 212.320312 324.25 211.503906 324.25 C 210.691406 324.25 209.882812 324.167969 209.082031 324.007812 C 208.28125 323.851562 207.503906 323.613281 206.75 323.304688 C 205.996094 322.992188 205.28125 322.609375 204.605469 322.15625 C 203.925781 321.703125 203.296875 321.1875 202.722656 320.609375 C 202.144531 320.03125 201.628906 319.40625 201.175781 318.726562 C 200.722656 318.050781 200.339844 317.332031 200.027344 316.578125 C 199.714844 315.824219 199.480469 315.050781 199.320312 314.25 C 199.160156 313.449219 199.082031 312.640625 199.082031 311.824219 C 199.082031 311.007812 199.160156 310.203125 199.320312 309.402344 C 199.480469 308.601562 199.714844 307.824219 200.027344 307.070312 C 200.339844 306.316406 200.722656 305.601562 201.175781 304.921875 C 201.628906 304.246094 202.144531 303.617188 202.722656 303.039062 C 203.296875 302.464844 203.925781 301.949219 204.605469 301.496094 C 205.28125 301.042969 205.996094 300.660156 206.75 300.347656 C 207.503906 300.035156 208.28125 299.800781 209.082031 299.640625 C 209.882812 299.480469 210.691406 299.402344 211.503906 299.402344 C 212.320312 299.402344 213.128906 299.480469 213.929688 299.640625 C 214.730469 299.800781 215.507812 300.035156 216.261719 300.347656 C 217.011719 300.660156 217.730469 301.042969 218.40625 301.496094 C 219.085938 301.949219 219.714844 302.464844 220.289062 303.039062 C 220.867188 303.617188 221.382812 304.246094 221.835938 304.921875 C 222.289062 305.601562 222.671875 306.316406 222.984375 307.070312 C 223.296875 307.824219 223.53125 308.601562 223.691406 309.402344 C 223.847656 310.203125 223.929688 311.007812 223.929688 311.824219 Z M 223.929688 311.824219 " fill-opacity="1" fill-rule="nonzero"/><path fill="#ffffff" d="M 230.140625 262.753906 C 230.140625 263.570312 230.0625 264.375 229.902344 265.175781 C 229.742188 265.976562 229.507812 266.753906 229.195312 267.507812 C 228.882812 268.261719 228.5 268.976562 228.046875 269.65625 C 227.59375 270.332031 227.078125 270.960938 226.503906 271.539062 C 225.925781 272.113281 225.296875 272.628906 224.621094 273.082031 C 223.941406 273.535156 223.226562 273.917969 222.472656 274.230469 C 221.71875 274.542969 220.941406 274.777344 220.140625 274.9375 C 219.339844 275.097656 218.53125 275.175781 217.71875 275.175781 C 216.902344 275.175781 216.09375 275.097656 215.292969 274.9375 C 214.492188 274.777344 213.71875 274.542969 212.964844 274.230469 C 212.210938 273.917969 211.492188 273.535156 210.816406 273.082031 C 210.136719 272.628906 209.507812 272.113281 208.933594 271.539062 C 208.355469 270.960938 207.839844 270.332031 207.386719 269.65625 C 206.933594 268.976562 206.550781 268.261719 206.238281 267.507812 C 205.925781 266.753906 205.691406 265.976562 205.53125 265.175781 C 205.375 264.375 205.292969 263.570312 205.292969 262.753906 C 205.292969 261.9375 205.375 261.128906 205.53125 260.328125 C 205.691406 259.53125 205.925781 258.753906 206.238281 258 C 206.550781 257.246094 206.933594 256.53125 207.386719 255.851562 C 207.839844 255.171875 208.355469 254.546875 208.933594 253.96875 C 209.507812 253.390625 210.136719 252.875 210.816406 252.421875 C 211.492188 251.96875 212.210938 251.585938 212.964844 251.277344 C 213.71875 250.964844 214.492188 250.726562 215.292969 250.570312 C 216.09375 250.410156 216.902344 250.328125 217.71875 250.328125 C 218.53125 250.328125 219.339844 250.410156 220.140625 250.570312 C 220.941406 250.726562 221.71875 250.964844 222.472656 251.277344 C 223.226562 251.585938 223.941406 251.96875 224.621094 252.421875 C 225.296875 252.875 225.925781 253.390625 226.503906 253.96875 C 227.078125 254.546875 227.59375 255.171875 228.046875 255.851562 C 228.5 256.53125 228.882812 257.246094 229.195312 258 C 229.507812 258.753906 229.742188 259.53125 229.902344 260.328125 C 230.0625 261.128906 230.140625 261.9375 230.140625 262.753906 Z M 230.140625 262.753906 " fill-opacity="1" fill-rule="nonzero"/><path fill="#ffffff" d="M 247.535156 216.164062 C 247.535156 216.980469 247.453125 217.789062 247.292969 218.589844 C 247.136719 219.390625 246.898438 220.167969 246.585938 220.917969 C 246.277344 221.671875 245.894531 222.390625 245.441406 223.066406 C 244.988281 223.746094 244.472656 224.375 243.894531 224.949219 C 243.316406 225.527344 242.691406 226.042969 242.011719 226.496094 C 241.332031 226.949219 240.617188 227.332031 239.863281 227.644531 C 239.109375 227.957031 238.332031 228.191406 237.535156 228.351562 C 236.734375 228.507812 235.925781 228.589844 235.109375 228.589844 C 234.292969 228.589844 233.488281 228.507812 232.6875 228.351562 C 231.886719 228.191406 231.109375 227.957031 230.355469 227.644531 C 229.601562 227.332031 228.886719 226.949219 228.207031 226.496094 C 227.53125 226.042969 226.902344 225.527344 226.324219 224.949219 C 225.75 224.375 225.234375 223.746094 224.78125 223.066406 C 224.328125 222.390625 223.945312 221.671875 223.632812 220.917969 C 223.320312 220.167969 223.085938 219.390625 222.925781 218.589844 C 222.765625 217.789062 222.6875 216.980469 222.6875 216.164062 C 222.6875 215.351562 222.765625 214.542969 222.925781 213.742188 C 223.085938 212.941406 223.320312 212.164062 223.632812 211.410156 C 223.945312 210.65625 224.328125 209.941406 224.78125 209.261719 C 225.234375 208.585938 225.75 207.957031 226.324219 207.382812 C 226.902344 206.804688 227.53125 206.289062 228.207031 205.835938 C 228.886719 205.382812 229.601562 205 230.355469 204.6875 C 231.109375 204.375 231.886719 204.140625 232.6875 203.980469 C 233.488281 203.820312 234.292969 203.742188 235.109375 203.742188 C 235.925781 203.742188 236.734375 203.820312 237.535156 203.980469 C 238.332031 204.140625 239.109375 204.375 239.863281 204.6875 C 240.617188 205 241.332031 205.382812 242.011719 205.835938 C 242.691406 206.289062 243.316406 206.804688 243.894531 207.382812 C 244.472656 207.957031 244.988281 208.585938 245.441406 209.261719 C 245.894531 209.941406 246.277344 210.65625 246.585938 211.410156 C 246.898438 212.164062 247.136719 212.941406 247.292969 213.742188 C 247.453125 214.542969 247.535156 215.351562 247.535156 216.164062 Z M 247.535156 216.164062 " fill-opacity="1" fill-rule="nonzero"/><path fill="#ffffff" d="M 275.484375 175.789062 C 275.484375 176.605469 275.40625 177.414062 275.246094 178.214844 C 275.089844 179.011719 274.851562 179.789062 274.539062 180.542969 C 274.226562 181.296875 273.84375 182.011719 273.390625 182.691406 C 272.9375 183.371094 272.425781 183.996094 271.847656 184.574219 C 271.269531 185.152344 270.644531 185.667969 269.964844 186.121094 C 269.285156 186.574219 268.570312 186.957031 267.816406 187.265625 C 267.0625 187.578125 266.285156 187.816406 265.484375 187.972656 C 264.6875 188.132812 263.878906 188.214844 263.0625 188.214844 C 262.246094 188.214844 261.4375 188.132812 260.640625 187.972656 C 259.839844 187.816406 259.0625 187.578125 258.308594 187.265625 C 257.554688 186.957031 256.839844 186.574219 256.160156 186.121094 C 255.480469 185.667969 254.855469 185.152344 254.277344 184.574219 C 253.699219 183.996094 253.1875 183.371094 252.734375 182.691406 C 252.28125 182.011719 251.898438 181.296875 251.585938 180.542969 C 251.273438 179.789062 251.035156 179.011719 250.878906 178.214844 C 250.71875 177.414062 250.640625 176.605469 250.640625 175.789062 C 250.640625 174.972656 250.71875 174.167969 250.878906 173.367188 C 251.035156 172.566406 251.273438 171.789062 251.585938 171.035156 C 251.898438 170.28125 252.28125 169.566406 252.734375 168.886719 C 253.1875 168.210938 253.699219 167.582031 254.277344 167.003906 C 254.855469 166.429688 255.480469 165.914062 256.160156 165.460938 C 256.839844 165.007812 257.554688 164.625 258.308594 164.3125 C 259.0625 164 259.839844 163.765625 260.640625 163.605469 C 261.4375 163.445312 262.246094 163.367188 263.0625 163.367188 C 263.878906 163.367188 264.6875 163.445312 265.484375 163.605469 C 266.285156 163.765625 267.0625 164 267.816406 164.3125 C 268.570312 164.625 269.285156 165.007812 269.964844 165.460938 C 270.644531 165.914062 271.269531 166.429688 271.847656 167.003906 C 272.425781 167.582031 272.9375 168.210938 273.390625 168.886719 C 273.84375 169.566406 274.226562 170.28125 274.539062 171.035156 C 274.851562 171.789062 275.089844 172.566406 275.246094 173.367188 C 275.40625 174.167969 275.484375 174.972656 275.484375 175.789062 Z M 275.484375 175.789062 " fill-opacity="1" fill-rule="nonzero"/><path fill="#ffffff" d="M 312.132812 142.867188 C 312.132812 143.683594 312.054688 144.492188 311.894531 145.292969 C 311.738281 146.09375 311.5 146.867188 311.1875 147.621094 C 310.875 148.375 310.492188 149.09375 310.039062 149.769531 C 309.585938 150.449219 309.074219 151.074219 308.496094 151.652344 C 307.917969 152.230469 307.292969 152.746094 306.613281 153.199219 C 305.933594 153.652344 305.21875 154.035156 304.464844 154.347656 C 303.710938 154.65625 302.933594 154.894531 302.136719 155.050781 C 301.335938 155.210938 300.527344 155.292969 299.710938 155.292969 C 298.894531 155.292969 298.085938 155.210938 297.289062 155.050781 C 296.488281 154.894531 295.710938 154.65625 294.957031 154.347656 C 294.203125 154.035156 293.488281 153.652344 292.808594 153.199219 C 292.132812 152.746094 291.503906 152.230469 290.925781 151.652344 C 290.351562 151.074219 289.835938 150.449219 289.382812 149.769531 C 288.929688 149.09375 288.546875 148.375 288.234375 147.621094 C 287.921875 146.867188 287.6875 146.09375 287.527344 145.292969 C 287.367188 144.492188 287.289062 143.683594 287.289062 142.867188 C 287.289062 142.050781 287.367188 141.246094 287.527344 140.445312 C 287.6875 139.644531 287.921875 138.867188 288.234375 138.113281 C 288.546875 137.359375 288.929688 136.644531 289.382812 135.964844 C 289.835938 135.289062 290.351562 134.660156 290.925781 134.082031 C 291.503906 133.507812 292.132812 132.992188 292.808594 132.539062 C 293.488281 132.085938 294.203125 131.703125 294.957031 131.390625 C 295.710938 131.078125 296.488281 130.84375 297.289062 130.683594 C 298.085938 130.523438 298.894531 130.445312 299.710938 130.445312 C 300.527344 130.445312 301.335938 130.523438 302.136719 130.683594 C 302.933594 130.84375 303.710938 131.078125 304.464844 131.390625 C 305.21875 131.703125 305.933594 132.085938 306.613281 132.539062 C 307.292969 132.992188 307.917969 133.507812 308.496094 134.082031 C 309.074219 134.660156 309.585938 135.289062 310.039062 135.964844 C 310.492188 136.644531 310.875 137.359375 311.1875 138.113281 C 311.5 138.867188 311.738281 139.644531 311.894531 140.445312 C 312.054688 141.246094 312.132812 142.050781 312.132812 142.867188 Z M 312.132812 142.867188 " fill-opacity="1" fill-rule="nonzero"/><path fill="#ffffff" d="M 355.617188 119.886719 C 355.617188 120.699219 355.535156 121.507812 355.378906 122.308594 C 355.21875 123.109375 354.984375 123.886719 354.671875 124.640625 C 354.359375 125.394531 353.976562 126.109375 353.523438 126.785156 C 353.070312 127.464844 352.554688 128.09375 351.976562 128.667969 C 351.402344 129.246094 350.773438 129.761719 350.09375 130.214844 C 349.417969 130.667969 348.699219 131.050781 347.945312 131.363281 C 347.195312 131.675781 346.417969 131.910156 345.617188 132.070312 C 344.816406 132.230469 344.007812 132.308594 343.191406 132.308594 C 342.378906 132.308594 341.570312 132.230469 340.769531 132.070312 C 339.96875 131.910156 339.191406 131.675781 338.4375 131.363281 C 337.683594 131.050781 336.96875 130.667969 336.289062 130.214844 C 335.613281 129.761719 334.984375 129.246094 334.410156 128.667969 C 333.832031 128.09375 333.316406 127.464844 332.863281 126.785156 C 332.410156 126.109375 332.027344 125.394531 331.714844 124.640625 C 331.402344 123.886719 331.167969 123.109375 331.007812 122.308594 C 330.847656 121.507812 330.769531 120.699219 330.769531 119.886719 C 330.769531 119.070312 330.847656 118.261719 331.007812 117.460938 C 331.167969 116.660156 331.402344 115.882812 331.714844 115.128906 C 332.027344 114.378906 332.410156 113.660156 332.863281 112.984375 C 333.316406 112.304688 333.832031 111.675781 334.410156 111.101562 C 334.984375 110.523438 335.613281 110.007812 336.289062 109.554688 C 336.96875 109.101562 337.683594 108.71875 338.4375 108.40625 C 339.191406 108.09375 339.96875 107.859375 340.769531 107.699219 C 341.570312 107.542969 342.378906 107.460938 343.191406 107.460938 C 344.007812 107.460938 344.816406 107.542969 345.617188 107.699219 C 346.417969 107.859375 347.195312 108.09375 347.945312 108.40625 C 348.699219 108.71875 349.417969 109.101562 350.09375 109.554688 C 350.773438 110.007812 351.402344 110.523438 351.976562 111.101562 C 352.554688 111.675781 353.070312 112.304688 353.523438 112.984375 C 353.976562 113.660156 354.359375 114.378906 354.671875 115.128906 C 354.984375 115.882812 355.21875 116.660156 355.378906 117.460938 C 355.535156 118.261719 355.617188 119.070312 355.617188 119.886719 Z M 355.617188 119.886719 " fill-opacity="1" fill-rule="nonzero"/><path fill="#ffffff" d="M 403.445312 107.460938 C 403.445312 108.277344 403.367188 109.085938 403.207031 109.886719 C 403.046875 110.683594 402.8125 111.460938 402.5 112.214844 C 402.1875 112.96875 401.804688 113.683594 401.351562 114.363281 C 400.898438 115.042969 400.382812 115.667969 399.808594 116.246094 C 399.230469 116.824219 398.601562 117.339844 397.925781 117.792969 C 397.246094 118.246094 396.53125 118.628906 395.777344 118.9375 C 395.023438 119.25 394.246094 119.488281 393.445312 119.644531 C 392.644531 119.804688 391.839844 119.886719 391.023438 119.886719 C 390.207031 119.886719 389.398438 119.804688 388.597656 119.644531 C 387.800781 119.488281 387.023438 119.25 386.269531 118.9375 C 385.515625 118.628906 384.796875 118.246094 384.121094 117.792969 C 383.441406 117.339844 382.816406 116.824219 382.238281 116.246094 C 381.660156 115.667969 381.144531 115.042969 380.691406 114.363281 C 380.238281 113.683594 379.855469 112.96875 379.546875 112.214844 C 379.234375 111.460938 378.996094 110.683594 378.839844 109.886719 C 378.679688 109.085938 378.597656 108.277344 378.597656 107.460938 C 378.597656 106.644531 378.679688 105.839844 378.839844 105.039062 C 378.996094 104.238281 379.234375 103.460938 379.546875 102.707031 C 379.855469 101.953125 380.238281 101.238281 380.691406 100.558594 C 381.144531 99.882812 381.660156 99.253906 382.238281 98.675781 C 382.816406 98.101562 383.441406 97.585938 384.121094 97.132812 C 384.796875 96.679688 385.515625 96.296875 386.269531 95.984375 C 387.023438 95.671875 387.800781 95.4375 388.597656 95.277344 C 389.398438 95.117188 390.207031 95.039062 391.023438 95.039062 C 391.839844 95.039062 392.644531 95.117188 393.445312 95.277344 C 394.246094 95.4375 395.023438 95.671875 395.777344 95.984375 C 396.53125 96.296875 397.246094 96.679688 397.925781 97.132812 C 398.601562 97.585938 399.230469 98.101562 399.808594 98.675781 C 400.382812 99.253906 400.898438 99.882812 401.351562 100.558594 C 401.804688 101.238281 402.1875 101.953125 402.5 102.707031 C 402.8125 103.460938 403.046875 104.238281 403.207031 105.039062 C 403.367188 105.839844 403.445312 106.644531 403.445312 107.460938 Z M 403.445312 107.460938 " fill-opacity="1" fill-rule="nonzero"/></svg>