<?xml version="1.0" encoding="UTF-8" standalone="no"?><svg xmlns="http://www.w3.org/2000/svg" xmlns:xlink="http://www.w3.org/1999/xlink" width="1080" zoomAndPan="magnify" viewBox="0 0 810 809.999993" height="1080" preserveAspectRatio="xMidYMid meet" version="1.0"><path fill="#ffffff" d="M 775.222656 673.128906 L 34.777344 673.128906 L 34.777344 134.625 L 466.617188 134.625 C 475.90625 134.625 483.445312 127.089844 483.445312 117.796875 C 483.445312 108.507812 475.90625 100.96875 466.617188 100.96875 L 17.949219 100.96875 C 8.660156 100.96875 1.121094 108.507812 1.121094 117.796875 L 1.121094 689.957031 C 1.121094 699.25 8.660156 706.785156 17.949219 706.785156 L 792.050781 706.785156 C 801.339844 706.785156 808.878906 699.25 808.878906 689.957031 L 808.878906 117.796875 C 808.878906 108.507812 801.339844 100.96875 792.050781 100.96875 C 782.757812 100.96875 775.222656 108.507812 775.222656 117.796875 Z M 775.222656 673.128906 " fill-opacity="1" fill-rule="nonzero"/><path fill="#ffffff" d="M 17.949219 639.472656 L 792.050781 639.472656 C 801.339844 639.472656 808.878906 631.9375 808.878906 622.644531 C 808.878906 613.355469 801.339844 605.816406 792.050781 605.816406 L 17.949219 605.816406 C 8.660156 605.816406 1.121094 613.355469 1.121094 622.644531 C 1.121094 631.9375 8.660156 639.472656 17.949219 639.472656 Z M 17.949219 639.472656 " fill-opacity="1" fill-rule="nonzero"/><path fill="#ffffff" d="M 253.546875 807.757812 L 556.453125 807.757812 C 565.746094 807.757812 573.28125 800.21875 573.28125 790.929688 C 573.28125 781.636719 565.746094 774.101562 556.453125 774.101562 L 253.546875 774.101562 C 244.253906 774.101562 236.71875 781.636719 236.71875 790.929688 C 236.71875 800.21875 244.253906 807.757812 253.546875 807.757812 Z M 253.546875 807.757812 " fill-opacity="1" fill-rule="nonzero"/><path fill="#ffffff" d="M 303.152344 796.273438 L 336.808594 695.304688 C 339.789062 686.453125 334.96875 676.898438 326.207031 674.007812 C 317.351562 671.027344 307.800781 675.847656 304.90625 684.613281 L 271.25 785.582031 C 268.269531 794.433594 273.089844 803.988281 281.855469 806.878906 C 290.707031 809.859375 300.261719 805.039062 303.152344 796.273438 Z M 303.152344 796.273438 " fill-opacity="1" fill-rule="nonzero"/><path fill="#ffffff" d="M 506.847656 796.273438 L 473.191406 695.304688 C 470.210938 686.453125 475.03125 676.898438 483.792969 674.007812 C 492.648438 671.027344 502.199219 675.847656 505.09375 684.613281 L 538.75 785.582031 C 541.730469 794.433594 536.910156 803.988281 528.144531 806.878906 C 519.292969 809.859375 509.738281 805.039062 506.847656 796.273438 Z M 506.847656 796.273438 " fill-opacity="1" fill-rule="nonzero"/><path fill="#ffffff" d="M 720.707031 151.015625 L 376.339844 453.398438 C 373.097656 456.203125 357.757812 434.554688 340.667969 417.726562 C 322.085938 399.40625 301.925781 385.558594 304.996094 382.054688 L 607.378906 37.6875 C 638.578125 2.542969 691.082031 0.964844 724.210938 34.183594 C 757.515625 67.402344 755.851562 119.8125 720.707031 151.015625 Z M 700.457031 57.933594 C 680.914062 38.476562 650.9375 39.355469 632.621094 59.949219 L 340.667969 392.394531 L 365.996094 417.726562 L 698.355469 125.863281 C 719.039062 107.457031 720.003906 77.480469 700.457031 57.933594 Z M 700.457031 57.933594 " fill-opacity="1" fill-rule="nonzero"/><path fill="#ffffff" d="M 160.550781 535.261719 C 150.472656 527.109375 153.015625 511.070312 165.109375 506.425781 C 186.757812 498.1875 198.066406 482.847656 213.316406 447.613281 C 226.988281 416.0625 230.757812 408.699219 241.449219 397.917969 C 274.316406 365.050781 327.609375 365.050781 360.476562 397.917969 C 393.34375 430.785156 393.34375 484.074219 360.476562 516.941406 C 316.214844 561.117188 218.222656 581.539062 160.550781 535.261719 Z M 336.636719 493.101562 C 356.355469 473.382812 356.355469 441.480469 336.636719 421.757812 C 316.914062 402.039062 285.011719 402.039062 265.289062 421.757812 C 258.980469 428.070312 255.648438 434.46875 244.253906 460.9375 C 231.898438 489.507812 220.765625 508.527344 205.078125 521.761719 C 248.726562 537.101562 308.851562 520.976562 336.636719 493.101562 Z M 336.636719 493.101562 " fill-opacity="1" fill-rule="nonzero"/><path fill="#ffffff" d="M 375.023438 334.722656 L 423.582031 383.019531 C 430.15625 389.589844 440.761719 389.589844 447.332031 383.019531 C 453.90625 376.445312 453.90625 365.75 447.332031 359.179688 L 398.777344 310.882812 C 392.203125 304.3125 381.511719 304.398438 374.9375 310.972656 C 368.363281 317.546875 368.449219 328.152344 375.023438 334.722656 Z M 375.023438 334.722656 " fill-opacity="1" fill-rule="nonzero"/></svg>