<?xml version="1.0" encoding="UTF-8" standalone="no"?><svg xmlns="http://www.w3.org/2000/svg" xmlns:xlink="http://www.w3.org/1999/xlink" width="1080" zoomAndPan="magnify" viewBox="0 0 810 809.999993" height="1080" preserveAspectRatio="xMidYMid meet" version="1.0"><path fill="#ffffff" d="M 635.449219 463.617188 L 173.792969 463.617188 C 173.269531 463.617188 172.746094 463.589844 172.226562 463.539062 C 171.707031 463.488281 171.191406 463.410156 170.675781 463.308594 C 170.164062 463.207031 169.65625 463.082031 169.15625 462.929688 C 168.65625 462.777344 168.164062 462.601562 167.683594 462.402344 C 167.199219 462.199219 166.726562 461.976562 166.265625 461.730469 C 165.804688 461.484375 165.355469 461.214844 164.921875 460.925781 C 164.488281 460.632812 164.066406 460.324219 163.664062 459.992188 C 163.257812 459.660156 162.871094 459.308594 162.503906 458.941406 C 162.132812 458.570312 161.78125 458.183594 161.449219 457.777344 C 161.117188 457.375 160.808594 456.953125 160.515625 456.519531 C 160.226562 456.085938 159.957031 455.636719 159.710938 455.175781 C 159.464844 454.714844 159.242188 454.242188 159.042969 453.761719 C 158.839844 453.277344 158.664062 452.785156 158.511719 452.285156 C 158.363281 451.785156 158.234375 451.277344 158.132812 450.765625 C 158.03125 450.253906 157.953125 449.734375 157.902344 449.214844 C 157.851562 448.695312 157.824219 448.171875 157.824219 447.648438 C 157.824219 447.128906 157.851562 446.605469 157.902344 446.085938 C 157.953125 445.566406 158.03125 445.046875 158.132812 444.535156 C 158.234375 444.023438 158.363281 443.515625 158.511719 443.015625 C 158.664062 442.515625 158.839844 442.023438 159.042969 441.539062 C 159.242188 441.058594 159.464844 440.585938 159.710938 440.125 C 159.957031 439.664062 160.226562 439.214844 160.515625 438.78125 C 160.808594 438.34375 161.117188 437.925781 161.449219 437.519531 C 161.78125 437.117188 162.132812 436.730469 162.503906 436.359375 C 162.871094 435.992188 163.257812 435.640625 163.664062 435.308594 C 164.066406 434.976562 164.488281 434.664062 164.921875 434.375 C 165.355469 434.085938 165.804688 433.816406 166.265625 433.570312 C 166.726562 433.324219 167.199219 433.101562 167.683594 432.898438 C 168.164062 432.699219 168.65625 432.523438 169.15625 432.371094 C 169.65625 432.21875 170.164062 432.09375 170.675781 431.992188 C 171.191406 431.890625 171.707031 431.8125 172.226562 431.761719 C 172.746094 431.710938 173.269531 431.683594 173.792969 431.683594 L 635.449219 431.683594 C 635.972656 431.683594 636.492188 431.710938 637.015625 431.761719 C 637.535156 431.8125 638.050781 431.890625 638.5625 431.992188 C 639.078125 432.09375 639.582031 432.21875 640.082031 432.371094 C 640.585938 432.523438 641.074219 432.699219 641.558594 432.898438 C 642.042969 433.101562 642.515625 433.324219 642.976562 433.570312 C 643.4375 433.816406 643.882812 434.085938 644.320312 434.375 C 644.753906 434.664062 645.171875 434.976562 645.578125 435.308594 C 645.980469 435.640625 646.367188 435.992188 646.738281 436.359375 C 647.109375 436.730469 647.460938 437.117188 647.789062 437.519531 C 648.121094 437.925781 648.433594 438.34375 648.722656 438.78125 C 649.015625 439.214844 649.28125 439.664062 649.53125 440.125 C 649.777344 440.585938 650 441.058594 650.199219 441.539062 C 650.398438 442.023438 650.574219 442.515625 650.726562 443.015625 C 650.878906 443.515625 651.007812 444.023438 651.109375 444.535156 C 651.210938 445.046875 651.285156 445.566406 651.339844 446.085938 C 651.390625 446.605469 651.414062 447.128906 651.414062 447.648438 C 651.414062 448.171875 651.390625 448.695312 651.339844 449.214844 C 651.285156 449.734375 651.210938 450.253906 651.109375 450.765625 C 651.007812 451.277344 650.878906 451.785156 650.726562 452.285156 C 650.574219 452.785156 650.398438 453.277344 650.199219 453.761719 C 650 454.242188 649.777344 454.714844 649.53125 455.175781 C 649.28125 455.636719 649.015625 456.085938 648.722656 456.519531 C 648.433594 456.953125 648.121094 457.375 647.789062 457.777344 C 647.460938 458.183594 647.109375 458.570312 646.738281 458.941406 C 646.367188 459.308594 645.980469 459.660156 645.578125 459.992188 C 645.171875 460.324219 644.753906 460.632812 644.320312 460.925781 C 643.882812 461.214844 643.4375 461.484375 642.976562 461.730469 C 642.515625 461.976562 642.042969 462.199219 641.558594 462.402344 C 641.074219 462.601562 640.585938 462.777344 640.082031 462.929688 C 639.582031 463.082031 639.078125 463.207031 638.5625 463.308594 C 638.050781 463.410156 637.535156 463.488281 637.015625 463.539062 C 636.492188 463.589844 635.972656 463.617188 635.449219 463.617188 Z M 803.292969 173.816406 L 803.292969 620.113281 C 802.234375 621.550781 801.007812 622.824219 799.613281 623.941406 C 798.21875 625.054688 796.707031 625.972656 795.070312 626.691406 C 793.4375 627.410156 791.738281 627.90625 789.972656 628.183594 C 788.210938 628.457031 786.441406 628.5 784.664062 628.308594 C 733.789062 627.988281 683.015625 628.097656 632.140625 628.097656 L 623.835938 628.097656 L 623.835938 778.441406 L 705.582031 778.441406 C 706.105469 778.441406 706.625 778.464844 707.148438 778.519531 C 707.667969 778.570312 708.183594 778.644531 708.695312 778.746094 C 709.210938 778.851562 709.714844 778.976562 710.214844 779.128906 C 710.714844 779.28125 711.207031 779.457031 711.691406 779.65625 C 712.175781 779.855469 712.648438 780.078125 713.109375 780.324219 C 713.570312 780.574219 714.015625 780.839844 714.453125 781.132812 C 714.886719 781.421875 715.304688 781.734375 715.710938 782.066406 C 716.113281 782.398438 716.5 782.746094 716.871094 783.117188 C 717.242188 783.488281 717.589844 783.875 717.921875 784.277344 C 718.253906 784.683594 718.566406 785.101562 718.855469 785.535156 C 719.148438 785.972656 719.414062 786.417969 719.664062 786.878906 C 719.910156 787.339844 720.132812 787.8125 720.332031 788.296875 C 720.53125 788.78125 720.707031 789.273438 720.859375 789.773438 C 721.011719 790.273438 721.136719 790.777344 721.242188 791.292969 C 721.34375 791.804688 721.417969 792.320312 721.472656 792.839844 C 721.523438 793.363281 721.546875 793.882812 721.546875 794.40625 C 721.546875 794.929688 721.523438 795.453125 721.46875 795.972656 C 721.417969 796.492188 721.34375 797.007812 721.242188 797.519531 C 721.136719 798.035156 721.011719 798.542969 720.859375 799.042969 C 720.707031 799.542969 720.53125 800.035156 720.332031 800.515625 C 720.132812 801 719.910156 801.472656 719.664062 801.933594 C 719.414062 802.394531 719.148438 802.84375 718.855469 803.277344 C 718.566406 803.710938 718.253906 804.132812 717.921875 804.535156 C 717.589844 804.941406 717.242188 805.328125 716.871094 805.695312 C 716.5 806.066406 716.113281 806.417969 715.710938 806.75 C 715.304688 807.082031 714.886719 807.390625 714.453125 807.683594 C 714.015625 807.972656 713.570312 808.242188 713.109375 808.488281 C 712.648438 808.734375 712.175781 808.957031 711.691406 809.15625 C 711.207031 809.355469 710.714844 809.535156 710.214844 809.683594 C 709.714844 809.835938 709.210938 809.964844 708.695312 810.066406 C 708.183594 810.167969 707.667969 810.246094 707.148438 810.296875 C 706.625 810.347656 706.105469 810.371094 705.582031 810.371094 L 105 810.371094 C 104.476562 810.371094 103.957031 810.347656 103.433594 810.296875 C 102.914062 810.246094 102.398438 810.167969 101.886719 810.066406 C 101.371094 809.964844 100.867188 809.835938 100.367188 809.683594 C 99.863281 809.535156 99.375 809.355469 98.890625 809.15625 C 98.40625 808.957031 97.933594 808.734375 97.472656 808.488281 C 97.011719 808.242188 96.566406 807.972656 96.128906 807.683594 C 95.695312 807.390625 95.277344 807.082031 94.871094 806.75 C 94.46875 806.417969 94.082031 806.066406 93.710938 805.695312 C 93.339844 805.328125 92.988281 804.941406 92.660156 804.535156 C 92.328125 804.132812 92.015625 803.710938 91.726562 803.277344 C 91.433594 802.84375 91.167969 802.394531 90.917969 801.933594 C 90.671875 801.472656 90.449219 801 90.25 800.515625 C 90.050781 800.035156 89.875 799.542969 89.722656 799.042969 C 89.570312 798.542969 89.441406 798.035156 89.339844 797.519531 C 89.238281 797.007812 89.164062 796.492188 89.109375 795.972656 C 89.058594 795.453125 89.035156 794.929688 89.035156 794.40625 C 89.035156 793.882812 89.058594 793.363281 89.109375 792.839844 C 89.164062 792.320312 89.238281 791.804688 89.339844 791.292969 C 89.441406 790.777344 89.570312 790.273438 89.722656 789.773438 C 89.875 789.273438 90.050781 788.78125 90.25 788.296875 C 90.449219 787.8125 90.671875 787.339844 90.917969 786.878906 C 91.167969 786.417969 91.433594 785.972656 91.726562 785.535156 C 92.015625 785.101562 92.328125 784.683594 92.660156 784.277344 C 92.988281 783.875 93.339844 783.488281 93.710938 783.117188 C 94.082031 782.746094 94.46875 782.398438 94.871094 782.066406 C 95.277344 781.734375 95.695312 781.421875 96.128906 781.132812 C 96.566406 780.839844 97.011719 780.574219 97.472656 780.324219 C 97.933594 780.078125 98.40625 779.855469 98.890625 779.65625 C 99.375 779.457031 99.863281 779.28125 100.367188 779.128906 C 100.867188 778.976562 101.371094 778.851562 101.886719 778.746094 C 102.398438 778.644531 102.914062 778.570312 103.433594 778.519531 C 103.957031 778.464844 104.476562 778.441406 105 778.441406 L 186.265625 778.441406 L 186.265625 628.097656 L 20.433594 630.011719 C 19.550781 630.019531 18.671875 629.941406 17.800781 629.777344 C 16.929688 629.613281 16.085938 629.363281 15.265625 629.03125 C 14.445312 628.699219 13.664062 628.285156 12.925781 627.796875 C 12.1875 627.3125 11.5 626.753906 10.871094 626.132812 C 10.246094 625.507812 9.683594 624.828125 9.1875 624.09375 C 8.695312 623.355469 8.277344 622.582031 7.9375 621.761719 C 7.597656 620.945312 7.34375 620.101562 7.171875 619.230469 C 7 618.363281 6.914062 617.484375 6.917969 616.601562 L 6.917969 173.816406 C 7.953125 172.351562 9.164062 171.054688 10.554688 169.921875 C 11.941406 168.789062 13.457031 167.859375 15.097656 167.140625 C 16.734375 166.417969 18.441406 165.925781 20.214844 165.667969 C 21.988281 165.410156 23.765625 165.394531 25.542969 165.617188 C 59.179688 165.9375 92.917969 165.726562 126.660156 165.726562 L 134.855469 165.726562 C 134.855469 156.570312 135.070312 136.136719 135.070312 127.621094 C 118.890625 127.621094 103.136719 127.621094 87.382812 127.515625 C 75.78125 127.515625 71.3125 123.148438 71.207031 111.65625 C 71.207031 97.496094 72.058594 32.78125 71.523438 18.625 C 71.402344 17.742188 71.34375 16.851562 71.347656 15.957031 C 71.347656 15.0625 71.410156 14.175781 71.535156 13.289062 C 71.660156 12.40625 71.84375 11.53125 72.085938 10.671875 C 72.332031 9.8125 72.632812 8.972656 72.992188 8.15625 C 73.355469 7.339844 73.769531 6.550781 74.238281 5.789062 C 74.707031 5.027344 75.222656 4.300781 75.792969 3.613281 C 76.363281 2.921875 76.976562 2.277344 77.632812 1.671875 C 78.289062 1.066406 78.988281 0.507812 79.722656 0 L 217.773438 0 C 218.503906 0.511719 219.195312 1.070312 219.851562 1.675781 C 220.503906 2.28125 221.113281 2.929688 221.679688 3.621094 C 222.242188 4.3125 222.757812 5.039062 223.222656 5.800781 C 223.6875 6.5625 224.097656 7.351562 224.453125 8.167969 C 224.808594 8.988281 225.105469 9.824219 225.34375 10.683594 C 225.582031 11.542969 225.761719 12.417969 225.882812 13.300781 C 226 14.183594 226.058594 15.070312 226.054688 15.964844 C 226.050781 16.855469 225.988281 17.742188 225.863281 18.625 C 225.328125 30.121094 225.328125 92.070312 225.328125 103.566406 C 225.328125 125.917969 223.734375 127.621094 201.167969 127.621094 L 161.574219 127.621094 C 161.574219 136.667969 161.464844 157.105469 161.464844 165.40625 L 391.695312 165.40625 C 391.695312 156.890625 391.90625 136.242188 391.90625 127.621094 C 375.410156 127.621094 359.441406 127.621094 343.371094 127.515625 C 332.9375 127.515625 328.253906 122.832031 328.148438 112.398438 C 328.042969 97.921875 328.894531 32.996094 328.363281 18.625 C 328.132812 16.847656 328.144531 15.070312 328.398438 13.296875 C 328.652344 11.519531 329.140625 9.8125 329.863281 8.171875 C 330.585938 6.53125 331.515625 5.015625 332.652344 3.628906 C 333.789062 2.242188 335.089844 1.03125 336.558594 0 L 474.609375 0 C 475.34375 0.507812 476.039062 1.066406 476.699219 1.671875 C 477.355469 2.277344 477.96875 2.921875 478.539062 3.613281 C 479.105469 4.300781 479.625 5.027344 480.09375 5.789062 C 480.5625 6.550781 480.976562 7.339844 481.335938 8.15625 C 481.695312 8.972656 482 9.8125 482.242188 10.671875 C 482.488281 11.53125 482.671875 12.40625 482.796875 13.289062 C 482.917969 14.175781 482.984375 15.0625 482.984375 15.957031 C 482.984375 16.851562 482.925781 17.742188 482.804688 18.625 C 482.273438 30.121094 482.273438 92.070312 482.273438 103.566406 C 482.273438 125.917969 480.570312 127.621094 458.109375 127.621094 L 418.410156 127.621094 C 418.410156 136.667969 418.304688 157.105469 418.304688 165.40625 L 648.636719 165.40625 C 648.636719 156.890625 648.742188 136.242188 648.742188 127.621094 C 632.246094 127.621094 616.28125 127.621094 600.3125 127.515625 C 589.777344 127.515625 585.09375 122.832031 584.988281 112.398438 C 584.878906 97.921875 585.730469 32.996094 585.304688 18.625 C 585.066406 16.851562 585.066406 15.078125 585.3125 13.304688 C 585.558594 11.53125 586.035156 9.824219 586.75 8.183594 C 587.460938 6.542969 588.382812 5.027344 589.511719 3.636719 C 590.640625 2.246094 591.933594 1.035156 593.394531 0 L 719.738281 0 C 721.9375 -0.0703125 724.082031 0.226562 726.183594 0.882812 C 728.28125 1.539062 730.210938 2.523438 731.980469 3.832031 C 732.746094 4.464844 733.46875 5.152344 734.136719 5.886719 C 734.808594 6.621094 735.425781 7.402344 735.988281 8.226562 C 736.546875 9.046875 737.050781 9.90625 737.488281 10.800781 C 737.929688 11.695312 738.304688 12.617188 738.613281 13.5625 C 738.921875 14.507812 739.164062 15.472656 739.335938 16.453125 C 739.507812 17.433594 739.613281 18.425781 739.644531 19.417969 C 739.679688 20.414062 739.640625 21.410156 739.535156 22.398438 C 739.425781 23.390625 739.25 24.367188 739.003906 25.332031 C 739.535156 71.101562 739.429688 104.734375 739.003906 114.101562 C 739.050781 115.832031 738.792969 117.511719 738.222656 119.140625 C 737.65625 120.773438 736.816406 122.253906 735.703125 123.574219 C 734.316406 124.898438 732.726562 125.902344 730.9375 126.582031 C 729.148438 127.265625 727.292969 127.578125 725.378906 127.515625 C 715.160156 127.726562 705.050781 127.621094 694.832031 127.621094 L 675.351562 127.621094 C 675.351562 136.773438 675.246094 157.210938 675.246094 165.726562 L 684.292969 165.726562 C 717.820312 165.726562 751.242188 165.9375 784.664062 165.617188 C 786.441406 165.40625 788.214844 165.429688 789.988281 165.691406 C 791.757812 165.957031 793.460938 166.449219 795.101562 167.167969 C 796.738281 167.890625 798.253906 168.8125 799.644531 169.941406 C 801.03125 171.070312 802.25 172.359375 803.292969 173.816406 Z M 713.140625 101.328125 C 713.140625 92.921875 713.566406 34.484375 713.566406 26.078125 L 611.597656 26.078125 C 611.597656 34.59375 611.171875 93.242188 611.171875 101.328125 Z M 456.195312 101.4375 C 456.195312 93.132812 456.621094 34.699219 456.621094 26.289062 L 354.867188 26.289062 C 354.867188 34.910156 354.441406 93.558594 354.441406 101.4375 Z M 199.039062 101.328125 C 199.039062 92.601562 199.464844 34.058594 199.464844 26.078125 L 97.710938 26.078125 C 97.710938 34.484375 97.285156 92.921875 97.285156 101.328125 Z M 263.648438 628.308594 L 212.875 628.308594 L 212.875 778.441406 L 263.648438 778.441406 Z M 518.996094 628.523438 C 424.796875 628.523438 384.136719 628.628906 290.257812 628.628906 L 290.257812 778.441406 L 518.996094 778.441406 Z M 597.121094 628.523438 L 545.710938 628.523438 L 545.710938 778.441406 L 597.121094 778.441406 Z M 774.449219 198.402344 C 774.441406 197.882812 774.335938 197.382812 774.132812 196.90625 C 773.929688 196.425781 773.644531 196.003906 773.277344 195.636719 C 772.910156 195.269531 772.484375 194.984375 772.007812 194.78125 C 771.527344 194.578125 771.027344 194.472656 770.507812 194.464844 L 39.804688 194.464844 C 39.277344 194.460938 38.769531 194.558594 38.28125 194.753906 C 37.789062 194.953125 37.355469 195.234375 36.976562 195.605469 C 36.597656 195.972656 36.304688 196.398438 36.09375 196.882812 C 35.882812 197.367188 35.773438 197.875 35.761719 198.402344 L 35.761719 595.207031 C 35.773438 595.734375 35.882812 596.242188 36.09375 596.726562 C 36.304688 597.210938 36.597656 597.636719 36.976562 598.003906 C 37.355469 598.371094 37.789062 598.65625 38.28125 598.851562 C 38.769531 599.050781 39.277344 599.148438 39.804688 599.144531 L 770.507812 599.144531 C 771.027344 599.136719 771.527344 599.03125 772.007812 598.828125 C 772.484375 598.625 772.910156 598.339844 773.277344 597.972656 C 773.644531 597.605469 773.929688 597.183594 774.132812 596.703125 C 774.332031 596.226562 774.4375 595.726562 774.449219 595.207031 Z M 635.449219 334.738281 L 173.792969 334.738281 C 173.269531 334.738281 172.746094 334.765625 172.226562 334.816406 C 171.707031 334.867188 171.191406 334.945312 170.675781 335.046875 C 170.164062 335.148438 169.65625 335.277344 169.15625 335.425781 C 168.65625 335.578125 168.164062 335.753906 167.683594 335.953125 C 167.199219 336.15625 166.726562 336.378906 166.265625 336.625 C 165.804688 336.871094 165.355469 337.140625 164.921875 337.429688 C 164.488281 337.722656 164.066406 338.03125 163.664062 338.363281 C 163.257812 338.695312 162.871094 339.046875 162.503906 339.414062 C 162.132812 339.785156 161.78125 340.171875 161.449219 340.578125 C 161.117188 340.980469 160.808594 341.402344 160.515625 341.835938 C 160.226562 342.269531 159.957031 342.71875 159.710938 343.179688 C 159.464844 343.640625 159.242188 344.113281 159.042969 344.59375 C 158.839844 345.078125 158.664062 345.570312 158.511719 346.070312 C 158.363281 346.570312 158.234375 347.078125 158.132812 347.589844 C 158.03125 348.105469 157.953125 348.621094 157.902344 349.140625 C 157.851562 349.660156 157.824219 350.183594 157.824219 350.707031 C 157.824219 351.226562 157.851562 351.75 157.902344 352.269531 C 157.953125 352.789062 158.03125 353.308594 158.132812 353.820312 C 158.234375 354.332031 158.363281 354.839844 158.511719 355.339844 C 158.664062 355.839844 158.839844 356.332031 159.042969 356.816406 C 159.242188 357.296875 159.464844 357.769531 159.710938 358.230469 C 159.957031 358.691406 160.226562 359.140625 160.515625 359.574219 C 160.808594 360.011719 161.117188 360.429688 161.449219 360.835938 C 161.78125 361.238281 162.132812 361.625 162.503906 361.996094 C 162.871094 362.363281 163.257812 362.714844 163.664062 363.046875 C 164.066406 363.378906 164.488281 363.691406 164.921875 363.980469 C 165.355469 364.269531 165.804688 364.539062 166.265625 364.785156 C 166.726562 365.03125 167.199219 365.257812 167.683594 365.457031 C 168.164062 365.65625 168.65625 365.832031 169.15625 365.984375 C 169.65625 366.136719 170.164062 366.261719 170.675781 366.363281 C 171.191406 366.464844 171.707031 366.542969 172.226562 366.59375 C 172.746094 366.644531 173.269531 366.671875 173.792969 366.671875 L 635.449219 366.671875 C 635.972656 366.671875 636.492188 366.644531 637.015625 366.59375 C 637.535156 366.542969 638.050781 366.464844 638.5625 366.363281 C 639.078125 366.261719 639.582031 366.136719 640.082031 365.984375 C 640.585938 365.832031 641.074219 365.65625 641.558594 365.457031 C 642.042969 365.257812 642.515625 365.03125 642.976562 364.785156 C 643.4375 364.539062 643.882812 364.269531 644.320312 363.980469 C 644.753906 363.691406 645.171875 363.378906 645.578125 363.046875 C 645.980469 362.714844 646.367188 362.363281 646.738281 361.996094 C 647.109375 361.625 647.460938 361.238281 647.789062 360.835938 C 648.121094 360.429688 648.433594 360.011719 648.722656 359.574219 C 649.015625 359.140625 649.28125 358.691406 649.53125 358.230469 C 649.777344 357.769531 650 357.296875 650.199219 356.816406 C 650.398438 356.332031 650.574219 355.839844 650.726562 355.339844 C 650.878906 354.839844 651.007812 354.332031 651.109375 353.820312 C 651.210938 353.308594 651.285156 352.789062 651.339844 352.269531 C 651.390625 351.75 651.414062 351.226562 651.414062 350.707031 C 651.414062 350.183594 651.390625 349.660156 651.339844 349.140625 C 651.285156 348.621094 651.210938 348.105469 651.109375 347.589844 C 651.007812 347.078125 650.878906 346.570312 650.726562 346.070312 C 650.574219 345.570312 650.398438 345.078125 650.199219 344.59375 C 650 344.113281 649.777344 343.640625 649.53125 343.179688 C 649.28125 342.71875 649.015625 342.269531 648.722656 341.835938 C 648.433594 341.402344 648.121094 340.980469 647.789062 340.578125 C 647.460938 340.171875 647.109375 339.785156 646.738281 339.414062 C 646.367188 339.046875 645.980469 338.695312 645.578125 338.363281 C 645.171875 338.03125 644.753906 337.722656 644.320312 337.429688 C 643.882812 337.140625 643.4375 336.871094 642.976562 336.625 C 642.515625 336.378906 642.042969 336.15625 641.558594 335.953125 C 641.074219 335.753906 640.585938 335.578125 640.082031 335.425781 C 639.582031 335.273438 639.078125 335.148438 638.5625 335.046875 C 638.050781 334.945312 637.535156 334.867188 637.015625 334.816406 C 636.492188 334.765625 635.972656 334.738281 635.449219 334.738281 Z M 635.449219 334.738281 " fill-opacity="1" fill-rule="nonzero"/></svg>