<?xml version="1.0" encoding="UTF-8" standalone="no"?><svg xmlns="http://www.w3.org/2000/svg" xmlns:xlink="http://www.w3.org/1999/xlink" width="1080" zoomAndPan="magnify" viewBox="0 0 810 809.999993" height="1080" preserveAspectRatio="xMidYMid meet" version="1.0"><defs><clipPath id="7bb7beb828"><path d="M 0 556 L 810 556 L 810 704.550781 L 0 704.550781 Z M 0 556 " clip-rule="nonzero"/></clipPath><clipPath id="7d01dc1cbe"><path d="M 34 105.300781 L 776 105.300781 L 776 576 L 34 576 Z M 34 105.300781 " clip-rule="nonzero"/></clipPath></defs><path fill="#ffffff" d="M 775.222656 673.128906 L 34.777344 673.128906 L 34.777344 134.625 L 466.617188 134.625 C 475.90625 134.625 483.445312 127.089844 483.445312 117.796875 C 483.445312 108.507812 475.90625 100.96875 466.617188 100.96875 L 17.949219 100.96875 C 8.660156 100.96875 1.121094 108.507812 1.121094 117.796875 L 1.121094 689.957031 C 1.121094 699.25 8.660156 706.785156 17.949219 706.785156 L 792.050781 706.785156 C 801.339844 706.785156 808.878906 699.25 808.878906 689.957031 L 808.878906 117.796875 C 808.878906 108.507812 801.339844 100.96875 792.050781 100.96875 C 782.757812 100.96875 775.222656 108.507812 775.222656 117.796875 Z M 775.222656 673.128906 " fill-opacity="1" fill-rule="nonzero"/><path fill="#ffffff" d="M 17.949219 639.472656 L 792.050781 639.472656 C 801.339844 639.472656 808.878906 631.9375 808.878906 622.644531 C 808.878906 613.355469 801.339844 605.816406 792.050781 605.816406 L 17.949219 605.816406 C 8.660156 605.816406 1.121094 613.355469 1.121094 622.644531 C 1.121094 631.9375 8.660156 639.472656 17.949219 639.472656 Z M 17.949219 639.472656 " fill-opacity="1" fill-rule="nonzero"/><path fill="#ffffff" d="M 253.546875 807.757812 L 556.453125 807.757812 C 565.746094 807.757812 573.28125 800.21875 573.28125 790.929688 C 573.28125 781.636719 565.746094 774.101562 556.453125 774.101562 L 253.546875 774.101562 C 244.253906 774.101562 236.71875 781.636719 236.71875 790.929688 C 236.71875 800.21875 244.253906 807.757812 253.546875 807.757812 Z M 253.546875 807.757812 " fill-opacity="1" fill-rule="nonzero"/><path fill="#ffffff" d="M 303.152344 796.273438 L 336.808594 695.304688 C 339.789062 686.453125 334.96875 676.898438 326.207031 674.007812 C 317.351562 671.027344 307.800781 675.847656 304.90625 684.613281 L 271.25 785.582031 C 268.269531 794.433594 273.089844 803.988281 281.855469 806.878906 C 290.707031 809.859375 300.261719 805.039062 303.152344 796.273438 Z M 303.152344 796.273438 " fill-opacity="1" fill-rule="nonzero"/><path fill="#ffffff" d="M 506.847656 796.273438 L 473.191406 695.304688 C 470.210938 686.453125 475.03125 676.898438 483.792969 674.007812 C 492.648438 671.027344 502.199219 675.847656 505.09375 684.613281 L 538.75 785.582031 C 541.730469 794.433594 536.910156 803.988281 528.144531 806.878906 C 519.292969 809.859375 509.738281 805.039062 506.847656 796.273438 Z M 506.847656 796.273438 " fill-opacity="1" fill-rule="nonzero"/><path fill="#ffffff" d="M 720.707031 151.015625 L 376.339844 453.398438 C 373.097656 456.203125 357.757812 434.554688 340.667969 417.726562 C 322.085938 399.40625 301.925781 385.558594 304.996094 382.054688 L 607.378906 37.6875 C 638.578125 2.542969 691.082031 0.964844 724.210938 34.183594 C 757.515625 67.402344 755.851562 119.8125 720.707031 151.015625 Z M 700.457031 57.933594 C 680.914062 38.476562 650.9375 39.355469 632.621094 59.949219 L 340.667969 392.394531 L 365.996094 417.726562 L 698.355469 125.863281 C 719.039062 107.457031 720.003906 77.480469 700.457031 57.933594 Z M 700.457031 57.933594 " fill-opacity="1" fill-rule="nonzero"/><path fill="#ffffff" d="M 160.550781 535.261719 C 150.472656 527.109375 153.015625 511.070312 165.109375 506.425781 C 186.757812 498.1875 198.066406 482.847656 213.316406 447.613281 C 226.988281 416.0625 230.757812 408.699219 241.449219 397.917969 C 274.316406 365.050781 327.609375 365.050781 360.476562 397.917969 C 393.34375 430.785156 393.34375 484.074219 360.476562 516.941406 C 316.214844 561.117188 218.222656 581.539062 160.550781 535.261719 Z M 336.636719 493.101562 C 356.355469 473.382812 356.355469 441.480469 336.636719 421.757812 C 316.914062 402.039062 285.011719 402.039062 265.289062 421.757812 C 258.980469 428.070312 255.648438 434.46875 244.253906 460.9375 C 231.898438 489.507812 220.765625 508.527344 205.078125 521.761719 C 248.726562 537.101562 308.851562 520.976562 336.636719 493.101562 Z M 336.636719 493.101562 " fill-opacity="1" fill-rule="nonzero"/><path fill="#ffffff" d="M 375.023438 334.722656 L 423.582031 383.019531 C 430.15625 389.589844 440.761719 389.589844 447.332031 383.019531 C 453.90625 376.445312 453.90625 365.75 447.332031 359.179688 L 398.777344 310.882812 C 392.203125 304.3125 381.511719 304.398438 374.9375 310.972656 C 368.363281 317.546875 368.449219 328.152344 375.023438 334.722656 Z M 375.023438 334.722656 " fill-opacity="1" fill-rule="nonzero"/><path fill="#ffffff" d="M 478.3125 527.65625 L 150.894531 527.65625 C 136.1875 527.65625 123.847656 515.320312 123.847656 500.609375 L 123.847656 250.539062 C 123.847656 235.832031 136.1875 223.96875 150.894531 223.96875 L 478.3125 223.96875 C 493.023438 223.96875 504.886719 235.832031 504.886719 250.539062 L 504.886719 283.28125 C 504.886719 296.09375 485.90625 296.09375 485.90625 283.28125 L 485.90625 250.539062 C 485.90625 246.269531 482.109375 242.949219 478.3125 242.949219 L 150.894531 242.949219 C 146.625 242.949219 142.828125 246.269531 142.828125 250.539062 L 142.828125 500.609375 C 142.828125 504.882812 146.625 508.675781 150.894531 508.675781 L 478.3125 508.675781 C 482.109375 508.675781 485.90625 504.882812 485.90625 500.609375 L 485.90625 403.335938 C 485.90625 390.523438 504.886719 390.523438 504.886719 403.335938 L 504.886719 500.609375 C 504.886719 515.320312 493.023438 527.65625 478.3125 527.65625 Z M 478.3125 527.65625 " fill-opacity="1" fill-rule="evenodd"/><path fill="#ffffff" d="M 317.453125 527.65625 L 150.421875 527.65625 C 117.207031 527.65625 122.898438 477.359375 125.746094 473.5625 L 176.046875 405.707031 C 194.550781 380.558594 226.820312 379.609375 246.273438 405.234375 L 325.042969 512.472656 C 329.789062 518.640625 325.042969 527.65625 317.453125 527.65625 Z M 142.828125 482.105469 C 142.828125 491.121094 140.929688 508.675781 150.421875 508.675781 L 298.472656 508.675781 L 230.613281 416.621094 C 219.703125 401.4375 202.617188 401.910156 191.230469 417.09375 Z M 142.828125 482.105469 " fill-opacity="1" fill-rule="evenodd"/><path fill="#ffffff" d="M 478.3125 527.65625 L 317.453125 527.65625 C 314.605469 527.65625 311.757812 525.761719 309.859375 523.386719 L 276.167969 478.308594 C 273.796875 474.511719 273.796875 469.765625 276.644531 466.445312 L 385.308594 337.851562 C 414.253906 303.6875 468.824219 308.90625 462.179688 328.359375 C 460.28125 333.582031 455.0625 335.953125 450.316406 334.53125 C 432.285156 328.359375 412.828125 334.53125 399.542969 350.1875 L 296.097656 473.089844 L 322.195312 508.675781 L 478.3125 508.675781 C 482.582031 508.675781 485.90625 503.933594 485.90625 498.710938 L 485.90625 403.335938 C 485.90625 390.996094 504.886719 390.996094 504.886719 403.335938 L 504.886719 498.710938 C 504.886719 514.371094 493.023438 527.65625 478.3125 527.65625 Z M 478.3125 527.65625 " fill-opacity="1" fill-rule="evenodd"/><path fill="#ffffff" d="M 251.96875 354.933594 C 193.601562 354.933594 193.601562 265.726562 251.96875 265.726562 C 276.644531 265.726562 296.574219 285.65625 296.574219 310.328125 C 296.574219 335.003906 276.644531 354.933594 251.96875 354.933594 Z M 251.96875 284.707031 C 218.277344 284.707031 218.753906 335.953125 251.96875 335.953125 C 285.660156 335.953125 286.132812 284.707031 251.96875 284.707031 Z M 251.96875 284.707031 " fill-opacity="1" fill-rule="evenodd"/><path fill="#ffffff" d="M 457.910156 450.3125 C 455.535156 450.3125 453.164062 449.363281 451.265625 447.464844 L 391.476562 387.199219 C 387.679688 383.878906 387.679688 377.710938 391.476562 373.914062 L 582.707031 182.683594 C 586.503906 178.886719 592.195312 178.886719 595.992188 182.683594 L 656.257812 242.472656 C 659.578125 246.269531 659.578125 251.964844 656.257812 255.761719 L 464.550781 447.464844 C 462.652344 449.363281 460.28125 450.3125 457.910156 450.3125 Z M 411.40625 380.558594 L 457.910156 427.058594 L 635.851562 249.117188 L 589.351562 202.613281 Z M 411.40625 380.558594 " fill-opacity="1" fill-rule="evenodd"/><path fill="#ffffff" d="M 371.546875 476.882812 C 364.902344 476.882812 360.15625 470.714844 362.054688 464.546875 L 389.105469 378.183594 C 391 371.066406 399.542969 369.167969 404.761719 373.914062 L 464.550781 434.179688 C 469.773438 438.921875 467.398438 447.9375 460.753906 449.835938 Z M 402.390625 398.589844 L 385.78125 452.683594 L 439.878906 436.074219 Z M 402.390625 398.589844 " fill-opacity="1" fill-rule="evenodd"/><path fill="#ffffff" d="M 428.015625 419.941406 C 419.472656 419.941406 415.203125 409.976562 421.371094 403.808594 L 612.601562 212.578125 C 621.617188 203.5625 634.902344 216.847656 625.886719 225.867188 L 434.65625 417.570312 C 432.757812 419.46875 430.386719 419.941406 428.015625 419.941406 Z M 428.015625 419.941406 " fill-opacity="1" fill-rule="evenodd"/><path fill="#ffffff" d="M 649.140625 258.605469 C 646.765625 258.605469 644.394531 257.65625 642.496094 255.761719 L 582.707031 195.972656 C 573.214844 186.953125 589.351562 175.566406 601.6875 163.703125 C 615.921875 149.46875 639.175781 149.46875 653.410156 163.703125 C 669.542969 179.363281 685.675781 190.75 685.675781 211.15625 C 685.675781 230.136719 670.964844 241.050781 656.257812 255.761719 C 654.359375 257.65625 651.984375 258.605469 649.140625 258.605469 Z M 602.636719 189.328125 L 649.140625 235.832031 C 657.207031 227.761719 676.660156 213.527344 661.476562 198.816406 C 629.210938 166.074219 630.15625 162.28125 602.636719 189.328125 Z M 602.636719 189.328125 " fill-opacity="1" fill-rule="evenodd"/><g clip-path="url(#7bb7beb828)"><path fill="#ffffff" d="M 735.5 704.652344 L 74.5 704.652344 C 33.214844 704.652344 0 671.4375 0 630.628906 L 0 565.621094 C 0 560.398438 4.269531 556.128906 9.492188 556.128906 L 299.421875 556.128906 C 313.179688 556.128906 308.910156 576.53125 308.910156 595.039062 C 308.910156 606.425781 317.925781 615.445312 329.316406 615.445312 L 480.683594 615.445312 C 505.835938 615.445312 500.613281 585.550781 500.613281 565.621094 C 500.613281 560.398438 504.886719 556.128906 510.105469 556.128906 L 800.507812 556.128906 C 805.253906 556.128906 810 560.398438 810 565.621094 L 810 630.628906 C 810 671.4375 776.308594 704.652344 735.5 704.652344 Z M 18.980469 575.109375 L 18.980469 630.152344 C 18.980469 660.996094 43.65625 685.671875 74.5 685.671875 L 735.5 685.671875 C 765.871094 685.671875 790.542969 660.996094 790.542969 630.152344 L 790.542969 575.109375 L 519.597656 575.109375 L 519.597656 595.039062 C 519.597656 616.867188 502.039062 634.425781 480.683594 634.425781 L 328.839844 634.425781 C 307.488281 634.425781 289.929688 616.867188 289.929688 595.039062 L 289.929688 575.109375 Z M 18.980469 575.109375 " fill-opacity="1" fill-rule="evenodd"/></g><g clip-path="url(#7d01dc1cbe)"><path fill="#ffffff" d="M 765.871094 575.109375 L 43.65625 575.109375 C 38.4375 575.109375 34.164062 570.839844 34.164062 565.621094 L 34.164062 133.808594 C 34.164062 118.148438 46.976562 105.339844 62.636719 105.339844 L 746.890625 105.339844 C 762.546875 105.339844 775.359375 118.148438 775.359375 133.808594 L 775.359375 565.621094 C 775.359375 570.839844 771.089844 575.109375 765.871094 575.109375 Z M 53.144531 556.128906 L 756.378906 556.128906 L 756.378906 133.808594 C 756.378906 128.589844 752.109375 124.320312 746.890625 124.320312 L 62.636719 124.320312 C 57.417969 124.320312 53.144531 128.589844 53.144531 133.808594 Z M 53.144531 556.128906 " fill-opacity="1" fill-rule="evenodd"/></g></svg>