<?xml version="1.0" encoding="UTF-8" standalone="no"?><svg xmlns="http://www.w3.org/2000/svg" xmlns:xlink="http://www.w3.org/1999/xlink" width="769" zoomAndPan="magnify" viewBox="0 0 576.75 809.999993" height="1080" preserveAspectRatio="xMidYMid meet" version="1.0"><defs><clipPath id="e95dab8d4d"><path d="M 13 525 L 576.5 525 L 576.5 647 L 13 647 Z M 13 525 " clip-rule="nonzero"/></clipPath><clipPath id="4bf216c506"><path d="M 14 513 L 576.5 513 L 576.5 634 L 14 634 Z M 14 513 " clip-rule="nonzero"/></clipPath><clipPath id="2891e58686"><path d="M 362 505 L 501 505 L 501 656.144531 L 362 656.144531 Z M 362 505 " clip-rule="nonzero"/></clipPath></defs><g clip-path="url(#e95dab8d4d)"><path fill="#162667" d="M 556.785156 584.03125 L 478.875 525.761719 L 39.882812 563.863281 L 14.96875 553.578125 L 13.253906 566.101562 L 107.25 646.125 L 574.320312 597.214844 L 576.164062 584.558594 Z M 556.785156 584.03125 " fill-opacity="1" fill-rule="nonzero"/></g><path fill="#ffffff" d="M 17.207031 554.238281 L 480.324219 514.027344 L 573.792969 583.898438 L 109.355469 632.546875 Z M 17.207031 554.238281 " fill-opacity="1" fill-rule="nonzero"/><g clip-path="url(#4bf216c506)"><path fill="#162667" d="M 480.0625 514.953125 L 571.417969 583.242188 L 109.753906 631.625 L 19.582031 554.898438 L 480.0625 514.953125 M 480.589844 513.105469 L 14.96875 553.578125 L 109.09375 633.601562 L 576.164062 584.558594 Z M 480.589844 513.105469 " fill-opacity="1" fill-rule="nonzero"/></g><path fill="#162667" d="M 399.382812 580.605469 L 371.039062 559.378906 L 232.882812 571.375 L 208.363281 570.058594 L 207.042969 573.617188 L 240.132812 601.828125 L 404.65625 584.558594 L 406.105469 581 Z M 399.382812 580.605469 " fill-opacity="1" fill-rule="nonzero"/><path fill="#d4def9" d="M 208.363281 570.058594 L 241.582031 598.136719 L 406.105469 581 L 372.355469 555.820312 Z M 208.363281 570.058594 " fill-opacity="1" fill-rule="nonzero"/><path fill="#d4def9" d="M 228.664062 462.21875 C 203.484375 463.007812 178.039062 469.734375 155.761719 480.148438 C 123.332031 495.175781 86.945312 520.355469 49.902344 504.007812 C 1.390625 482.519531 49.242188 416.078125 42.257812 380.21875 C 36.984375 352.796875 22.351562 328.410156 13.515625 302.175781 C 0.335938 263.152344 8.769531 223.46875 48.582031 204.882812 C 71.917969 193.9375 98.941406 193.675781 124.386719 197.628906 C 169.867188 204.75 212.710938 226.632812 258.457031 209.230469 C 289.699219 197.367188 326.085938 178.648438 354.429688 206.992188 C 384.222656 237.046875 381.980469 289.386719 385.277344 328.410156 C 388.574219 363.476562 403.335938 396.300781 411.773438 430.050781 C 422.058594 471.183594 383.300781 504.933594 343.75 497.285156 C 327.140625 494.121094 311.980469 485.816406 296.820312 478.300781 C 275.332031 467.886719 253.050781 461.558594 228.664062 462.21875 Z M 228.664062 462.21875 " fill-opacity="1" fill-rule="nonzero"/><path fill="#d4def9" d="M 191.488281 182.46875 L 218.511719 208.308594 C 219.304688 209.101562 220.621094 208.574219 220.621094 207.386719 L 220.621094 155.574219 C 220.621094 154.390625 219.304688 153.863281 218.511719 154.652344 L 191.488281 180.492188 C 190.960938 181.019531 190.960938 181.941406 191.488281 182.46875 Z M 191.488281 182.46875 " fill-opacity="1" fill-rule="nonzero"/><path fill="#d4def9" d="M 204.144531 185.765625 L 189.113281 195.125 C 188.457031 195.519531 187.664062 195.125 187.664062 194.335938 L 187.664062 168.757812 C 187.664062 167.96875 188.457031 167.574219 189.113281 167.96875 L 204.144531 177.59375 C 204.40625 177.722656 204.539062 178.121094 204.539062 178.382812 L 204.539062 184.976562 C 204.671875 185.238281 204.40625 185.632812 204.144531 185.765625 Z M 204.144531 185.765625 " fill-opacity="1" fill-rule="nonzero"/><path fill="#d4def9" d="M 228.003906 202.113281 C 227.34375 202.113281 226.816406 201.585938 226.816406 200.925781 C 226.816406 200.265625 227.34375 199.738281 228.003906 199.738281 C 238.15625 199.738281 246.328125 191.566406 246.328125 181.414062 C 246.328125 171.265625 238.15625 163.089844 228.003906 163.089844 C 227.34375 163.089844 226.816406 162.5625 226.816406 161.902344 C 226.816406 161.246094 227.34375 160.71875 228.003906 160.71875 C 239.339844 160.71875 248.570312 169.945312 248.570312 181.285156 C 248.703125 192.882812 239.472656 202.113281 228.003906 202.113281 Z M 228.003906 202.113281 " fill-opacity="1" fill-rule="nonzero"/><path fill="#d4def9" d="M 228.003906 196.445312 C 227.34375 196.445312 226.816406 195.917969 226.816406 195.257812 C 226.816406 194.597656 227.34375 194.070312 228.003906 194.070312 C 234.992188 194.070312 240.660156 188.402344 240.660156 181.414062 C 240.660156 174.429688 234.992188 168.757812 228.003906 168.757812 C 227.34375 168.757812 226.816406 168.230469 226.816406 167.574219 C 226.816406 166.914062 227.34375 166.386719 228.003906 166.386719 C 236.175781 166.386719 242.902344 173.109375 242.902344 181.285156 C 242.902344 189.457031 236.308594 196.445312 228.003906 196.445312 Z M 228.003906 196.445312 " fill-opacity="1" fill-rule="nonzero"/><path fill="#d4def9" d="M 228.003906 191.171875 C 227.34375 191.171875 226.816406 190.644531 226.816406 189.984375 C 226.816406 189.324219 227.34375 188.796875 228.003906 188.796875 C 232.089844 188.796875 235.386719 185.503906 235.386719 181.414062 C 235.386719 177.328125 232.089844 174.03125 228.003906 174.03125 C 227.34375 174.03125 226.816406 173.503906 226.816406 172.847656 C 226.816406 172.1875 227.34375 171.660156 228.003906 171.660156 C 233.277344 171.660156 237.628906 176.011719 237.628906 181.285156 C 237.628906 186.820312 233.410156 191.171875 228.003906 191.171875 Z M 228.003906 191.171875 " fill-opacity="1" fill-rule="nonzero"/><path fill="#d4def9" d="M 106.589844 365.980469 L 101.449219 365.980469 C 100.523438 362.027344 99.074219 358.203125 96.964844 354.90625 L 100.789062 351.082031 C 102.105469 349.765625 102.105469 347.65625 100.789062 346.207031 L 92.613281 338.03125 C 91.296875 336.714844 89.1875 336.714844 87.738281 338.03125 L 84.179688 341.59375 C 80.882812 339.484375 77.058594 337.902344 73.105469 336.847656 L 73.105469 331.574219 C 73.105469 329.726562 71.523438 328.144531 69.675781 328.144531 L 58.074219 328.144531 C 56.230469 328.144531 54.648438 329.726562 54.648438 331.574219 L 54.648438 336.714844 C 50.691406 337.636719 46.871094 339.085938 43.574219 341.195312 L 39.882812 337.503906 C 38.566406 336.1875 36.457031 336.1875 35.003906 337.503906 L 26.832031 345.679688 C 25.515625 346.996094 25.515625 349.105469 26.832031 350.554688 L 30.390625 354.117188 C 28.28125 357.410156 26.699219 361.234375 25.644531 365.191406 L 20.371094 365.191406 C 18.527344 365.191406 16.945312 366.773438 16.945312 368.617188 L 16.945312 380.21875 C 16.945312 382.0625 18.527344 383.644531 20.371094 383.644531 L 25.515625 383.644531 C 26.4375 387.601562 27.886719 391.425781 29.996094 394.71875 L 26.171875 398.542969 C 24.855469 399.863281 24.855469 401.972656 26.171875 403.421875 L 34.347656 411.59375 C 35.664062 412.914062 37.773438 412.914062 39.222656 411.59375 L 42.785156 407.902344 C 46.078125 410.011719 49.902344 411.59375 53.855469 412.648438 L 53.855469 417.921875 C 53.855469 419.769531 55.4375 421.351562 57.285156 421.351562 L 68.886719 421.351562 C 70.730469 421.351562 72.3125 419.769531 72.3125 417.921875 L 72.3125 412.78125 C 76.269531 411.859375 80.089844 410.410156 83.386719 408.300781 L 87.210938 412.121094 C 88.527344 413.441406 90.636719 413.441406 92.085938 412.121094 L 100.261719 403.949219 C 101.578125 402.628906 101.578125 400.519531 100.261719 399.070312 L 96.703125 395.511719 C 98.8125 392.214844 100.394531 388.390625 101.449219 384.4375 L 106.722656 384.4375 C 108.566406 384.4375 110.148438 382.855469 110.148438 381.011719 L 110.148438 369.410156 C 110.015625 367.5625 108.433594 365.980469 106.589844 365.980469 Z M 63.480469 396.433594 C 51.484375 396.433594 41.859375 386.679688 41.859375 374.8125 C 41.859375 362.816406 51.617188 353.191406 63.480469 353.191406 C 75.476562 353.191406 85.101562 362.949219 85.101562 374.8125 C 85.101562 386.808594 75.34375 396.433594 63.480469 396.433594 Z M 63.480469 396.433594 " fill-opacity="1" fill-rule="nonzero"/><path fill="#162667" d="M 108.828125 363.609375 L 103.6875 363.609375 C 102.765625 359.652344 101.316406 355.828125 99.207031 352.535156 L 103.03125 348.710938 C 104.347656 347.390625 104.347656 345.28125 103.03125 343.832031 L 94.855469 335.660156 C 93.539062 334.339844 91.429688 334.339844 89.976562 335.660156 L 86.289062 339.351562 C 82.992188 337.242188 79.167969 335.660156 75.214844 334.605469 L 75.214844 329.332031 C 75.214844 327.484375 73.632812 325.902344 71.785156 325.902344 L 60.183594 325.902344 C 58.339844 325.902344 56.757812 327.484375 56.757812 329.332031 L 56.757812 334.472656 C 52.800781 335.394531 48.980469 336.847656 45.683594 338.957031 L 41.992188 335.265625 C 40.675781 333.945312 38.566406 333.945312 37.113281 335.265625 L 28.941406 343.4375 C 27.621094 344.753906 27.621094 346.863281 28.941406 348.316406 L 32.5 351.875 C 30.390625 355.171875 28.808594 358.992188 27.753906 362.949219 L 22.480469 362.949219 C 20.636719 362.949219 19.054688 364.53125 19.054688 366.375 L 19.054688 377.976562 C 19.054688 379.824219 20.636719 381.40625 22.480469 381.40625 L 27.625 381.40625 C 28.546875 385.359375 29.996094 389.183594 32.105469 392.480469 L 28.28125 396.300781 C 26.964844 397.621094 26.964844 399.730469 28.28125 401.179688 L 36.457031 409.355469 C 37.773438 410.671875 39.882812 410.671875 41.332031 409.355469 L 44.894531 405.792969 C 48.1875 407.902344 52.011719 409.484375 55.964844 410.539062 L 55.964844 415.8125 C 55.964844 417.660156 57.546875 419.242188 59.394531 419.242188 L 70.996094 419.242188 C 72.839844 419.242188 74.421875 417.660156 74.421875 415.8125 L 74.421875 410.539062 C 78.378906 409.617188 82.199219 408.167969 85.496094 406.058594 L 89.320312 409.882812 C 90.636719 411.199219 92.746094 411.199219 94.195312 409.882812 L 102.371094 401.707031 C 103.6875 400.390625 103.6875 398.28125 102.371094 396.828125 L 98.8125 393.269531 C 100.921875 389.972656 102.503906 386.152344 103.558594 382.195312 L 108.828125 382.195312 C 110.675781 382.195312 112.257812 380.613281 112.257812 378.769531 L 112.257812 367.035156 C 112.125 365.191406 110.675781 363.609375 108.828125 363.609375 Z M 65.589844 394.0625 C 53.59375 394.0625 43.96875 384.304688 43.96875 372.441406 C 43.96875 360.574219 53.726562 350.820312 65.589844 350.820312 C 77.585938 350.820312 87.210938 360.574219 87.210938 372.441406 C 87.210938 384.304688 77.585938 394.0625 65.589844 394.0625 Z M 65.589844 394.0625 " fill-opacity="1" fill-rule="nonzero"/><path fill="#162667" d="M 519.347656 298.21875 C 510.117188 269.609375 479.402344 253.921875 450.796875 263.285156 C 422.1875 272.511719 406.5 303.230469 415.859375 331.835938 C 425.089844 360.445312 455.804688 376.132812 484.414062 366.773438 C 512.886719 357.542969 528.574219 326.828125 519.347656 298.21875 Z M 467.539062 266.050781 C 475.050781 266.050781 480.984375 272.117188 480.984375 279.5 C 480.984375 287.011719 474.921875 292.945312 467.539062 292.945312 C 460.023438 292.945312 454.089844 286.882812 454.089844 279.5 C 454.089844 271.984375 460.023438 266.050781 467.539062 266.050781 Z M 420.871094 299.800781 C 423.113281 292.683594 430.757812 288.859375 437.875 291.101562 C 444.996094 293.339844 448.820312 300.988281 446.578125 308.105469 C 444.335938 315.226562 436.691406 319.046875 429.570312 316.808594 C 422.453125 314.566406 418.628906 306.917969 420.871094 299.800781 Z M 457.519531 351.609375 C 453.167969 357.675781 444.730469 358.992188 438.667969 354.644531 C 432.601562 350.292969 431.285156 341.855469 435.636719 335.792969 C 439.984375 329.726562 448.421875 328.410156 454.488281 332.757812 C 460.550781 337.242188 462 345.679688 457.519531 351.609375 Z M 496.277344 354.644531 C 490.210938 358.992188 481.777344 357.675781 477.425781 351.609375 C 473.074219 345.546875 474.394531 337.109375 480.457031 332.757812 C 486.523438 328.410156 494.957031 329.726562 499.308594 335.792969 C 503.660156 341.855469 502.339844 350.292969 496.277344 354.644531 Z M 505.503906 316.808594 C 498.386719 319.046875 490.871094 315.226562 488.5 308.105469 C 486.257812 300.988281 490.082031 293.472656 497.199219 291.101562 C 504.320312 288.859375 511.832031 292.683594 514.207031 299.800781 C 516.445312 306.917969 512.492188 314.566406 505.503906 316.808594 Z M 505.503906 316.808594 " fill-opacity="1" fill-rule="nonzero"/><path fill="#d4def9" d="M 516.050781 294.921875 C 506.824219 266.316406 476.105469 250.628906 447.5 259.988281 C 418.894531 269.214844 403.207031 299.933594 412.566406 328.539062 C 421.792969 357.148438 452.507812 372.835938 481.117188 363.476562 C 509.722656 354.246094 525.28125 323.53125 516.050781 294.921875 Z M 464.242188 262.757812 C 471.757812 262.757812 477.6875 268.820312 477.6875 276.203125 C 477.6875 283.71875 471.625 289.648438 464.242188 289.648438 C 456.859375 289.648438 450.796875 283.585938 450.796875 276.203125 C 450.796875 268.820312 456.859375 262.757812 464.242188 262.757812 Z M 417.707031 296.636719 C 419.949219 289.519531 427.59375 285.695312 434.710938 287.9375 C 441.832031 290.175781 445.65625 297.824219 443.414062 304.941406 C 441.171875 312.0625 433.527344 315.882812 426.40625 313.644531 C 419.289062 311.269531 415.332031 303.625 417.707031 296.636719 Z M 454.355469 348.445312 C 450.003906 354.511719 441.566406 355.828125 435.503906 351.480469 C 429.441406 347.128906 428.121094 338.691406 432.472656 332.628906 C 436.820312 326.5625 445.257812 325.246094 451.324219 329.59375 C 457.386719 333.945312 458.707031 342.382812 454.355469 348.445312 Z M 493.113281 351.347656 C 487.050781 355.699219 478.613281 354.378906 474.261719 348.316406 C 469.910156 342.25 471.230469 333.8125 477.292969 329.464844 C 483.359375 325.113281 491.792969 326.429688 496.144531 332.496094 C 500.496094 338.558594 499.046875 346.996094 493.113281 351.347656 Z M 502.210938 313.644531 C 495.089844 315.882812 487.578125 312.0625 485.203125 304.941406 C 482.960938 297.824219 486.785156 290.308594 493.902344 287.9375 C 501.023438 285.695312 508.539062 289.519531 510.910156 296.636719 C 513.152344 303.625 509.328125 311.269531 502.210938 313.644531 Z M 502.210938 313.644531 " fill-opacity="1" fill-rule="nonzero"/><path fill="#162667" d="M 481.90625 311.796875 C 481.90625 312.375 481.878906 312.953125 481.824219 313.527344 C 481.765625 314.105469 481.679688 314.675781 481.566406 315.242188 C 481.457031 315.8125 481.316406 316.371094 481.148438 316.925781 C 480.980469 317.480469 480.785156 318.023438 480.5625 318.558594 C 480.339844 319.09375 480.09375 319.613281 479.820312 320.125 C 479.550781 320.636719 479.25 321.132812 478.929688 321.613281 C 478.609375 322.09375 478.265625 322.558594 477.898438 323.003906 C 477.53125 323.453125 477.144531 323.878906 476.734375 324.289062 C 476.324219 324.699219 475.894531 325.085938 475.449219 325.453125 C 475 325.820312 474.539062 326.164062 474.054688 326.484375 C 473.574219 326.808594 473.078125 327.105469 472.570312 327.378906 C 472.058594 327.648438 471.539062 327.898438 471.003906 328.117188 C 470.46875 328.339844 469.925781 328.535156 469.371094 328.703125 C 468.816406 328.871094 468.257812 329.011719 467.6875 329.125 C 467.121094 329.238281 466.550781 329.320312 465.972656 329.378906 C 465.398438 329.433594 464.820312 329.464844 464.242188 329.464844 C 463.664062 329.464844 463.085938 329.433594 462.511719 329.378906 C 461.933594 329.320312 461.363281 329.238281 460.796875 329.125 C 460.230469 329.011719 459.667969 328.871094 459.113281 328.703125 C 458.5625 328.535156 458.015625 328.339844 457.480469 328.117188 C 456.949219 327.898438 456.425781 327.648438 455.914062 327.378906 C 455.40625 327.105469 454.910156 326.808594 454.429688 326.484375 C 453.945312 326.164062 453.484375 325.820312 453.035156 325.453125 C 452.589844 325.085938 452.160156 324.699219 451.75 324.289062 C 451.34375 323.878906 450.953125 323.453125 450.585938 323.003906 C 450.21875 322.558594 449.875 322.09375 449.554688 321.613281 C 449.234375 321.132812 448.9375 320.636719 448.664062 320.125 C 448.390625 319.613281 448.144531 319.09375 447.921875 318.558594 C 447.699219 318.023438 447.507812 317.480469 447.339844 316.925781 C 447.171875 316.371094 447.03125 315.8125 446.917969 315.242188 C 446.804688 314.675781 446.71875 314.105469 446.664062 313.527344 C 446.605469 312.953125 446.578125 312.375 446.578125 311.796875 C 446.578125 311.21875 446.605469 310.640625 446.664062 310.066406 C 446.71875 309.492188 446.804688 308.917969 446.917969 308.351562 C 447.03125 307.785156 447.171875 307.222656 447.339844 306.667969 C 447.507812 306.117188 447.699219 305.570312 447.921875 305.039062 C 448.144531 304.503906 448.390625 303.980469 448.664062 303.46875 C 448.9375 302.960938 449.234375 302.464844 449.554688 301.984375 C 449.875 301.503906 450.21875 301.039062 450.585938 300.589844 C 450.953125 300.144531 451.34375 299.714844 451.75 299.304688 C 452.160156 298.898438 452.589844 298.507812 453.035156 298.140625 C 453.484375 297.773438 453.945312 297.429688 454.429688 297.109375 C 454.910156 296.789062 455.40625 296.492188 455.914062 296.21875 C 456.425781 295.945312 456.949219 295.699219 457.480469 295.476562 C 458.015625 295.253906 458.5625 295.0625 459.113281 294.894531 C 459.667969 294.726562 460.230469 294.585938 460.796875 294.472656 C 461.363281 294.359375 461.933594 294.273438 462.511719 294.21875 C 463.085938 294.160156 463.664062 294.132812 464.242188 294.132812 C 464.820312 294.132812 465.398438 294.160156 465.972656 294.21875 C 466.550781 294.273438 467.121094 294.359375 467.6875 294.472656 C 468.257812 294.585938 468.816406 294.726562 469.371094 294.894531 C 469.925781 295.0625 470.46875 295.253906 471.003906 295.476562 C 471.539062 295.699219 472.058594 295.945312 472.570312 296.21875 C 473.078125 296.492188 473.574219 296.789062 474.058594 297.109375 C 474.539062 297.429688 475 297.773438 475.449219 298.140625 C 475.894531 298.507812 476.324219 298.898438 476.734375 299.304688 C 477.144531 299.714844 477.53125 300.144531 477.898438 300.589844 C 478.265625 301.039062 478.609375 301.503906 478.929688 301.984375 C 479.25 302.464844 479.550781 302.960938 479.820312 303.46875 C 480.09375 303.980469 480.339844 304.503906 480.5625 305.039062 C 480.785156 305.570312 480.980469 306.117188 481.148438 306.667969 C 481.316406 307.222656 481.457031 307.785156 481.566406 308.351562 C 481.679688 308.917969 481.765625 309.492188 481.824219 310.066406 C 481.878906 310.640625 481.90625 311.21875 481.90625 311.796875 Z M 481.90625 311.796875 " fill-opacity="1" fill-rule="nonzero"/><path fill="#ffffff" d="M 477.6875 311.796875 C 477.6875 312.679688 477.601562 313.554688 477.429688 314.421875 C 477.257812 315.285156 477.003906 316.128906 476.664062 316.945312 C 476.328125 317.757812 475.914062 318.535156 475.421875 319.269531 C 474.933594 320.003906 474.375 320.683594 473.75 321.304688 C 473.125 321.929688 472.445312 322.488281 471.710938 322.976562 C 470.980469 323.46875 470.203125 323.882812 469.386719 324.222656 C 468.574219 324.558594 467.730469 324.8125 466.867188 324.984375 C 466 325.160156 465.125 325.246094 464.242188 325.246094 C 463.359375 325.246094 462.484375 325.160156 461.617188 324.984375 C 460.753906 324.8125 459.914062 324.558594 459.097656 324.222656 C 458.28125 323.882812 457.507812 323.46875 456.773438 322.976562 C 456.039062 322.488281 455.359375 321.929688 454.734375 321.304688 C 454.109375 320.683594 453.550781 320.003906 453.0625 319.269531 C 452.570312 318.535156 452.15625 317.757812 451.820312 316.945312 C 451.480469 316.128906 451.226562 315.285156 451.054688 314.421875 C 450.882812 313.554688 450.796875 312.679688 450.796875 311.796875 C 450.796875 310.914062 450.882812 310.039062 451.054688 309.175781 C 451.226562 308.308594 451.480469 307.46875 451.820312 306.652344 C 452.15625 305.835938 452.570312 305.0625 453.0625 304.328125 C 453.550781 303.59375 454.109375 302.914062 454.734375 302.289062 C 455.359375 301.664062 456.039062 301.109375 456.773438 300.617188 C 457.507812 300.125 458.28125 299.710938 459.097656 299.375 C 459.914062 299.035156 460.753906 298.78125 461.617188 298.609375 C 462.484375 298.4375 463.359375 298.351562 464.242188 298.351562 C 465.125 298.351562 466 298.4375 466.867188 298.609375 C 467.730469 298.78125 468.574219 299.035156 469.386719 299.375 C 470.203125 299.710938 470.980469 300.125 471.714844 300.617188 C 472.445312 301.109375 473.125 301.664062 473.75 302.289062 C 474.375 302.914062 474.933594 303.59375 475.421875 304.328125 C 475.914062 305.0625 476.328125 305.835938 476.664062 306.652344 C 477.003906 307.46875 477.257812 308.308594 477.429688 309.175781 C 477.601562 310.039062 477.6875 310.914062 477.6875 311.796875 Z M 477.6875 311.796875 " fill-opacity="1" fill-rule="nonzero"/><path fill="#162667" d="M 234.332031 552.917969 L 298.003906 548.964844 L 316.59375 454.574219 L 252.917969 458.394531 Z M 234.332031 552.917969 " fill-opacity="1" fill-rule="nonzero"/><path fill="#162667" d="M 190.035156 561.355469 L 343.089844 551.996094 L 342.960938 549.359375 C 342.828125 546.195312 340.058594 543.953125 337.027344 544.085938 L 195.308594 552.789062 C 192.144531 552.917969 189.90625 555.6875 190.035156 558.71875 Z M 190.035156 561.355469 " fill-opacity="1" fill-rule="nonzero"/><path fill="#162667" d="M 60.976562 285.167969 L 105.667969 507.042969 C 106.722656 512.183594 111.597656 516.269531 116.738281 516.269531 L 459.363281 496.363281 C 464.507812 496.363281 467.671875 492.277344 466.746094 487.136719 L 422.058594 286.75 C 421.003906 281.609375 416.125 277.519531 410.984375 277.519531 L 68.226562 275.808594 C 63.21875 275.9375 59.921875 280.027344 60.976562 285.167969 Z M 60.976562 285.167969 " fill-opacity="1" fill-rule="nonzero"/><path fill="#162667" d="M 60.976562 285.167969 L 103.292969 495.441406 L 464.375 475.664062 L 422.058594 286.882812 C 421.003906 281.738281 416.125 277.652344 410.984375 277.652344 L 68.226562 275.9375 C 63.21875 275.9375 59.921875 280.027344 60.976562 285.167969 Z M 60.976562 285.167969 " fill-opacity="1" fill-rule="nonzero"/><path fill="#d4def9" d="M 69.015625 277.125 L 113.707031 499 C 114.761719 504.140625 119.640625 508.226562 124.78125 508.226562 L 467.40625 488.320312 C 472.546875 488.320312 475.710938 484.234375 474.789062 479.09375 L 430.097656 278.707031 C 429.042969 273.566406 424.167969 269.480469 419.023438 269.480469 L 76.269531 267.765625 C 71.257812 267.898438 67.960938 272.117188 69.015625 277.125 Z M 69.015625 277.125 " fill-opacity="1" fill-rule="nonzero"/><path fill="#ffffff" d="M 69.015625 277.125 L 111.335938 487.53125 L 472.414062 467.753906 L 430.097656 278.972656 C 429.042969 273.828125 424.167969 269.742188 419.023438 269.742188 L 76.269531 268.027344 C 71.257812 267.898438 67.960938 272.117188 69.015625 277.125 Z M 69.015625 277.125 " fill-opacity="1" fill-rule="nonzero"/><path fill="#6f52eb" d="M 77.851562 277.257812 L 118.191406 477.773438 L 461.605469 458 L 421.132812 278.972656 Z M 77.851562 277.257812 " fill-opacity="1" fill-rule="nonzero"/><path stroke-linecap="butt" transform="matrix(1.318295, 0, 0, 1.318326, -37.632569, 75.685404)" fill-opacity="1" fill="#ffffff" fill-rule="nonzero" stroke-linejoin="miter" d="M 375.499539 277.898953 L 136.400516 290.900761 C 133.798908 290.998542 131.600283 289.300721 131.099518 286.699174 L 97.198611 115.800059 C 96.600064 112.599979 99.100926 109.500641 102.398864 109.601385 L 343.100928 115.800059 C 345.501044 115.900802 347.501142 117.598623 347.998944 119.900903 L 380.199026 271.599535 C 380.901283 274.799615 378.598949 277.700429 375.499539 277.898953 Z M 375.499539 277.898953 " stroke="#162667" stroke-width="1.477" stroke-opacity="1" stroke-miterlimit="10"/><path fill="#d4def9" d="M 457.253906 433.214844 L 142.050781 449.167969 L 130.1875 389.183594 L 445.917969 379.429688 Z M 457.253906 433.214844 " fill-opacity="1" fill-rule="nonzero"/><path fill="#162667" d="M 444.203125 371.519531 L 222.203125 377.582031 L 192.542969 230.984375 L 415.464844 235.992188 Z M 444.203125 371.519531 " fill-opacity="1" fill-rule="nonzero"/><path fill="#ffffff" d="M 443.675781 390.632812 L 226.421875 398.148438 L 225.761719 395.511719 L 443.148438 388.128906 Z M 443.675781 390.632812 " fill-opacity="1" fill-rule="nonzero"/><path fill="#ffffff" d="M 377.5 261.832031 L 237.363281 259.988281 L 253.710938 340.273438 L 393.582031 338.164062 Z M 372.355469 269.082031 L 374.070312 277.390625 L 365.238281 277.390625 L 363.523438 269.082031 Z M 354.164062 268.953125 L 355.878906 277.390625 L 347.046875 277.257812 L 345.332031 268.820312 Z M 335.707031 268.6875 L 337.421875 277.125 L 328.457031 276.992188 L 326.746094 268.554688 Z M 316.988281 268.554688 L 318.703125 276.992188 L 309.605469 276.863281 L 307.894531 268.292969 Z M 251.601562 276.597656 L 249.886719 267.898438 L 259.378906 268.027344 L 261.09375 276.730469 Z M 263.070312 332.363281 L 261.226562 323.664062 L 270.714844 323.53125 L 272.5625 332.230469 Z M 271.242188 276.730469 L 269.53125 268.027344 L 278.890625 268.160156 L 280.605469 276.730469 Z M 282.582031 332.101562 L 280.734375 323.398438 L 288.515625 323.265625 L 290.226562 331.96875 Z M 290.492188 276.863281 L 288.777344 268.292969 L 298.003906 268.425781 L 299.71875 276.992188 Z M 301.828125 331.835938 L 300.113281 323.265625 L 309.34375 323.136719 L 311.054688 331.703125 Z M 320.152344 331.574219 L 318.4375 323.003906 L 327.535156 322.871094 L 329.25 331.441406 Z M 338.871094 331.441406 L 337.160156 322.871094 L 346.125 322.738281 L 347.835938 331.175781 Z M 356.667969 331.175781 L 354.957031 322.738281 L 363.789062 322.609375 L 365.503906 331.046875 Z M 373.148438 322.609375 L 381.847656 322.476562 L 383.5625 330.78125 L 374.863281 330.914062 Z M 373.148438 322.609375 " fill-opacity="1" fill-rule="nonzero"/><path fill="#d87791" d="M 330.304688 299.273438 L 308.945312 289.121094 C 308.289062 288.859375 307.496094 289.386719 307.628906 290.046875 L 311.847656 310.214844 C 311.980469 310.742188 312.636719 311.007812 313.164062 310.742188 L 330.433594 300.59375 C 330.832031 300.460938 330.832031 299.667969 330.304688 299.273438 Z M 330.304688 299.273438 " fill-opacity="1" fill-rule="nonzero"/><path fill="#162667" d="M 179.359375 242.71875 L 124.519531 241.664062 L 123.992188 238.628906 L 178.699219 239.816406 Z M 179.359375 242.71875 " fill-opacity="1" fill-rule="nonzero"/><path fill="#d87791" d="M 181.46875 253.132812 L 126.628906 252.339844 L 126.101562 249.308594 L 180.808594 250.101562 Z M 181.46875 253.132812 " fill-opacity="1" fill-rule="nonzero"/><path fill="#162667" d="M 183.578125 263.546875 L 128.734375 262.886719 L 128.210938 259.855469 L 182.917969 260.515625 Z M 183.578125 263.546875 " fill-opacity="1" fill-rule="nonzero"/><path fill="#d87791" d="M 118.058594 241.53125 L 111.992188 241.53125 L 111.464844 238.367188 L 117.398438 238.5 Z M 118.058594 241.53125 " fill-opacity="1" fill-rule="nonzero"/><path fill="#d87791" d="M 120.167969 252.210938 L 114.101562 252.078125 L 113.574219 249.046875 L 119.507812 249.175781 Z M 120.167969 252.210938 " fill-opacity="1" fill-rule="nonzero"/><path fill="#d87791" d="M 122.277344 262.757812 L 116.210938 262.757812 L 115.683594 259.722656 L 121.617188 259.722656 Z M 122.277344 262.757812 " fill-opacity="1" fill-rule="nonzero"/><path fill="#d87791" d="M 192.410156 307.445312 L 137.699219 307.578125 L 137.042969 304.546875 L 191.75 304.414062 Z M 192.410156 307.445312 " fill-opacity="1" fill-rule="nonzero"/><path fill="#d4def9" d="M 194.519531 317.863281 L 139.808594 318.257812 L 139.28125 315.226562 L 193.859375 314.828125 Z M 194.519531 317.863281 " fill-opacity="1" fill-rule="nonzero"/><path fill="#162667" d="M 196.628906 328.277344 L 141.917969 328.9375 L 141.390625 325.773438 L 195.96875 325.375 Z M 196.628906 328.277344 " fill-opacity="1" fill-rule="nonzero"/><path fill="#d87791" d="M 131.242188 307.578125 L 125.175781 307.578125 L 124.519531 304.546875 L 130.582031 304.546875 Z M 131.242188 307.578125 " fill-opacity="1" fill-rule="nonzero"/><path fill="#d87791" d="M 133.351562 318.257812 L 127.285156 318.257812 L 126.757812 315.226562 L 132.691406 315.226562 Z M 133.351562 318.257812 " fill-opacity="1" fill-rule="nonzero"/><path fill="#d87791" d="M 135.460938 328.9375 L 129.394531 329.066406 L 128.867188 325.902344 L 134.800781 325.902344 Z M 135.460938 328.9375 " fill-opacity="1" fill-rule="nonzero"/><path fill="#d87791" d="M 165.914062 273.300781 L 130.84375 273.039062 L 130.1875 270.007812 L 165.253906 270.269531 Z M 165.914062 273.300781 " fill-opacity="1" fill-rule="nonzero"/><path fill="#d4def9" d="M 168.023438 283.847656 L 132.953125 283.585938 L 132.296875 280.554688 L 167.363281 280.816406 Z M 168.023438 283.847656 " fill-opacity="1" fill-rule="nonzero"/><path fill="#162667" d="M 170.128906 294.265625 L 135.0625 294.265625 L 134.40625 291.230469 L 169.472656 291.230469 Z M 170.128906 294.265625 " fill-opacity="1" fill-rule="nonzero"/><path fill="#162667" d="M 278.890625 415.8125 L 231.035156 417.792969 L 229.585938 410.804688 L 277.441406 408.957031 Z M 278.890625 415.8125 " fill-opacity="1" fill-rule="nonzero"/><path fill="#d87791" d="M 322.921875 426.492188 L 276.648438 428.601562 L 275.199219 421.746094 L 321.601562 419.636719 Z M 322.921875 426.492188 " fill-opacity="1" fill-rule="nonzero"/><path fill="#d87791" d="M 383.957031 405.664062 L 353.242188 407.113281 L 352.320312 402.5 L 383.035156 401.179688 Z M 383.957031 405.664062 " fill-opacity="1" fill-rule="nonzero"/><path fill="#162667" d="M 347.046875 418.320312 L 321.207031 419.375 L 319.890625 412.648438 L 345.597656 411.726562 Z M 347.046875 418.320312 " fill-opacity="1" fill-rule="nonzero"/><path fill="#ffffff" d="M 417.707031 416.078125 L 393.054688 417.132812 L 392.261719 413.441406 L 416.914062 412.386719 Z M 417.707031 416.078125 " fill-opacity="1" fill-rule="nonzero"/><path fill="#162667" d="M 204.273438 408.167969 L 153.652344 410.011719 L 152.992188 406.320312 L 203.617188 404.476562 Z M 204.273438 408.167969 " fill-opacity="1" fill-rule="nonzero"/><path fill="#ffffff" d="M 149.433594 410.144531 L 145.609375 410.410156 L 144.820312 406.585938 L 148.640625 406.453125 Z M 149.433594 410.144531 " fill-opacity="1" fill-rule="nonzero"/><path fill="#ffffff" d="M 206.121094 416.867188 L 155.496094 418.976562 L 154.707031 415.285156 L 205.328125 413.308594 Z M 206.121094 416.867188 " fill-opacity="1" fill-rule="nonzero"/><path fill="#ffffff" d="M 151.148438 419.109375 L 147.457031 419.375 L 146.664062 415.550781 L 150.355469 415.417969 Z M 151.148438 419.109375 " fill-opacity="1" fill-rule="nonzero"/><path fill="#162667" d="M 209.679688 434.535156 L 159.058594 436.90625 L 158.265625 433.082031 L 208.886719 430.84375 Z M 209.679688 434.535156 " fill-opacity="1" fill-rule="nonzero"/><path fill="#ffffff" d="M 154.707031 437.039062 L 151.015625 437.300781 L 150.222656 433.480469 L 153.914062 433.347656 Z M 154.707031 437.039062 " fill-opacity="1" fill-rule="nonzero"/><path fill="#ffffff" d="M 202.5625 399.335938 L 151.9375 401.179688 L 151.148438 397.355469 L 201.769531 395.644531 Z M 202.5625 399.335938 " fill-opacity="1" fill-rule="nonzero"/><path fill="#ffffff" d="M 147.589844 401.3125 L 143.898438 401.445312 L 143.105469 397.621094 L 146.796875 397.488281 Z M 147.589844 401.3125 " fill-opacity="1" fill-rule="nonzero"/><path fill="#ffffff" d="M 207.835938 425.699219 L 157.210938 427.941406 L 156.550781 424.25 L 207.175781 422.007812 Z M 207.835938 425.699219 " fill-opacity="1" fill-rule="nonzero"/><path fill="#ffffff" d="M 152.992188 428.074219 L 149.167969 428.335938 L 148.378906 424.515625 L 152.203125 424.382812 Z M 152.992188 428.074219 " fill-opacity="1" fill-rule="nonzero"/><path fill="#162667" d="M 216.269531 397.226562 C 216.535156 398.675781 215.480469 399.863281 213.898438 399.863281 C 212.316406 399.863281 210.867188 398.808594 210.46875 397.355469 C 210.207031 395.90625 211.261719 394.71875 212.84375 394.71875 C 214.558594 394.71875 216.007812 395.90625 216.269531 397.226562 Z M 216.269531 397.226562 " fill-opacity="1" fill-rule="nonzero"/><path fill="#162667" d="M 218.25 406.71875 C 218.511719 408.167969 217.457031 409.355469 215.875 409.355469 C 214.292969 409.355469 212.84375 408.300781 212.449219 406.847656 C 212.183594 405.398438 213.238281 404.210938 214.820312 404.210938 C 216.402344 404.082031 217.851562 405.265625 218.25 406.71875 Z M 218.25 406.71875 " fill-opacity="1" fill-rule="nonzero"/><path fill="#162667" d="M 220.09375 416.078125 C 220.359375 417.527344 219.304688 418.714844 217.722656 418.714844 C 216.140625 418.714844 214.6875 417.660156 214.292969 416.210938 C 214.03125 414.757812 215.085938 413.574219 216.667969 413.574219 C 218.25 413.574219 219.832031 414.628906 220.09375 416.078125 Z M 220.09375 416.078125 " fill-opacity="1" fill-rule="nonzero"/><path fill="#162667" d="M 221.941406 425.4375 C 222.203125 426.886719 221.148438 428.074219 219.566406 428.207031 C 217.984375 428.335938 216.535156 427.152344 216.140625 425.699219 C 215.875 424.25 216.929688 423.0625 218.511719 422.933594 C 220.226562 422.933594 221.675781 423.988281 221.941406 425.4375 Z M 221.941406 425.4375 " fill-opacity="1" fill-rule="nonzero"/><path fill="#162667" d="M 223.917969 434.929688 C 224.179688 436.378906 223.125 437.566406 221.542969 437.699219 C 219.960938 437.828125 218.511719 436.644531 218.117188 435.191406 C 217.851562 433.742188 218.90625 432.554688 220.488281 432.425781 C 222.070312 432.292969 223.652344 433.480469 223.917969 434.929688 Z M 223.917969 434.929688 " fill-opacity="1" fill-rule="nonzero"/><path fill="#d87791" d="M 450.136719 513.371094 L 407.820312 518.511719 L 407.425781 488.320312 C 407.425781 488.320312 387.519531 493.859375 385.539062 480.9375 C 383.5625 468.019531 385.671875 461.691406 385.671875 461.691406 C 385.671875 461.691406 380.664062 462.085938 378.949219 460.898438 C 377.628906 460.109375 383.695312 446.53125 387.121094 436.511719 C 388.441406 432.953125 389.363281 429.789062 389.496094 427.808594 C 389.496094 427.808594 398.328125 413.835938 413.75 415.550781 C 418.496094 416.078125 424.035156 418.1875 429.964844 422.667969 C 455.144531 441.785156 446.445312 473.820312 445.257812 483.3125 C 443.675781 492.804688 450.136719 513.371094 450.136719 513.371094 Z M 450.136719 513.371094 " fill-opacity="1" fill-rule="nonzero"/><path fill="#162667" d="M 401.359375 512.050781 L 407.6875 501.242188 L 446.972656 497.550781 C 446.972656 497.550781 456.199219 511.523438 454.355469 511.523438 C 452.640625 511.523438 401.359375 512.050781 401.359375 512.050781 Z M 401.359375 512.050781 " fill-opacity="1" fill-rule="nonzero"/><path fill="#162667" d="M 415.332031 453.78125 C 415.332031 453.78125 418.761719 436.90625 411.113281 433.875 C 403.46875 430.710938 395.03125 432.554688 389.363281 427.808594 C 381.191406 420.953125 382.246094 410.144531 384.484375 405.265625 C 387.519531 398.542969 394.503906 394.589844 401.625 393.664062 C 407.554688 392.875 413.355469 394.457031 418.761719 396.699219 C 420.738281 397.488281 422.585938 398.675781 424.5625 399.597656 C 426.671875 400.519531 428.910156 401.046875 431.019531 401.707031 C 442.226562 405.664062 455.144531 413.046875 455.9375 426.359375 C 456.726562 440.464844 455.277344 470.390625 444.46875 486.082031 C 444.46875 486.082031 438.140625 489.246094 434.710938 478.828125 C 431.285156 468.414062 438.273438 446.398438 430.230469 442.3125 C 422.320312 438.09375 428.648438 461.953125 415.332031 453.78125 Z M 415.332031 453.78125 " fill-opacity="1" fill-rule="nonzero"/><g clip-path="url(#2891e58686)"><path fill="#6f52eb" d="M 491.398438 655.617188 L 421.53125 655.878906 L 410.851562 655.878906 L 362.734375 656.144531 C 372.882812 639.796875 372.882812 617.253906 370.511719 596.554688 C 370.511719 596.292969 370.378906 595.898438 370.378906 595.632812 C 367.875 574.804688 362.996094 555.820312 363.921875 546.988281 C 365.371094 532.75 377.761719 522.597656 389.097656 516.269531 C 394.109375 513.5 398.855469 511.390625 402.414062 510.074219 C 404.917969 509.019531 406.898438 508.492188 407.6875 508.226562 C 407.953125 508.097656 408.082031 508.097656 408.082031 508.097656 L 447.894531 505.0625 L 448.027344 505.0625 C 449.609375 505.460938 451.191406 505.855469 452.640625 506.382812 C 478.480469 514.554688 489.949219 529.71875 495.222656 549.359375 C 496.011719 552.128906 496.671875 555.160156 497.066406 558.0625 C 499.703125 573.222656 499.703125 590.492188 500.230469 608.949219 C 500.628906 624.109375 496.804688 640.324219 491.398438 655.617188 Z M 491.398438 655.617188 " fill-opacity="1" fill-rule="nonzero"/></g><path fill="#d87791" d="M 220.226562 585.351562 C 219.699219 585.351562 196.890625 586.40625 190.695312 589.042969 C 184.5 591.679688 178.832031 598.136719 181.203125 598.402344 C 183.578125 598.796875 196.363281 602.753906 203.21875 601.566406 C 210.074219 600.378906 215.742188 603.675781 216.140625 603.542969 C 216.535156 603.410156 220.753906 585.085938 220.753906 585.085938 Z M 220.226562 585.351562 " fill-opacity="1" fill-rule="nonzero"/><path fill="#6f52eb" d="M 395.164062 514.160156 L 371.828125 595.105469 C 371.828125 595.105469 323.449219 617.648438 306.96875 621.867188 C 301.695312 623.1875 291.414062 622.660156 279.550781 621.207031 C 254.105469 618.042969 221.542969 610.265625 216.667969 606.839844 C 212.449219 603.675781 212.710938 596.160156 215.085938 590.226562 C 216.535156 586.273438 218.90625 583.109375 221.414062 582.316406 C 227.476562 580.472656 290.492188 585.613281 293.785156 585.085938 C 297.082031 584.558594 326.746094 561.09375 343.617188 543.691406 C 360.492188 526.421875 395.164062 514.160156 395.164062 514.160156 Z M 395.164062 514.160156 " fill-opacity="1" fill-rule="nonzero"/><path fill="#162667" d="M 530.15625 560.433594 C 530.15625 560.433594 525.9375 560.433594 525.9375 560.300781 C 525.9375 560.300781 524.355469 559.644531 522.773438 558.984375 L 501.683594 655.484375 L 491.398438 655.484375 L 421.53125 655.75 L 410.851562 655.75 L 432.867188 554.5 C 433.527344 551.46875 436.292969 549.226562 439.328125 549.226562 L 516.445312 549.226562 C 518.292969 549.226562 520.007812 550.019531 521.191406 551.207031 L 529.894531 559.90625 C 529.894531 560.300781 530.027344 560.300781 530.15625 560.433594 Z M 530.15625 560.433594 " fill-opacity="1" fill-rule="nonzero"/><path fill="#6f52eb" d="M 531.738281 566.367188 L 512.359375 655.484375 L 491.398438 655.484375 L 421.53125 655.75 L 441.699219 563.335938 C 442.359375 560.300781 445.128906 558.0625 448.160156 558.0625 L 525.28125 558.0625 C 527.125 558.0625 528.707031 558.71875 529.894531 559.90625 C 530.027344 560.039062 530.15625 560.039062 530.15625 560.171875 C 531.476562 562.015625 532.265625 564.125 531.738281 566.367188 Z M 531.738281 566.367188 " fill-opacity="1" fill-rule="nonzero"/></svg>