<?xml version="1.0" encoding="UTF-8" standalone="no"?><svg xmlns="http://www.w3.org/2000/svg" xmlns:xlink="http://www.w3.org/1999/xlink" width="1080" zoomAndPan="magnify" viewBox="0 0 810 809.999993" height="1080" preserveAspectRatio="xMidYMid meet" version="1.0"><path fill="#ffffff" d="M 756 783 L 54 783 C 39.128906 783 27 770.871094 27 756 L 27 135 L 783 135 L 783 756 C 783 770.871094 770.871094 783 756 783 Z M 54 27 L 756 27 C 770.871094 27 783 39.128906 783 54 L 783 108 L 27 108 L 27 54 C 27 39.128906 39.128906 27 54 27 Z M 756 0 L 54 0 C 24.207031 0 0 24.207031 0 54 L 0 756 C 0 785.792969 24.207031 810 54 810 L 756 810 C 785.792969 810 810 785.792969 810 756 L 810 54 C 810 24.207031 785.792969 0 756 0 " fill-opacity="1" fill-rule="nonzero"/><path fill="#ffffff" d="M 689.289062 355.378906 L 630.703125 405.527344 C 628.59375 407.320312 625.851562 408.164062 623.160156 407.953125 C 620.472656 407.691406 618.097656 406.371094 616.410156 404.261719 L 591.046875 372.515625 C 587.460938 368.085938 581.449219 366.347656 576.015625 368.246094 C 570.636719 370.144531 567 375.207031 567 380.953125 L 567 702 C 567 709.433594 560.933594 715.5 553.5 715.5 L 256.5 715.5 C 249.0625 715.5 243 709.433594 243 702 L 243 380.953125 C 243 375.207031 239.359375 370.144531 233.980469 368.246094 C 232.503906 367.714844 230.976562 367.453125 229.5 367.453125 C 225.492188 367.453125 221.535156 369.246094 218.953125 372.515625 L 193.535156 404.316406 C 191.898438 406.371094 189.527344 407.691406 186.835938 407.953125 C 184.09375 408.164062 181.40625 407.320312 179.296875 405.527344 L 120.707031 355.378906 C 116.59375 351.792969 116.066406 345.515625 119.546875 341.296875 L 219.425781 218.902344 C 221.800781 216.160156 225.015625 214.3125 228.339844 213.890625 L 310.867188 203.609375 C 316.878906 253.917969 351.210938 283.554688 405 283.554688 C 458.789062 283.554688 493.117188 253.917969 499.128906 203.609375 L 581.5 213.839844 C 584.980469 214.3125 588.199219 216.160156 590.414062 218.742188 L 690.503906 341.347656 C 693.929688 345.515625 693.351562 351.792969 689.289062 355.378906 Z M 471.285156 207.511719 C 466.222656 232.824219 449.613281 256.554688 405 256.554688 C 360.386719 256.554688 343.773438 232.824219 338.710938 207.5625 C 358.804688 213.046875 380.953125 216 405 216 C 428.992188 216 451.140625 213.046875 471.285156 207.511719 Z M 611.191406 201.5 C 604.546875 193.589844 595.265625 188.472656 584.980469 187.050781 L 494.648438 175.871094 C 488.371094 175.078125 481.726562 175.871094 475.820312 178.03125 C 455.308594 185.308594 431.472656 189 405 189 C 378.527344 189 354.691406 185.308594 334.335938 178.085938 C 328.324219 175.871094 321.785156 175.078125 315.296875 175.871094 L 224.804688 187.101562 C 214.734375 188.472656 205.453125 193.589844 198.648438 201.65625 L 98.664062 324.210938 C 85.957031 339.609375 87.960938 362.761719 103.148438 375.839844 L 161.734375 426.042969 C 169.488281 432.683594 179.296875 435.796875 189.472656 434.792969 C 199.492188 433.847656 208.457031 428.996094 214.679688 421.136719 L 216 419.449219 L 216 702 C 216 724.359375 234.140625 742.5 256.5 742.5 L 553.5 742.5 C 575.859375 742.5 594 724.359375 594 702 L 594 419.449219 L 595.316406 421.082031 C 601.539062 428.996094 610.503906 433.847656 620.523438 434.792969 C 630.703125 435.796875 640.511719 432.683594 648.261719 426.042969 L 706.851562 375.839844 C 706.851562 375.839844 706.902344 375.839844 706.902344 375.839844 C 722.039062 362.761719 724.042969 339.609375 711.386719 324.265625 L 611.191406 201.5 " fill-opacity="1" fill-rule="nonzero"/><path fill="#ffffff" d="M 67.5 81 L 81 81 C 88.433594 81 94.5 74.9375 94.5 67.5 C 94.5 60.066406 88.433594 54 81 54 L 67.5 54 C 60.066406 54 54 60.066406 54 67.5 C 54 74.9375 60.066406 81 67.5 81 " fill-opacity="1" fill-rule="nonzero"/><path fill="#ffffff" d="M 135 81 L 148.5 81 C 155.933594 81 162 74.9375 162 67.5 C 162 60.066406 155.933594 54 148.5 54 L 135 54 C 127.5625 54 121.5 60.066406 121.5 67.5 C 121.5 74.9375 127.5625 81 135 81 " fill-opacity="1" fill-rule="nonzero"/><path fill="#ffffff" d="M 202.5 81 L 216 81 C 223.433594 81 229.5 74.9375 229.5 67.5 C 229.5 60.066406 223.433594 54 216 54 L 202.5 54 C 195.0625 54 189 60.066406 189 67.5 C 189 74.9375 195.0625 81 202.5 81 " fill-opacity="1" fill-rule="nonzero"/><path fill="#ffffff" d="M 661.5 81 L 742.5 81 C 749.933594 81 756 74.9375 756 67.5 C 756 60.066406 749.933594 54 742.5 54 L 661.5 54 C 654.0625 54 648 60.066406 648 67.5 C 648 74.9375 654.0625 81 661.5 81 " fill-opacity="1" fill-rule="nonzero"/><path fill="#ffffff" d="M 283.5 391.5 C 290.933594 391.5 297 385.433594 297 378 L 297 351 L 324 351 C 331.433594 351 337.5 344.933594 337.5 337.5 C 337.5 330.066406 331.433594 324 324 324 L 297 324 C 282.128906 324 270 336.128906 270 351 L 270 378 C 270 385.433594 276.0625 391.5 283.5 391.5 " fill-opacity="1" fill-rule="nonzero"/><path fill="#ffffff" d="M 513 324 L 486 324 C 478.5625 324 472.5 330.066406 472.5 337.5 C 472.5 344.933594 478.5625 351 486 351 L 513 351 L 513 378 C 513 385.433594 519.0625 391.5 526.5 391.5 C 533.933594 391.5 540 385.433594 540 378 L 540 351 C 540 336.128906 527.871094 324 513 324 " fill-opacity="1" fill-rule="nonzero"/><path fill="#ffffff" d="M 526.5 607.5 C 519.0625 607.5 513 613.5625 513 621 L 513 648 L 486 648 C 478.5625 648 472.5 654.0625 472.5 661.5 C 472.5 668.933594 478.5625 675 486 675 L 513 675 C 527.871094 675 540 662.871094 540 648 L 540 621 C 540 613.5625 533.933594 607.5 526.5 607.5 " fill-opacity="1" fill-rule="nonzero"/><path fill="#ffffff" d="M 324 648 L 297 648 L 297 621 C 297 613.5625 290.933594 607.5 283.5 607.5 C 276.0625 607.5 270 613.5625 270 621 L 270 648 C 270 662.871094 282.128906 675 297 675 L 324 675 C 331.433594 675 337.5 668.933594 337.5 661.5 C 337.5 654.0625 331.433594 648 324 648 " fill-opacity="1" fill-rule="nonzero"/><path fill="#ffffff" d="M 351 476.980469 L 376.734375 536.042969 L 369.140625 553.5 L 317.617188 553.5 Z M 405 411.75 C 405 400.570312 414.070312 391.5 425.25 391.5 C 436.429688 391.5 445.5 400.570312 445.5 411.75 C 445.5 414.121094 445.078125 416.441406 444.234375 418.710938 C 435.164062 419.082031 427.359375 423.984375 422.769531 431.738281 C 412.804688 430.523438 405 422.085938 405 411.75 Z M 492.378906 553.5 L 398.566406 553.5 L 445.289062 445.449219 Z M 526.5 553.5 L 521.859375 553.5 L 470.019531 434.691406 C 469.492188 433.425781 468.703125 432.472656 468.015625 431.417969 C 470.863281 425.25 472.5 418.605469 472.5 411.75 C 472.5 385.699219 451.300781 364.5 425.25 364.5 C 399.199219 364.5 378 385.699219 378 411.75 C 378 432.949219 392.132812 450.722656 411.378906 456.679688 L 391.5 502.292969 L 373.09375 460.105469 C 369.140625 451.089844 360.703125 445.5 351 445.5 C 341.296875 445.5 332.859375 451.089844 328.902344 460.105469 L 288.140625 553.5 L 283.5 553.5 C 276.0625 553.5 270 559.5625 270 567 C 270 574.433594 276.0625 580.5 283.5 580.5 L 526.5 580.5 C 533.933594 580.5 540 574.433594 540 567 C 540 559.5625 533.933594 553.5 526.5 553.5 " fill-opacity="1" fill-rule="nonzero"/></svg>