<?xml version="1.0" encoding="UTF-8" standalone="no"?><svg xmlns="http://www.w3.org/2000/svg" xmlns:xlink="http://www.w3.org/1999/xlink" width="1080" zoomAndPan="magnify" viewBox="0 0 810 809.999993" height="1080" preserveAspectRatio="xMidYMid meet" version="1.0"><path fill="#ffffff" d="M 220.175781 463.152344 C 220.433594 464.191406 220.589844 465.242188 220.648438 466.304688 C 220.707031 467.371094 220.664062 468.433594 220.519531 469.492188 C 220.378906 470.546875 220.136719 471.582031 219.792969 472.59375 C 219.453125 473.605469 219.023438 474.578125 218.496094 475.507812 C 217.972656 476.433594 217.363281 477.308594 216.671875 478.121094 C 215.984375 478.933594 215.222656 479.675781 214.390625 480.34375 C 213.558594 481.015625 212.671875 481.597656 211.730469 482.101562 C 210.785156 482.601562 209.804688 483.007812 208.785156 483.320312 L 92.628906 526.171875 C 91.59375 526.449219 90.539062 526.625 89.464844 526.695312 C 88.394531 526.769531 87.324219 526.734375 86.261719 526.597656 C 85.195312 526.460938 84.152344 526.226562 83.132812 525.886719 C 82.113281 525.546875 81.136719 525.109375 80.203125 524.578125 C 79.269531 524.050781 78.394531 523.433594 77.578125 522.734375 C 76.765625 522.03125 76.027344 521.261719 75.363281 520.414062 C 74.699219 519.570312 74.125 518.667969 73.636719 517.710938 C 73.148438 516.753906 72.757812 515.761719 72.460938 514.726562 C 72.203125 513.6875 72.046875 512.636719 71.988281 511.566406 C 71.933594 510.5 71.976562 509.433594 72.121094 508.375 C 72.269531 507.316406 72.511719 506.277344 72.855469 505.265625 C 73.199219 504.253906 73.632812 503.28125 74.164062 502.351562 C 74.691406 501.421875 75.300781 500.546875 75.996094 499.734375 C 76.691406 498.921875 77.453125 498.179688 78.289062 497.511719 C 79.125 496.84375 80.015625 496.261719 80.964844 495.761719 C 81.910156 495.261719 82.894531 494.859375 83.917969 494.546875 L 200.007812 451.699219 C 201.046875 451.421875 202.101562 451.246094 203.171875 451.175781 C 204.246094 451.101562 205.316406 451.136719 206.378906 451.273438 C 207.445312 451.410156 208.488281 451.648438 209.507812 451.988281 C 210.527344 452.328125 211.503906 452.761719 212.4375 453.292969 C 213.371094 453.824219 214.246094 454.441406 215.0625 455.140625 C 215.875 455.84375 216.613281 456.617188 217.277344 457.460938 C 217.941406 458.308594 218.515625 459.210938 219.003906 460.167969 C 219.492188 461.125 219.882812 462.121094 220.175781 463.152344 Z M 87.035156 209.683594 L 203.132812 166.832031 C 204.15625 166.519531 205.140625 166.117188 206.085938 165.617188 C 207.03125 165.121094 207.921875 164.535156 208.757812 163.871094 C 209.59375 163.203125 210.355469 162.460938 211.050781 161.648438 C 211.746094 160.832031 212.355469 159.960938 212.882812 159.03125 C 213.410156 158.101562 213.84375 157.132812 214.1875 156.117188 C 214.53125 155.105469 214.773438 154.070312 214.921875 153.011719 C 215.066406 151.953125 215.109375 150.886719 215.050781 149.820312 C 214.996094 148.753906 214.835938 147.699219 214.578125 146.664062 C 214.285156 145.628906 213.894531 144.632812 213.40625 143.675781 C 212.921875 142.71875 212.34375 141.816406 211.679688 140.972656 C 211.019531 140.125 210.277344 139.351562 209.464844 138.652344 C 208.652344 137.949219 207.777344 137.335938 206.84375 136.804688 C 205.90625 136.273438 204.929688 135.835938 203.910156 135.496094 C 202.890625 135.15625 201.847656 134.917969 200.785156 134.78125 C 199.71875 134.644531 198.648438 134.613281 197.578125 134.683594 C 196.503906 134.753906 195.449219 134.929688 194.410156 135.207031 L 78.320312 178.058594 C 77.296875 178.371094 76.3125 178.773438 75.367188 179.273438 C 74.421875 179.773438 73.53125 180.355469 72.695312 181.023438 C 71.859375 181.691406 71.097656 182.433594 70.402344 183.246094 C 69.707031 184.058594 69.097656 184.933594 68.570312 185.863281 C 68.039062 186.792969 67.605469 187.765625 67.261719 188.777344 C 66.917969 189.789062 66.675781 190.828125 66.527344 191.886719 C 66.382812 192.945312 66.339844 194.007812 66.394531 195.078125 C 66.453125 196.144531 66.609375 197.199219 66.867188 198.238281 C 67.160156 199.269531 67.550781 200.265625 68.039062 201.222656 C 68.527344 202.179688 69.101562 203.082031 69.765625 203.925781 C 70.429688 204.769531 71.167969 205.542969 71.984375 206.242188 C 72.796875 206.945312 73.671875 207.558594 74.605469 208.089844 C 75.539062 208.621094 76.515625 209.054688 77.535156 209.394531 C 78.554688 209.734375 79.597656 209.972656 80.664062 210.109375 C 81.730469 210.246094 82.796875 210.277344 83.871094 210.207031 C 84.941406 210.132812 85.996094 209.960938 87.035156 209.683594 Z M 87.035156 301.898438 L 203.132812 259.070312 C 204.15625 258.757812 205.140625 258.355469 206.085938 257.855469 C 207.03125 257.355469 207.921875 256.773438 208.757812 256.105469 C 209.59375 255.4375 210.355469 254.699219 211.050781 253.882812 C 211.746094 253.070312 212.355469 252.199219 212.882812 251.269531 C 213.410156 250.339844 213.84375 249.367188 214.1875 248.355469 C 214.53125 247.34375 214.773438 246.308594 214.917969 245.25 C 215.066406 244.1875 215.109375 243.125 215.050781 242.058594 C 214.996094 240.992188 214.835938 239.9375 214.578125 238.902344 C 214.433594 238.382812 214.265625 237.875 214.070312 237.375 C 213.878906 236.871094 213.660156 236.382812 213.417969 235.902344 C 213.175781 235.421875 212.910156 234.957031 212.625 234.503906 C 212.335938 234.046875 212.027344 233.609375 211.699219 233.1875 C 211.367188 232.761719 211.019531 232.355469 210.648438 231.964844 C 210.277344 231.574219 209.890625 231.207031 209.484375 230.851562 C 209.078125 230.5 208.65625 230.171875 208.21875 229.859375 C 207.78125 229.546875 207.328125 229.261719 206.863281 228.992188 C 206.398438 228.726562 205.917969 228.484375 205.429688 228.261719 C 204.9375 228.042969 204.4375 227.847656 203.929688 227.675781 C 203.421875 227.503906 202.90625 227.359375 202.382812 227.238281 C 201.859375 227.117188 201.328125 227.023438 200.796875 226.953125 C 200.265625 226.882812 199.730469 226.839844 199.191406 226.820312 C 198.65625 226.804688 198.121094 226.8125 197.582031 226.847656 C 197.046875 226.882812 196.515625 226.945312 195.984375 227.03125 C 195.453125 227.117188 194.929688 227.230469 194.410156 227.367188 L 78.320312 270.21875 C 77.296875 270.53125 76.308594 270.933594 75.359375 271.433594 C 74.414062 271.933594 73.519531 272.519531 72.683594 273.1875 C 71.847656 273.859375 71.082031 274.601562 70.386719 275.417969 C 69.691406 276.234375 69.078125 277.105469 68.550781 278.039062 C 68.023438 278.972656 67.585938 279.945312 67.246094 280.960938 C 66.902344 281.976562 66.660156 283.015625 66.515625 284.078125 C 66.371094 285.140625 66.328125 286.207031 66.386719 287.277344 C 66.445312 288.347656 66.605469 289.402344 66.867188 290.441406 C 67.160156 291.476562 67.550781 292.46875 68.039062 293.425781 C 68.527344 294.382812 69.101562 295.285156 69.765625 296.128906 C 70.429688 296.976562 71.167969 297.75 71.984375 298.449219 C 72.796875 299.152344 73.671875 299.765625 74.605469 300.296875 C 75.539062 300.828125 76.515625 301.261719 77.535156 301.605469 C 78.554688 301.945312 79.597656 302.183594 80.664062 302.320312 C 81.726562 302.457031 82.796875 302.488281 83.867188 302.417969 C 84.941406 302.347656 85.996094 302.175781 87.035156 301.898438 Z M 200.039062 315.167969 L 83.917969 358.027344 C 82.894531 358.339844 81.90625 358.742188 80.960938 359.242188 C 80.011719 359.738281 79.121094 360.324219 78.285156 360.992188 C 77.449219 361.660156 76.683594 362.402344 75.988281 363.214844 C 75.292969 364.03125 74.683594 364.902344 74.152344 365.832031 C 73.625 366.765625 73.191406 367.738281 72.847656 368.75 C 72.503906 369.765625 72.261719 370.800781 72.117188 371.863281 C 71.972656 372.921875 71.929688 373.988281 71.988281 375.058594 C 72.042969 376.125 72.203125 377.179688 72.460938 378.21875 C 72.757812 379.253906 73.148438 380.25 73.632812 381.207031 C 74.121094 382.164062 74.695312 383.066406 75.359375 383.910156 C 76.023438 384.753906 76.761719 385.527344 77.578125 386.230469 C 78.390625 386.929688 79.265625 387.546875 80.199219 388.078125 C 81.132812 388.609375 82.109375 389.042969 83.128906 389.386719 C 84.148438 389.726562 85.191406 389.964844 86.257812 390.101562 C 87.324219 390.238281 88.394531 390.269531 89.464844 390.199219 C 90.539062 390.125 91.59375 389.953125 92.628906 389.675781 L 208.785156 346.792969 C 209.808594 346.480469 210.792969 346.078125 211.738281 345.578125 C 212.683594 345.078125 213.574219 344.496094 214.410156 343.828125 C 215.246094 343.160156 216.007812 342.421875 216.703125 341.605469 C 217.394531 340.792969 218.007812 339.921875 218.535156 338.992188 C 219.0625 338.0625 219.496094 337.089844 219.839844 336.078125 C 220.183594 335.066406 220.425781 334.03125 220.570312 332.972656 C 220.714844 331.910156 220.761719 330.847656 220.703125 329.78125 C 220.644531 328.714844 220.488281 327.660156 220.230469 326.625 C 220.085938 326.105469 219.914062 325.597656 219.71875 325.101562 C 219.523438 324.601562 219.300781 324.109375 219.058594 323.632812 C 218.816406 323.15625 218.550781 322.691406 218.261719 322.238281 C 217.972656 321.785156 217.660156 321.347656 217.332031 320.925781 C 217 320.503906 216.648438 320.097656 216.277344 319.710938 C 215.90625 319.324219 215.519531 318.953125 215.113281 318.605469 C 214.703125 318.253906 214.28125 317.925781 213.84375 317.613281 C 213.40625 317.304688 212.953125 317.019531 212.484375 316.753906 C 212.019531 316.488281 211.539062 316.25 211.050781 316.03125 C 210.558594 315.8125 210.058594 315.617188 209.550781 315.449219 C 209.042969 315.277344 208.527344 315.132812 208.003906 315.015625 C 207.480469 314.894531 206.953125 314.800781 206.417969 314.734375 C 205.886719 314.667969 205.351562 314.625 204.816406 314.609375 C 204.28125 314.59375 203.742188 314.601562 203.207031 314.640625 C 202.671875 314.675781 202.140625 314.738281 201.613281 314.828125 C 201.082031 314.914062 200.558594 315.027344 200.039062 315.167969 Z M 809.34375 571.417969 C 809.390625 572.738281 809.296875 574.050781 809.058594 575.351562 C 808.433594 577.472656 807.589844 579.503906 806.519531 581.441406 C 805.449219 583.378906 804.183594 585.175781 802.71875 586.835938 C 801.253906 588.492188 799.628906 589.972656 797.839844 591.277344 C 796.050781 592.578125 794.144531 593.671875 792.117188 594.558594 L 738.027344 629.449219 C 740.117188 634.640625 742.238281 639.835938 744.347656 645.027344 C 692.539062 648.75 639.585938 651.503906 585.484375 653.289062 C 573.519531 653.667969 561.601562 653.996094 549.730469 654.273438 L 520.214844 655.257812 C 514.75 655.476562 509.285156 655.585938 503.816406 655.804688 C 500.898438 655.980469 498.019531 656.417969 495.183594 657.117188 C 491.34375 657.992188 487.300781 659.195312 483.046875 660.175781 C 486.546875 669.03125 489.933594 677.777344 493.421875 686.410156 C 503.160156 711.335938 512.671875 735.492188 522.074219 759.652344 C 526.871094 771.785156 524.140625 778.34375 512.015625 783.261719 C 495.621094 790.039062 479.101562 796.488281 462.605469 802.828125 C 447.960938 808.511719 441.9375 805.78125 436.152344 791.023438 C 423.800781 759.324219 411.121094 727.730469 398.988281 695.921875 C 398.855469 695.421875 398.679688 694.933594 398.457031 694.464844 C 398.238281 693.992188 397.980469 693.546875 397.679688 693.121094 C 397.378906 692.699219 397.046875 692.304688 396.675781 691.9375 C 396.304688 691.574219 395.90625 691.246094 395.480469 690.953125 C 395.050781 690.65625 394.597656 690.40625 394.125 690.191406 C 393.652344 689.976562 393.164062 689.808594 392.660156 689.683594 C 392.15625 689.554688 391.644531 689.476562 391.128906 689.441406 C 390.609375 689.40625 390.09375 689.414062 389.574219 689.472656 C 386.964844 689.425781 384.359375 689.261719 381.761719 688.988281 C 379.164062 688.714844 376.585938 688.332031 374.019531 687.835938 C 371.457031 687.339844 368.917969 686.734375 366.40625 686.019531 C 363.894531 685.304688 361.417969 684.480469 358.976562 683.554688 C 356.535156 682.625 354.140625 681.59375 351.789062 680.457031 C 349.4375 679.320312 347.136719 678.085938 344.890625 676.753906 C 342.648438 675.417969 340.460938 673.992188 338.339844 672.46875 C 336.21875 670.945312 334.164062 669.335938 332.183594 667.636719 C 330.199219 665.9375 328.292969 664.15625 326.464844 662.292969 C 324.632812 660.425781 322.886719 658.488281 321.226562 656.472656 C 319.5625 654.460938 317.992188 652.378906 316.507812 650.226562 C 315.027344 648.078125 313.640625 645.867188 312.347656 643.597656 C 311.054688 641.328125 309.863281 639.003906 308.773438 636.632812 C 307.679688 634.261719 306.695312 631.84375 305.8125 629.386719 C 304.929688 626.929688 304.152344 624.4375 303.484375 621.914062 C 302.816406 619.386719 302.257812 616.839844 301.808594 614.265625 C 301.675781 613.726562 301.605469 613.179688 301.589844 612.625 C 299.515625 611.863281 297.546875 611.097656 295.46875 610.332031 C 292.359375 609.285156 289.1875 608.5 285.949219 607.96875 C 282.714844 607.441406 279.457031 607.175781 276.175781 607.175781 C 272.894531 607.175781 269.636719 607.441406 266.402344 607.96875 C 263.164062 608.5 259.992188 609.285156 256.882812 610.332031 C 182.550781 637.988281 108.875 667.390625 34.871094 695.921875 C 8.089844 706.199219 2.84375 702.480469 2.734375 673.621094 C 2.515625 583.769531 2.476562 493.949219 2.625 404.167969 C 2.625 315.296875 3.28125 226.320312 2.175781 137.339844 C 2.039062 136.351562 1.949219 135.359375 1.90625 134.363281 C 1.859375 133.367188 1.859375 132.367188 1.90625 131.371094 C 1.953125 130.375 2.046875 129.382812 2.183594 128.394531 C 2.320312 127.40625 2.5 126.425781 2.726562 125.457031 C 2.957031 124.484375 3.226562 123.527344 3.539062 122.578125 C 3.855469 121.632812 4.210938 120.703125 4.613281 119.789062 C 5.011719 118.875 5.453125 117.980469 5.933594 117.105469 C 6.414062 116.234375 6.9375 115.382812 7.496094 114.558594 C 8.054688 113.730469 8.648438 112.933594 9.28125 112.160156 C 9.914062 111.390625 10.582031 110.648438 11.28125 109.9375 C 11.980469 109.226562 12.710938 108.550781 13.476562 107.90625 C 14.238281 107.261719 15.027344 106.65625 15.84375 106.082031 C 16.660156 105.511719 17.503906 104.980469 18.371094 104.484375 C 19.238281 103.992188 20.125 103.535156 21.03125 103.125 C 21.941406 102.710938 22.867188 102.339844 23.808594 102.011719 C 24.75 101.683594 25.703125 101.398438 26.671875 101.15625 C 102.535156 72.515625 177.632812 41.910156 253.710938 14.035156 C 257.449219 12.8125 261.257812 11.898438 265.140625 11.292969 C 269.023438 10.6875 272.929688 10.402344 276.859375 10.429688 C 280.789062 10.457031 284.691406 10.800781 288.5625 11.460938 C 292.4375 12.121094 296.234375 13.089844 299.953125 14.363281 C 372.863281 41.144531 444.570312 70.660156 517.261719 97.878906 C 520.183594 98.867188 523.167969 99.613281 526.210938 100.117188 C 529.253906 100.617188 532.320312 100.871094 535.402344 100.871094 C 538.488281 100.871094 541.550781 100.617188 544.597656 100.117188 C 547.640625 99.613281 550.621094 98.867188 553.542969 97.878906 C 627.875 70.113281 701.550781 40.707031 775.554688 12.066406 C 803.550781 1.246094 809.015625 5.070312 809.015625 35.242188 C 809.136719 213.96875 808.808594 392.691406 809.34375 571.417969 Z M 261.921875 555.128906 C 261.804688 391.050781 261.765625 226.9375 261.800781 62.789062 C 261.800781 56.886719 261.144531 50.875 260.390625 40.925781 C 189.558594 68.472656 122.429688 95.253906 54.558594 120.394531 C 35.972656 127.171875 30.617188 136.902344 30.726562 156.25 C 31.492188 316.9375 31.152344 477.625 31.152344 638.207031 L 31.152344 663.894531 C 34.683594 664 38.183594 663.746094 41.660156 663.128906 C 110.085938 636.566406 178.1875 609.566406 246.824219 583.769531 C 262.25 577.976562 261.921875 567.589844 261.921875 555.128906 Z M 328.261719 126.375 C 328.253906 125.796875 328.28125 125.21875 328.335938 124.640625 C 328.390625 124.066406 328.480469 123.492188 328.597656 122.925781 C 328.71875 122.359375 328.871094 121.800781 329.050781 121.25 C 329.230469 120.699219 329.441406 120.160156 329.683594 119.632812 C 329.925781 119.105469 330.191406 118.59375 330.492188 118.097656 C 330.789062 117.601562 331.113281 117.121094 331.460938 116.660156 C 331.8125 116.199219 332.1875 115.757812 332.585938 115.339844 C 332.984375 114.917969 333.40625 114.519531 333.851562 114.148438 C 334.292969 113.773438 334.753906 113.425781 335.238281 113.105469 C 335.71875 112.78125 336.214844 112.488281 336.730469 112.21875 C 337.242188 111.953125 337.769531 111.714844 338.3125 111.503906 C 338.851562 111.296875 339.402344 111.117188 339.960938 110.96875 C 340.523438 110.820312 341.089844 110.703125 341.660156 110.621094 C 342.234375 110.535156 342.8125 110.480469 343.390625 110.457031 C 343.96875 110.4375 344.546875 110.445312 345.125 110.488281 C 345.703125 110.53125 346.277344 110.605469 346.847656 110.710938 C 349.3125 110.972656 351.699219 111.5625 354.007812 112.472656 C 362.324219 116.253906 405.296875 134.859375 464.410156 160.511719 C 465.375 160.589844 466.324219 160.761719 467.253906 161.019531 C 468.1875 161.277344 469.085938 161.621094 469.949219 162.054688 C 470.816406 162.484375 471.632812 162.992188 472.402344 163.578125 C 473.171875 164.164062 473.875 164.820312 474.519531 165.542969 C 475.164062 166.261719 475.734375 167.039062 476.230469 167.867188 C 476.726562 168.699219 477.136719 169.570312 477.46875 170.476562 C 477.796875 171.386719 478.039062 172.320312 478.191406 173.273438 C 478.339844 174.230469 478.402344 175.1875 478.371094 176.15625 L 478.371094 440.820312 C 488.066406 432.195312 497.738281 423.582031 507.511719 415.101562 C 511.886719 411.273438 516.257812 407.449219 520.628906 403.730469 C 520.730469 317.15625 520.617188 230.65625 520.292969 144.226562 C 519.734375 141.960938 518.925781 139.785156 517.863281 137.707031 C 516.804688 135.628906 515.519531 133.699219 514.015625 131.914062 C 512.507812 130.132812 510.816406 128.546875 508.945312 127.152344 C 507.070312 125.761719 505.0625 124.601562 502.921875 123.675781 C 450.363281 102.03125 397.128906 81.808594 344.015625 61.148438 C 327.386719 54.699219 310.675781 48.25 292.527344 41.253906 C 291.644531 48.46875 290.550781 52.621094 290.550781 56.777344 C 290.550781 224.460938 290.769531 392.035156 290.234375 559.609375 C 290.097656 560.699219 290.046875 561.796875 290.078125 562.894531 C 290.105469 563.992188 290.21875 565.082031 290.414062 566.164062 C 290.613281 567.246094 290.886719 568.304688 291.246094 569.34375 C 291.601562 570.382812 292.035156 571.390625 292.542969 572.363281 C 293.050781 573.339844 293.632812 574.269531 294.28125 575.15625 C 294.933594 576.039062 295.644531 576.871094 296.421875 577.648438 C 297.199219 578.425781 298.027344 579.140625 298.914062 579.792969 C 299.796875 580.445312 300.726562 581.027344 301.699219 581.539062 C 302.457031 576.777344 303.601562 572.113281 305.128906 567.542969 C 306.65625 562.96875 308.550781 558.554688 310.8125 554.296875 C 313.070312 550.039062 315.664062 545.996094 318.59375 542.167969 C 321.523438 538.339844 324.746094 534.78125 328.261719 531.484375 Z M 444.898438 186.921875 L 361.089844 150.960938 L 361.089844 510.8125 C 374.820312 505.25 388.417969 499.148438 402.53125 494.679688 C 410.484375 491.957031 418.089844 488.46875 425.34375 484.21875 C 432.601562 479.972656 439.363281 475.042969 445.632812 469.4375 L 445.632812 187.140625 C 445.359375 187.042969 445.105469 186.976562 444.898438 186.921875 Z M 412.882812 655.476562 C 426.875 651.542969 440.855469 646.511719 454.957031 641.484375 C 461.515625 639.1875 468.183594 636.894531 474.859375 634.707031 C 458.5625 593.386719 443.378906 554.800781 427.855469 515.449219 C 404.804688 525.175781 382.503906 533.15625 361.296875 543.652344 C 359.042969 544.84375 356.875 546.175781 354.792969 547.652344 C 352.710938 549.125 350.734375 550.726562 348.859375 552.457031 C 346.984375 554.1875 345.230469 556.03125 343.59375 557.988281 C 341.957031 559.945312 340.457031 562 339.085938 564.152344 C 337.714844 566.300781 336.492188 568.535156 335.410156 570.84375 C 334.328125 573.152344 333.402344 575.523438 332.628906 577.953125 C 331.855469 580.382812 331.238281 582.855469 330.785156 585.363281 C 330.332031 587.875 330.039062 590.402344 329.914062 592.949219 C 329.417969 600.949219 330.328125 608.78125 332.648438 616.453125 C 333.640625 619.648438 334.882812 622.746094 336.375 625.746094 C 337.011719 627.152344 337.703125 628.53125 338.453125 629.882812 C 339.199219 631.234375 340 632.550781 340.855469 633.839844 C 341.707031 635.128906 342.609375 636.378906 343.5625 637.597656 C 344.515625 638.8125 345.515625 639.988281 346.558594 641.125 C 347.605469 642.261719 348.695312 643.351562 349.828125 644.402344 C 350.960938 645.453125 352.136719 646.453125 353.347656 647.410156 C 354.5625 648.367188 355.8125 649.273438 357.097656 650.128906 C 358.382812 650.984375 359.699219 651.789062 361.050781 652.542969 C 362.398438 653.292969 363.777344 653.992188 365.179688 654.632812 C 366.585938 655.273438 368.015625 655.859375 369.464844 656.386719 C 370.917969 656.914062 372.386719 657.386719 373.875 657.796875 C 375.363281 658.207031 376.867188 658.558594 378.382812 658.847656 C 379.902344 659.140625 381.425781 659.371094 382.964844 659.539062 C 384.5 659.710938 386.039062 659.820312 387.582031 659.867188 C 389.125 659.914062 390.667969 659.898438 392.210938 659.824219 C 393.753906 659.746094 395.292969 659.609375 396.824219 659.414062 C 402.164062 658.320312 407.519531 657.007812 412.882812 655.476562 Z M 456.058594 672.203125 C 456.058594 672.09375 455.949219 671.984375 455.949219 671.875 C 455.949219 671.765625 455.730469 671.984375 455.613281 671.984375 C 444.898438 676.246094 435.507812 679.960938 425.550781 684.007812 C 437.367188 713.738281 448.734375 742.707031 460.421875 772.332031 C 471.132812 767.957031 480.765625 764.023438 490.820312 759.980469 C 479.015625 730.355469 467.746094 701.605469 456.058594 672.203125 Z M 702.765625 619.796875 L 698.511719 608.976562 C 677.085938 554.867188 656.101562 501.304688 635.003906 447.851562 C 630.730469 436.917969 626.367188 425.988281 622.09375 415.054688 C 616.191406 400.191406 610.289062 385.214844 604.382812 370.238281 C 602.644531 371.441406 601.226562 372.316406 599.914062 373.410156 C 584.050781 387.292969 568.164062 401.175781 552.253906 415.058594 C 551.476562 415.710938 550.601562 416.476562 549.847656 417.132812 C 540.109375 425.660156 530.5 434.1875 520.664062 442.710938 C 518.683594 444.460938 516.726562 446.101562 514.761719 447.851562 C 501.335938 459.554688 487.914062 471.214844 474.488281 482.828125 C 474.195312 483.210938 473.921875 483.617188 473.59375 483.921875 C 472.628906 484.929688 471.539062 485.769531 470.3125 486.4375 C 466.324219 489.890625 462.355469 493.378906 458.367188 496.820312 C 453.457031 501.085938 455.085938 504.472656 456.738281 508.738281 C 471.058594 545.136719 485.59375 581.539062 499.578125 618.046875 C 499.730469 618.726562 499.945312 619.382812 500.226562 620.015625 C 500.503906 620.652344 500.84375 621.253906 501.238281 621.824219 C 501.632812 622.394531 502.082031 622.921875 502.578125 623.40625 C 503.078125 623.886719 503.617188 624.320312 504.199219 624.699219 C 504.78125 625.078125 505.390625 625.398438 506.035156 625.660156 C 506.679688 625.917969 507.339844 626.117188 508.023438 626.25 C 508.703125 626.382812 509.390625 626.449219 510.085938 626.445312 C 510.777344 626.445312 511.464844 626.378906 512.148438 626.246094 L 520.34375 625.917969 L 549.75 624.933594 C 582.007812 623.734375 614.355469 622.75 646.710938 621.765625 L 667.261719 621.109375 C 678.726562 620.824219 690.414062 620.277344 702.765625 619.796875 Z M 780.179688 560.835938 C 780.683594 557.441406 780.933594 554.03125 780.933594 550.601562 C 779.9375 390.898438 780.375 231.085938 780.375 71.269531 L 780.375 40.378906 C 708.667969 68.253906 641.550781 95.035156 573.777344 120.175781 C 572.8125 120.390625 571.859375 120.648438 570.921875 120.949219 C 569.980469 121.25 569.054688 121.59375 568.148438 121.984375 C 567.238281 122.371094 566.351562 122.800781 565.484375 123.273438 C 564.617188 123.742188 563.773438 124.253906 562.953125 124.804688 C 562.132812 125.355469 561.339844 125.945312 560.574219 126.566406 C 559.8125 127.191406 559.078125 127.851562 558.375 128.546875 C 557.671875 129.238281 557.003906 129.964844 556.367188 130.71875 C 555.734375 131.476562 555.132812 132.261719 554.574219 133.074219 C 554.011719 133.886719 553.488281 134.722656 553.003906 135.582031 C 552.523438 136.445312 552.082031 137.324219 551.679688 138.230469 C 551.28125 139.132812 550.921875 140.050781 550.609375 140.988281 C 550.292969 141.921875 550.023438 142.871094 549.796875 143.832031 C 549.574219 144.792969 549.390625 145.765625 549.257812 146.742188 C 549.125 147.722656 549.035156 148.703125 548.992188 149.691406 C 548.949219 150.675781 548.953125 151.664062 549.003906 152.648438 C 549.054688 153.636719 549.148438 154.617188 549.292969 155.59375 C 549.71875 229.925781 549.839844 304.039062 549.839844 378.371094 L 616.738281 321.070312 C 629.058594 352.40625 641.375 383.742188 653.683594 415.078125 C 658.054688 426.007812 662.320312 436.941406 666.582031 447.871094 C 686.300781 498.023438 706.039062 548.179688 725.785156 598.339844 L 780.800781 562.835938 C 780.628906 562.191406 780.355469 561.546875 780.179688 560.878906 Z M 718.800781 135.207031 L 602.710938 178.058594 C 601.6875 178.367188 600.703125 178.773438 599.757812 179.269531 C 598.808594 179.769531 597.917969 180.351562 597.082031 181.019531 C 596.25 181.6875 595.484375 182.429688 594.789062 183.242188 C 594.09375 184.058594 593.484375 184.929688 592.957031 185.859375 C 592.425781 186.789062 591.992188 187.761719 591.648438 188.777344 C 591.304688 189.789062 591.0625 190.824219 590.917969 191.886719 C 590.769531 192.945312 590.726562 194.007812 590.785156 195.078125 C 590.839844 196.144531 591 197.199219 591.257812 198.238281 C 591.550781 199.269531 591.941406 200.265625 592.429688 201.222656 C 592.917969 202.179688 593.492188 203.082031 594.15625 203.925781 C 594.820312 204.769531 595.558594 205.542969 596.375 206.242188 C 597.1875 206.945312 598.0625 207.558594 598.996094 208.089844 C 599.929688 208.621094 600.90625 209.054688 601.925781 209.394531 C 602.945312 209.734375 603.988281 209.972656 605.054688 210.109375 C 606.121094 210.246094 607.1875 210.277344 608.261719 210.207031 C 609.332031 210.132812 610.386719 209.960938 611.425781 209.683594 L 727.511719 166.832031 C 728.535156 166.519531 729.519531 166.117188 730.464844 165.617188 C 731.410156 165.117188 732.300781 164.535156 733.132812 163.867188 C 733.96875 163.199219 734.730469 162.457031 735.425781 161.644531 C 736.117188 160.832031 736.726562 159.960938 737.253906 159.03125 C 737.78125 158.101562 738.21875 157.128906 738.558594 156.117188 C 738.902344 155.105469 739.144531 154.066406 739.289062 153.007812 C 739.433594 151.949219 739.476562 150.886719 739.421875 149.820312 C 739.363281 148.753906 739.207031 147.699219 738.949219 146.664062 C 738.652344 145.632812 738.265625 144.636719 737.777344 143.679688 C 737.289062 142.722656 736.714844 141.824219 736.050781 140.976562 C 735.390625 140.132812 734.652344 139.359375 733.839844 138.660156 C 733.023438 137.960938 732.152344 137.34375 731.21875 136.8125 C 730.285156 136.28125 729.308594 135.847656 728.292969 135.507812 C 727.273438 135.164062 726.234375 134.925781 725.167969 134.789062 C 724.101562 134.652344 723.035156 134.617188 721.964844 134.6875 C 720.894531 134.757812 719.839844 134.933594 718.800781 135.207031 Z M 718.800781 135.207031 " fill-opacity="1" fill-rule="nonzero"/></svg>