<?xml version="1.0" encoding="UTF-8" standalone="no"?><svg xmlns="http://www.w3.org/2000/svg" xmlns:xlink="http://www.w3.org/1999/xlink" width="769" zoomAndPan="magnify" viewBox="0 0 576.75 809.999993" height="1080" preserveAspectRatio="xMidYMid meet" version="1.0"><defs><clipPath id="07941d0925"><path d="M 0 116.75 L 576.5 116.75 L 576.5 693.25 L 0 693.25 Z M 0 116.75 " clip-rule="nonzero"/></clipPath></defs><path fill="#dce9eb" d="M 566.890625 203.226562 L 566.890625 654.816406 C 566.890625 670.769531 554.019531 683.640625 538.066406 683.640625 L 38.433594 683.640625 C 22.480469 683.640625 9.609375 670.769531 9.609375 654.816406 L 9.609375 203.226562 L 19.214844 193.617188 L 557.285156 193.617188 L 566.890625 203.226562 " fill-opacity="1" fill-rule="nonzero"/><path fill="#405f76" d="M 566.890625 155.183594 L 566.890625 203.226562 L 9.609375 203.226562 L 9.609375 155.183594 C 9.609375 139.230469 22.480469 126.359375 38.433594 126.359375 L 538.066406 126.359375 C 554.019531 126.359375 566.890625 139.230469 566.890625 155.183594 " fill-opacity="1" fill-rule="nonzero"/><path fill="#405f76" d="M 496.855469 376.964844 L 455.15625 412.695312 C 447.949219 418.847656 437.066406 417.875 431.210938 410.480469 L 413.160156 387.886719 L 413.160156 616.382812 C 413.160156 627.042969 404.488281 635.601562 393.941406 635.601562 L 182.558594 635.601562 C 172.011719 635.601562 163.339844 627.042969 163.339844 616.382812 L 163.339844 387.886719 L 145.289062 410.480469 C 139.433594 417.875 128.550781 418.847656 121.34375 412.695312 L 79.644531 376.964844 C 72.738281 370.996094 71.875 360.597656 77.65625 353.617188 L 148.816406 266.355469 C 152.007812 262.601562 156.4375 260.085938 161.316406 259.410156 L 225.609375 251.453125 C 227.148438 251.265625 228.6875 251.265625 230.113281 251.566406 C 240.207031 270.484375 288.25 270.484375 288.25 270.484375 C 288.25 270.484375 336.292969 270.484375 346.386719 251.566406 C 347.8125 251.265625 349.351562 251.265625 350.890625 251.453125 L 415.183594 259.410156 C 420.0625 260.085938 424.492188 262.601562 427.683594 266.355469 L 498.84375 353.617188 C 504.625 360.597656 503.761719 370.996094 496.855469 376.964844 " fill-opacity="1" fill-rule="nonzero"/><path fill="#325164" d="M 346.386719 251.566406 C 346.085938 270.296875 339.183594 308.917969 288.25 308.917969 C 237.316406 308.917969 230.414062 270.296875 230.113281 251.566406 C 231.652344 251.640625 233.191406 252.054688 234.617188 252.503906 C 242.234375 255.207031 259.988281 260.875 288.25 260.875 C 316.511719 260.875 334.265625 255.207031 341.882812 252.503906 C 343.308594 252.054688 344.847656 251.640625 346.386719 251.566406 " fill-opacity="1" fill-rule="nonzero"/><path fill="#4cbf64" d="M 211.382812 520.300781 L 242.910156 448.050781 C 245.574219 441.894531 254.058594 441.894531 256.722656 448.050781 L 278.640625 498.304688 L 278.640625 520.300781 L 211.382812 520.300781 " fill-opacity="1" fill-rule="nonzero"/><path fill="#ecc53a" d="M 321.089844 425.15625 C 324.582031 421.027344 326.683594 415.660156 326.683594 409.804688 C 326.683594 396.554688 315.910156 385.785156 302.664062 385.785156 C 289.414062 385.785156 278.640625 396.554688 278.640625 409.804688 C 278.640625 423.054688 289.414062 433.824219 302.664062 433.824219 C 304.125 433.824219 305.550781 433.710938 306.902344 433.449219 L 321.089844 425.15625 " fill-opacity="1" fill-rule="nonzero"/><path fill="#60c56e" d="M 269.035156 520.300781 L 308.40625 429.960938 C 311.746094 422.300781 322.40625 422.300781 325.746094 429.960938 L 365.117188 520.300781 L 269.035156 520.300781 " fill-opacity="1" fill-rule="nonzero"/><path fill="#2b2c2d" d="M 137.746094 404.511719 C 136.582031 405.976562 134.890625 406.914062 132.976562 407.101562 C 131.027344 407.25 129.113281 406.652344 127.609375 405.375 L 85.910156 369.683594 C 82.984375 367.128906 82.609375 362.664062 85.085938 359.660156 L 156.171875 272.546875 C 157.863281 270.597656 160.152344 269.28125 162.515625 268.980469 L 221.253906 261.664062 C 225.53125 297.46875 249.96875 318.5625 288.25 318.5625 C 326.535156 318.5625 350.96875 297.46875 355.246094 261.664062 L 413.871094 268.945312 C 416.347656 269.28125 418.636719 270.597656 420.214844 272.433594 L 491.453125 359.699219 C 493.890625 362.664062 493.476562 367.128906 490.589844 369.683594 L 448.890625 405.375 C 447.386719 406.652344 445.4375 407.25 443.523438 407.101562 C 441.609375 406.914062 439.917969 405.976562 438.71875 404.472656 L 420.664062 381.878906 C 418.113281 378.726562 413.832031 377.488281 409.96875 378.839844 C 406.140625 380.191406 403.550781 383.792969 403.550781 387.886719 L 403.550781 616.382812 C 403.550781 621.675781 399.234375 625.992188 393.941406 625.992188 L 182.558594 625.992188 C 177.265625 625.992188 172.949219 621.675781 172.949219 616.382812 L 172.949219 387.886719 C 172.949219 383.792969 170.359375 380.191406 166.53125 378.839844 C 165.480469 378.464844 164.394531 378.277344 163.339844 378.277344 C 160.488281 378.277344 157.675781 379.554688 155.835938 381.878906 Z M 335.429688 264.441406 C 331.824219 282.457031 320.003906 299.347656 288.25 299.347656 C 256.496094 299.347656 244.675781 282.457031 241.070312 264.476562 C 255.371094 268.382812 271.136719 270.484375 288.25 270.484375 C 305.328125 270.484375 321.089844 268.382812 335.429688 264.441406 Z M 182.558594 645.207031 L 393.941406 645.207031 C 409.855469 645.207031 422.765625 632.296875 422.765625 616.382812 L 422.765625 415.285156 L 423.703125 416.449219 C 428.132812 422.078125 434.515625 425.53125 441.644531 426.207031 C 448.890625 426.917969 455.871094 424.703125 461.386719 419.976562 L 503.085938 384.246094 C 503.085938 384.246094 503.125 384.246094 503.125 384.246094 C 513.894531 374.9375 515.320312 358.460938 506.3125 347.539062 L 435.003906 260.160156 C 430.273438 254.53125 423.667969 250.890625 416.347656 249.878906 L 352.054688 241.921875 C 347.589844 241.359375 342.859375 241.921875 338.65625 243.460938 C 324.054688 248.640625 307.089844 251.265625 288.25 251.265625 C 269.410156 251.265625 252.445312 248.640625 237.957031 243.496094 C 233.675781 241.921875 229.023438 241.359375 224.40625 241.921875 L 160 249.914062 C 152.832031 250.890625 146.226562 254.53125 141.386719 260.273438 L 70.222656 347.5 C 61.179688 358.460938 62.605469 374.9375 73.414062 384.246094 L 115.113281 419.976562 C 120.628906 424.703125 127.609375 426.917969 134.855469 426.207031 C 141.984375 425.53125 148.367188 422.078125 152.796875 416.484375 L 153.734375 415.285156 L 153.734375 616.382812 C 153.734375 632.296875 166.644531 645.207031 182.558594 645.207031 " fill-opacity="1" fill-rule="nonzero"/><g clip-path="url(#07941d0925)"><path fill="#2b2c2d" d="M 19.214844 193.617188 L 19.214844 155.183594 C 19.214844 144.597656 27.847656 135.964844 38.433594 135.964844 L 538.066406 135.964844 C 548.652344 135.964844 557.285156 144.597656 557.285156 155.183594 L 557.285156 193.617188 Z M 538.066406 116.75 L 38.433594 116.75 C 17.226562 116.75 0 133.976562 0 155.183594 L 0 241.660156 C 0 246.949219 4.316406 251.265625 9.609375 251.265625 C 14.902344 251.265625 19.214844 246.949219 19.214844 241.660156 L 19.214844 212.832031 L 557.285156 212.832031 L 557.285156 654.816406 C 557.285156 665.402344 548.652344 674.035156 538.066406 674.035156 L 38.433594 674.035156 C 27.847656 674.035156 19.214844 665.402344 19.214844 654.816406 L 19.214844 280.089844 C 19.214844 274.800781 14.902344 270.484375 9.609375 270.484375 C 4.316406 270.484375 0 274.800781 0 280.089844 L 0 654.816406 C 0 676.023438 17.226562 693.25 38.433594 693.25 L 538.066406 693.25 C 559.273438 693.25 576.5 676.023438 576.5 654.816406 L 576.5 155.183594 C 576.5 133.976562 559.273438 116.75 538.066406 116.75 " fill-opacity="1" fill-rule="nonzero"/></g><path fill="#2b2c2d" d="M 57.648438 155.183594 L 48.042969 155.183594 C 42.75 155.183594 38.433594 159.5 38.433594 164.792969 C 38.433594 170.082031 42.75 174.398438 48.042969 174.398438 L 57.648438 174.398438 C 62.941406 174.398438 67.257812 170.082031 67.257812 164.792969 C 67.257812 159.5 62.941406 155.183594 57.648438 155.183594 " fill-opacity="1" fill-rule="nonzero"/><path fill="#2b2c2d" d="M 105.691406 155.183594 L 96.082031 155.183594 C 90.792969 155.183594 86.476562 159.5 86.476562 164.792969 C 86.476562 170.082031 90.792969 174.398438 96.082031 174.398438 L 105.691406 174.398438 C 110.984375 174.398438 115.300781 170.082031 115.300781 164.792969 C 115.300781 159.5 110.984375 155.183594 105.691406 155.183594 " fill-opacity="1" fill-rule="nonzero"/><path fill="#2b2c2d" d="M 153.734375 155.183594 L 144.125 155.183594 C 138.832031 155.183594 134.515625 159.5 134.515625 164.792969 C 134.515625 170.082031 138.832031 174.398438 144.125 174.398438 L 153.734375 174.398438 C 159.027344 174.398438 163.339844 170.082031 163.339844 164.792969 C 163.339844 159.5 159.027344 155.183594 153.734375 155.183594 " fill-opacity="1" fill-rule="nonzero"/><path fill="#2b2c2d" d="M 528.457031 155.183594 L 470.808594 155.183594 C 465.515625 155.183594 461.199219 159.5 461.199219 164.792969 C 461.199219 170.082031 465.515625 174.398438 470.808594 174.398438 L 528.457031 174.398438 C 533.75 174.398438 538.066406 170.082031 538.066406 164.792969 C 538.066406 159.5 533.75 155.183594 528.457031 155.183594 " fill-opacity="1" fill-rule="nonzero"/><path fill="#2b2c2d" d="M 201.773438 395.390625 C 207.066406 395.390625 211.382812 391.074219 211.382812 385.785156 L 211.382812 366.566406 L 230.601562 366.566406 C 235.890625 366.566406 240.207031 362.25 240.207031 356.957031 C 240.207031 351.667969 235.890625 347.351562 230.601562 347.351562 L 211.382812 347.351562 C 200.800781 347.351562 192.167969 355.984375 192.167969 366.566406 L 192.167969 385.785156 C 192.167969 391.074219 196.484375 395.390625 201.773438 395.390625 " fill-opacity="1" fill-rule="nonzero"/><path fill="#2b2c2d" d="M 345.898438 366.566406 L 365.117188 366.566406 L 365.117188 385.785156 C 365.117188 391.074219 369.433594 395.390625 374.726562 395.390625 C 380.015625 395.390625 384.332031 391.074219 384.332031 385.785156 L 384.332031 366.566406 C 384.332031 355.984375 375.699219 347.351562 365.117188 347.351562 L 345.898438 347.351562 C 340.609375 347.351562 336.292969 351.667969 336.292969 356.957031 C 336.292969 362.25 340.609375 366.566406 345.898438 366.566406 " fill-opacity="1" fill-rule="nonzero"/><path fill="#2b2c2d" d="M 374.726562 549.125 C 369.433594 549.125 365.117188 553.441406 365.117188 558.734375 L 365.117188 577.949219 L 345.898438 577.949219 C 340.609375 577.949219 336.292969 582.265625 336.292969 587.558594 C 336.292969 592.851562 340.609375 597.167969 345.898438 597.167969 L 365.117188 597.167969 C 375.699219 597.167969 384.332031 588.535156 384.332031 577.949219 L 384.332031 558.734375 C 384.332031 553.441406 380.015625 549.125 374.726562 549.125 " fill-opacity="1" fill-rule="nonzero"/><path fill="#2b2c2d" d="M 211.382812 597.167969 L 230.601562 597.167969 C 235.890625 597.167969 240.207031 592.851562 240.207031 587.558594 C 240.207031 582.265625 235.890625 577.949219 230.601562 577.949219 L 211.382812 577.949219 L 211.382812 558.734375 C 211.382812 553.441406 207.066406 549.125 201.773438 549.125 C 196.484375 549.125 192.167969 553.441406 192.167969 558.734375 L 192.167969 577.949219 C 192.167969 588.535156 200.800781 597.167969 211.382812 597.167969 " fill-opacity="1" fill-rule="nonzero"/><path fill="#2b2c2d" d="M 249.816406 456.230469 L 268.132812 498.269531 L 262.726562 510.691406 L 226.058594 510.691406 Z M 288.25 409.804688 C 288.25 401.847656 294.707031 395.390625 302.664062 395.390625 C 310.621094 395.390625 317.074219 401.847656 317.074219 409.804688 C 317.074219 411.492188 316.773438 413.144531 316.175781 414.757812 C 309.71875 415.019531 304.164062 418.511719 300.898438 424.027344 C 293.804688 423.164062 288.25 417.160156 288.25 409.804688 Z M 350.441406 510.691406 L 283.671875 510.691406 L 316.925781 433.789062 Z M 201.773438 529.910156 L 374.726562 529.910156 C 380.015625 529.910156 384.332031 525.59375 384.332031 520.300781 C 384.332031 515.007812 380.015625 510.691406 374.726562 510.691406 L 371.421875 510.691406 L 334.527344 426.128906 C 334.152344 425.230469 333.589844 424.554688 333.101562 423.804688 C 335.128906 419.414062 336.292969 414.683594 336.292969 409.804688 C 336.292969 391.261719 321.203125 376.175781 302.664062 376.175781 C 284.121094 376.175781 269.035156 391.261719 269.035156 409.804688 C 269.035156 424.890625 279.09375 437.539062 292.792969 441.78125 L 278.640625 474.246094 L 265.542969 444.222656 C 262.726562 437.804688 256.722656 433.824219 249.816406 433.824219 C 242.910156 433.824219 236.90625 437.804688 234.089844 444.222656 L 205.078125 510.691406 L 201.773438 510.691406 C 196.484375 510.691406 192.167969 515.007812 192.167969 520.300781 C 192.167969 525.59375 196.484375 529.910156 201.773438 529.910156 " fill-opacity="1" fill-rule="nonzero"/></svg>