<?xml version="1.0" encoding="UTF-8" standalone="no"?><svg xmlns="http://www.w3.org/2000/svg" xmlns:xlink="http://www.w3.org/1999/xlink" width="1080" zoomAndPan="magnify" viewBox="0 0 810 809.999993" height="1080" preserveAspectRatio="xMidYMid meet" version="1.0"><defs><clipPath id="b88b808f4d"><path d="M 496 616 L 745 616 L 745 793.433594 L 496 793.433594 Z M 496 616 " clip-rule="nonzero"/></clipPath><clipPath id="41b581b501"><path d="M 160 631 L 297 631 L 297 793.433594 L 160 793.433594 Z M 160 631 " clip-rule="nonzero"/></clipPath></defs><path fill="#ffffff" d="M 535.410156 94.371094 C 535.410156 98.847656 539.042969 102.480469 543.523438 102.480469 L 570.277344 102.480469 C 574.757812 102.480469 578.386719 98.847656 578.386719 94.371094 C 578.386719 89.890625 574.757812 86.261719 570.277344 86.261719 L 543.523438 86.261719 C 539.042969 86.261719 535.410156 89.890625 535.410156 94.371094 Z M 535.410156 94.371094 " fill-opacity="1" fill-rule="nonzero"/><path fill="#ffffff" d="M 540.84375 83.933594 C 542.550781 83.933594 544.273438 83.398438 545.734375 82.289062 L 567.0625 66.132812 C 570.632812 63.425781 571.332031 58.339844 568.628906 54.769531 C 565.921875 51.199219 560.835938 50.496094 557.265625 53.203125 L 535.941406 69.359375 C 532.371094 72.0625 531.667969 77.152344 534.375 80.722656 C 535.96875 82.828125 538.394531 83.933594 540.84375 83.933594 Z M 540.84375 83.933594 " fill-opacity="1" fill-rule="nonzero"/><path fill="#ffffff" d="M 567.0625 122.613281 L 545.738281 106.453125 C 542.167969 103.75 537.082031 104.449219 534.375 108.023438 C 531.671875 111.59375 532.371094 116.679688 535.941406 119.382812 L 557.269531 135.542969 C 558.734375 136.652344 560.453125 137.1875 562.160156 137.1875 C 564.609375 137.1875 567.035156 136.078125 568.628906 133.972656 C 571.332031 130.402344 570.632812 125.316406 567.0625 122.613281 Z M 567.0625 122.613281 " fill-opacity="1" fill-rule="nonzero"/><path fill="#ffffff" d="M 801.875 306.472656 L 719.039062 306.472656 C 718.5625 305.183594 718.074219 303.890625 717.585938 302.609375 L 707.519531 306.472656 L 659.6875 306.472656 C 655.207031 306.472656 651.578125 310.105469 651.578125 314.585938 L 651.578125 423.757812 C 651.578125 428.238281 655.207031 431.871094 659.6875 431.871094 L 692.46875 431.871094 L 692.46875 468.996094 C 692.46875 472.335938 694.519531 475.335938 697.632812 476.550781 C 698.589844 476.925781 699.589844 477.105469 700.578125 477.105469 C 702.800781 477.105469 704.980469 476.191406 706.546875 474.488281 L 721.308594 458.449219 C 720.914062 461.851562 720.46875 465.261719 719.972656 468.628906 L 736.015625 471 C 736.726562 466.199219 737.339844 461.316406 737.839844 456.484375 L 724.390625 455.097656 L 733.75 444.925781 L 738.804688 445.273438 C 738.949219 443.199219 739.074219 441.101562 739.179688 439.023438 L 745.765625 431.867188 L 801.878906 431.867188 C 806.355469 431.867188 809.988281 428.234375 809.988281 423.757812 L 809.988281 314.582031 C 809.984375 310.101562 806.351562 306.472656 801.875 306.472656 Z M 793.765625 415.648438 L 742.203125 415.648438 C 739.933594 415.648438 737.773438 416.597656 736.234375 418.269531 L 708.691406 448.203125 L 708.691406 423.757812 C 708.691406 419.28125 705.058594 415.648438 700.582031 415.648438 L 667.796875 415.648438 L 667.796875 322.695312 L 793.765625 322.695312 Z M 793.765625 415.648438 " fill-opacity="1" fill-rule="nonzero"/><path fill="#ffffff" d="M 684.4375 407.9375 C 688.648438 409.464844 693.300781 407.292969 694.828125 403.082031 L 698.234375 393.707031 L 717.75 393.707031 L 721.15625 403.082031 C 722.351562 406.378906 725.464844 408.429688 728.777344 408.429688 C 729.695312 408.429688 730.632812 408.269531 731.546875 407.9375 C 735.757812 406.410156 737.929688 401.757812 736.398438 397.546875 L 735.9375 396.273438 C 739.621094 403.890625 747.425781 409.15625 756.433594 409.15625 C 760.140625 409.15625 763.644531 408.265625 766.738281 406.6875 C 768.117188 407.773438 769.859375 408.425781 771.753906 408.425781 C 776.230469 408.425781 779.863281 404.792969 779.863281 400.316406 L 779.863281 343.082031 C 779.863281 338.605469 776.230469 334.972656 771.753906 334.972656 C 767.273438 334.972656 763.644531 338.605469 763.644531 343.082031 L 763.644531 364.835938 C 761.375 364.074219 758.953125 363.664062 756.433594 363.664062 C 743.890625 363.664062 733.6875 373.867188 733.6875 386.410156 C 733.6875 388.324219 733.925781 390.1875 734.375 391.964844 L 715.617188 340.316406 C 714.453125 337.109375 711.40625 334.972656 707.992188 334.972656 C 704.582031 334.972656 701.535156 337.109375 700.371094 340.316406 L 679.582031 397.546875 C 678.050781 401.757812 680.226562 406.40625 684.4375 407.9375 Z M 756.433594 379.882812 C 760.03125 379.882812 762.957031 382.808594 762.957031 386.40625 C 762.957031 390.003906 760.03125 392.933594 756.433594 392.933594 C 752.832031 392.933594 749.90625 390.003906 749.90625 386.40625 C 749.902344 382.808594 752.832031 379.882812 756.433594 379.882812 Z M 707.992188 366.84375 L 711.855469 377.484375 L 704.125 377.484375 Z M 707.992188 366.84375 " fill-opacity="1" fill-rule="nonzero"/><path fill="#ffffff" d="M 113.210938 384.757812 L 68.464844 358.921875 C 65.957031 357.472656 62.863281 357.472656 60.355469 358.921875 C 57.847656 360.371094 56.300781 363.050781 56.300781 365.945312 L 56.300781 417.613281 C 56.300781 420.511719 57.847656 423.1875 60.355469 424.636719 C 61.609375 425.363281 63.011719 425.726562 64.410156 425.726562 C 65.8125 425.726562 67.210938 425.363281 68.464844 424.636719 L 113.210938 398.804688 C 115.71875 397.355469 117.265625 394.675781 117.265625 391.78125 C 117.265625 388.882812 115.722656 386.207031 113.210938 384.757812 Z M 72.519531 403.566406 L 72.519531 379.996094 L 92.9375 391.78125 Z M 72.519531 403.566406 " fill-opacity="1" fill-rule="nonzero"/><path fill="#ffffff" d="M 124.398438 335.863281 L 138.511719 335.863281 L 138.511719 348.503906 L 124.398438 348.503906 Z M 124.398438 335.863281 " fill-opacity="1" fill-rule="nonzero"/><path fill="#ffffff" d="M 24.527344 335.863281 L 38.640625 335.863281 L 38.640625 348.503906 L 24.527344 348.503906 Z M 24.527344 335.863281 " fill-opacity="1" fill-rule="nonzero"/><path fill="#ffffff" d="M 49.496094 335.863281 L 63.609375 335.863281 L 63.609375 348.503906 L 49.496094 348.503906 Z M 49.496094 335.863281 " fill-opacity="1" fill-rule="nonzero"/><path fill="#ffffff" d="M 99.433594 335.863281 L 113.542969 335.863281 L 113.542969 348.503906 L 99.433594 348.503906 Z M 99.433594 335.863281 " fill-opacity="1" fill-rule="nonzero"/><path fill="#ffffff" d="M 74.464844 335.863281 L 88.574219 335.863281 L 88.574219 348.503906 L 74.464844 348.503906 Z M 74.464844 335.863281 " fill-opacity="1" fill-rule="nonzero"/><path fill="#ffffff" d="M 74.464844 435.925781 L 88.574219 435.925781 L 88.574219 448.566406 L 74.464844 448.566406 Z M 74.464844 435.925781 " fill-opacity="1" fill-rule="nonzero"/><path fill="#ffffff" d="M 124.398438 435.925781 L 138.511719 435.925781 L 138.511719 448.566406 L 124.398438 448.566406 Z M 124.398438 435.925781 " fill-opacity="1" fill-rule="nonzero"/><path fill="#ffffff" d="M 49.496094 435.925781 L 63.609375 435.925781 L 63.609375 448.566406 L 49.496094 448.566406 Z M 49.496094 435.925781 " fill-opacity="1" fill-rule="nonzero"/><path fill="#ffffff" d="M 99.433594 435.925781 L 113.542969 435.925781 L 113.542969 448.566406 L 99.433594 448.566406 Z M 99.433594 435.925781 " fill-opacity="1" fill-rule="nonzero"/><path fill="#ffffff" d="M 24.527344 435.925781 L 38.640625 435.925781 L 38.640625 448.566406 L 24.527344 448.566406 Z M 24.527344 435.925781 " fill-opacity="1" fill-rule="nonzero"/><path fill="#ffffff" d="M 185.496094 689.824219 C 185.496094 693.78125 188.699219 696.988281 192.65625 696.988281 L 261.1875 696.988281 C 265.140625 696.988281 268.347656 693.78125 268.347656 689.824219 C 268.347656 685.867188 265.140625 682.660156 261.1875 682.660156 L 192.65625 682.660156 C 188.699219 682.660156 185.496094 685.867188 185.496094 689.824219 Z M 185.496094 689.824219 " fill-opacity="1" fill-rule="nonzero"/><path fill="#ffffff" d="M 261.183594 706.953125 L 192.65625 706.953125 C 188.699219 706.953125 185.496094 710.160156 185.496094 714.117188 C 185.496094 718.070312 188.699219 721.277344 192.65625 721.277344 L 261.1875 721.277344 C 265.140625 721.277344 268.347656 718.070312 268.347656 714.117188 C 268.347656 710.160156 265.140625 706.953125 261.183594 706.953125 Z M 261.183594 706.953125 " fill-opacity="1" fill-rule="nonzero"/><path fill="#ffffff" d="M 261.183594 731.246094 L 192.65625 731.246094 C 188.699219 731.246094 185.496094 734.453125 185.496094 738.410156 C 185.496094 742.363281 188.699219 745.570312 192.65625 745.570312 L 261.1875 745.570312 C 265.140625 745.570312 268.347656 742.363281 268.347656 738.410156 C 268.347656 734.453125 265.140625 731.246094 261.183594 731.246094 Z M 261.183594 731.246094 " fill-opacity="1" fill-rule="nonzero"/><path fill="#ffffff" d="M 261.183594 755.535156 L 192.65625 755.535156 C 188.699219 755.535156 185.496094 758.742188 185.496094 762.699219 C 185.496094 766.65625 188.699219 769.863281 192.65625 769.863281 L 261.1875 769.863281 C 265.140625 769.863281 268.347656 766.65625 268.347656 762.699219 C 268.347656 758.742188 265.140625 755.535156 261.183594 755.535156 Z M 261.183594 755.535156 " fill-opacity="1" fill-rule="nonzero"/><g clip-path="url(#b88b808f4d)"><path fill="#ffffff" d="M 739.984375 664.480469 L 713.433594 653.039062 L 721.652344 625.324219 C 722.453125 622.621094 721.59375 619.695312 719.457031 617.855469 C 717.320312 616.019531 714.300781 615.601562 711.75 616.800781 L 669.335938 636.652344 C 667.484375 637.519531 666.089844 639.140625 665.507812 641.101562 L 656.398438 671.828125 L 644.445312 677.425781 C 641.710938 672.742188 638.488281 668.359375 634.804688 664.324219 C 635.78125 663.40625 636.75 662.484375 637.707031 661.5625 L 626.453125 649.878906 C 625.195312 651.09375 623.914062 652.304688 622.628906 653.503906 C 618.019531 650.207031 613.066406 647.425781 607.800781 645.199219 C 598.277344 641.171875 588.167969 639.128906 577.746094 639.128906 C 567.328125 639.128906 557.21875 641.171875 547.691406 645.199219 C 538.5 649.085938 530.242188 654.652344 523.152344 661.742188 C 516.066406 668.832031 510.5 677.085938 506.609375 686.28125 C 502.582031 695.804688 500.539062 705.917969 500.539062 716.335938 C 500.539062 718.984375 500.671875 721.613281 500.9375 724.21875 C 499.316406 724.722656 497.695312 725.210938 496.085938 725.683594 L 500.648438 741.246094 C 501.855469 740.894531 503.070312 740.53125 504.285156 740.160156 C 504.96875 742.261719 505.742188 744.339844 506.609375 746.390625 C 510.5 755.585938 516.066406 763.839844 523.152344 770.929688 C 530.242188 778.019531 538.5 783.582031 547.691406 787.472656 C 557.21875 791.5 567.328125 793.542969 577.746094 793.542969 C 588.167969 793.542969 598.277344 791.5 607.800781 787.472656 C 616.996094 783.582031 625.253906 778.019531 632.339844 770.929688 C 639.429688 763.839844 644.996094 755.585938 648.882812 746.390625 C 652.914062 736.867188 654.957031 726.753906 654.957031 716.335938 C 654.957031 707.40625 653.457031 698.707031 650.492188 690.40625 L 662.46875 684.800781 L 691.902344 697.484375 C 692.808594 697.875 693.773438 698.070312 694.738281 698.070312 C 695.773438 698.070312 696.8125 697.847656 697.773438 697.394531 L 740.183594 677.542969 C 742.738281 676.347656 744.351562 673.765625 744.308594 670.945312 C 744.265625 668.128906 742.574219 665.597656 739.984375 664.480469 Z M 622.210938 760.800781 C 610.335938 772.679688 594.542969 779.21875 577.746094 779.21875 C 560.949219 779.21875 545.15625 772.679688 533.28125 760.800781 C 521.402344 748.925781 514.863281 733.132812 514.863281 716.335938 C 514.863281 699.539062 521.402344 683.746094 533.28125 671.871094 C 545.15625 659.992188 560.949219 653.453125 577.746094 653.453125 C 594.542969 653.453125 610.335938 659.992188 622.210938 671.871094 C 625.769531 675.429688 628.84375 679.339844 631.410156 683.523438 L 621.078125 688.359375 C 619.117188 685.328125 616.824219 682.484375 614.210938 679.871094 C 604.472656 670.132812 591.519531 664.769531 577.746094 664.769531 C 563.976562 664.769531 551.023438 670.132812 541.285156 679.871094 C 531.546875 689.613281 526.179688 702.5625 526.179688 716.335938 C 526.179688 730.109375 531.542969 743.058594 541.285156 752.796875 C 551.027344 762.539062 563.976562 767.902344 577.746094 767.902344 C 591.519531 767.902344 604.472656 762.539062 614.210938 752.796875 C 623.949219 743.058594 629.316406 730.109375 629.316406 716.335938 C 629.316406 711.183594 628.566406 706.144531 627.117188 701.347656 L 637.457031 696.507812 C 639.546875 702.820312 640.632812 709.492188 640.632812 716.335938 C 640.632812 733.132812 634.089844 748.925781 622.210938 760.800781 Z M 571.804688 719.332031 C 573.023438 721.933594 575.601562 723.460938 578.296875 723.460938 C 579.316406 723.460938 580.347656 723.242188 581.328125 722.785156 L 588.992188 719.195312 C 587.714844 724.214844 583.160156 727.941406 577.746094 727.941406 C 571.351562 727.941406 566.144531 722.734375 566.144531 716.335938 C 566.144531 709.941406 571.351562 704.734375 577.746094 704.734375 C 579.714844 704.734375 581.566406 705.226562 583.191406 706.09375 L 575.253906 709.808594 C 571.671875 711.484375 570.128906 715.75 571.804688 719.332031 Z M 577.746094 690.410156 C 563.449219 690.410156 551.820312 702.039062 551.820312 716.335938 C 551.820312 730.632812 563.449219 742.265625 577.746094 742.265625 C 592.042969 742.265625 603.675781 730.636719 603.675781 716.335938 C 603.675781 715.019531 603.578125 713.726562 603.386719 712.460938 L 613.933594 707.523438 C 614.625 710.347656 614.992188 713.300781 614.992188 716.335938 C 614.992188 736.871094 598.285156 753.578125 577.75 753.578125 C 557.214844 753.578125 540.507812 736.871094 540.507812 716.335938 C 540.507812 695.804688 557.214844 679.09375 577.75 679.09375 C 590.144531 679.09375 601.140625 685.183594 607.917969 694.523438 L 597.402344 699.445312 C 592.640625 693.917969 585.597656 690.410156 577.746094 690.410156 Z M 678.328125 648.257812 L 703.390625 636.527344 L 698.8125 651.976562 L 673.746094 663.707031 Z M 694.613281 683.058594 L 679.816406 676.679688 L 704.882812 664.949219 L 719.679688 671.328125 Z M 694.613281 683.058594 " fill-opacity="1" fill-rule="nonzero"/></g><path fill="#ffffff" d="M 503.140625 607.605469 C 503.140625 602.882812 499.308594 599.054688 494.585938 599.054688 L 456.574219 599.054688 L 456.574219 563.878906 L 590.757812 563.878906 C 595.480469 563.878906 599.3125 560.050781 599.3125 555.328125 L 599.3125 285.617188 C 599.3125 280.894531 595.480469 277.066406 590.757812 277.066406 L 228.480469 277.066406 C 223.757812 277.066406 219.925781 280.894531 219.925781 285.617188 L 219.925781 555.328125 C 219.925781 560.054688 223.757812 563.882812 228.480469 563.882812 L 362.664062 563.882812 L 362.664062 599.054688 L 324.652344 599.054688 C 319.929688 599.054688 316.097656 602.886719 316.097656 607.609375 C 316.097656 612.332031 319.929688 616.160156 324.652344 616.160156 L 494.589844 616.160156 C 499.3125 616.160156 503.140625 612.332031 503.140625 607.605469 Z M 237.03125 294.171875 L 582.207031 294.171875 L 582.207031 496.726562 L 237.03125 496.726562 Z M 439.46875 599.054688 L 379.765625 599.054688 L 379.765625 563.882812 L 439.46875 563.882812 Z M 448.023438 546.445312 L 371.21875 546.445312 C 370.398438 546.445312 369.605469 546.5625 368.855469 546.777344 L 237.03125 546.777344 L 237.03125 513.828125 L 582.207031 513.828125 L 582.207031 546.777344 L 450.382812 546.777344 C 449.632812 546.5625 448.84375 546.445312 448.023438 546.445312 Z M 448.023438 546.445312 " fill-opacity="1" fill-rule="nonzero"/><path fill="#ffffff" d="M 142.988281 247.089844 L 129.472656 238.117188 C 126.90625 241.988281 124.378906 245.96875 121.976562 249.945312 L 135.855469 258.339844 C 138.140625 254.558594 140.542969 250.773438 142.988281 247.089844 Z M 142.988281 247.089844 " fill-opacity="1" fill-rule="nonzero"/><path fill="#ffffff" d="M 188.304688 192.992188 L 177.101562 181.261719 C 173.742188 184.46875 170.40625 187.792969 167.183594 191.136719 L 178.867188 202.390625 C 181.933594 199.207031 185.105469 196.042969 188.304688 192.992188 Z M 188.304688 192.992188 " fill-opacity="1" fill-rule="nonzero"/><path fill="#ffffff" d="M 205.933594 177.359375 L 195.628906 164.832031 C 192.042969 167.785156 188.46875 170.851562 185.007812 173.949219 L 195.824219 186.035156 C 199.121094 183.085938 202.519531 180.167969 205.933594 177.359375 Z M 205.933594 177.359375 " fill-opacity="1" fill-rule="nonzero"/><path fill="#ffffff" d="M 119.925781 288.171875 L 105.226562 281.308594 C 103.261719 285.523438 101.355469 289.835938 99.570312 294.128906 L 114.546875 300.359375 C 116.246094 296.28125 118.054688 292.179688 119.925781 288.171875 Z M 119.925781 288.171875 " fill-opacity="1" fill-rule="nonzero"/><path fill="#ffffff" d="M 171.878906 209.886719 L 159.839844 199.015625 C 156.726562 202.464844 153.640625 206.027344 150.675781 209.601562 L 163.160156 219.957031 C 165.980469 216.554688 168.914062 213.167969 171.878906 209.886719 Z M 171.878906 209.886719 " fill-opacity="1" fill-rule="nonzero"/><path fill="#ffffff" d="M 130.691406 267.199219 L 116.546875 259.257812 C 114.269531 263.3125 112.050781 267.46875 109.949219 271.617188 L 124.414062 278.953125 C 126.414062 275.011719 128.527344 271.054688 130.691406 267.199219 Z M 130.691406 267.199219 " fill-opacity="1" fill-rule="nonzero"/><path fill="#ffffff" d="M 286.445312 129.117188 L 280.265625 114.117188 C 275.976562 115.886719 271.660156 117.769531 267.445312 119.71875 L 274.25 134.445312 C 278.261719 132.589844 282.363281 130.796875 286.445312 129.117188 Z M 286.445312 129.117188 " fill-opacity="1" fill-rule="nonzero"/><path fill="#ffffff" d="M 331.136719 114.519531 L 327.269531 98.765625 C 322.761719 99.875 318.214844 101.089844 313.761719 102.386719 L 318.292969 117.960938 C 322.527344 116.730469 326.851562 115.570312 331.136719 114.519531 Z M 331.136719 114.519531 " fill-opacity="1" fill-rule="nonzero"/><path fill="#ffffff" d="M 265.03125 138.886719 L 257.753906 124.390625 C 253.605469 126.476562 249.441406 128.675781 245.382812 130.933594 L 253.265625 145.109375 C 257.125 142.960938 261.085938 140.867188 265.03125 138.886719 Z M 265.03125 138.886719 " fill-opacity="1" fill-rule="nonzero"/><path fill="#ffffff" d="M 156.742188 227.949219 L 143.929688 218 C 141.078125 221.671875 138.265625 225.453125 135.574219 229.238281 L 148.792969 238.640625 C 151.355469 235.039062 154.03125 231.445312 156.742188 227.949219 Z M 156.742188 227.949219 " fill-opacity="1" fill-rule="nonzero"/><path fill="#ffffff" d="M 308.519531 120.980469 L 303.480469 105.5625 C 299.070312 107 294.628906 108.558594 290.277344 110.183594 L 295.964844 125.378906 C 300.101562 123.828125 304.324219 122.351562 308.519531 120.980469 Z M 308.519531 120.980469 " fill-opacity="1" fill-rule="nonzero"/><path fill="#ffffff" d="M 224.667969 163.078125 L 215.316406 149.824219 C 211.523438 152.5 207.730469 155.296875 204.050781 158.128906 L 213.949219 170.980469 C 217.449219 168.285156 221.054688 165.625 224.667969 163.078125 Z M 224.667969 163.078125 " fill-opacity="1" fill-rule="nonzero"/><path fill="#ffffff" d="M 244.402344 150.230469 L 236.0625 136.316406 C 232.078125 138.703125 228.089844 141.207031 224.210938 143.761719 L 233.128906 157.3125 C 236.820312 154.882812 240.609375 152.5 244.402344 150.230469 Z M 244.402344 150.230469 " fill-opacity="1" fill-rule="nonzero"/><path fill="#ffffff" d="M 343.078125 111.832031 C 348.496094 123.714844 360.050781 132.234375 373.667969 133.308594 L 373.667969 181.503906 C 373.667969 192.390625 382.527344 201.25 393.414062 201.25 L 395.332031 201.25 C 406.21875 201.25 415.074219 192.390625 415.074219 181.503906 L 415.074219 133.425781 L 429.769531 133.425781 C 430.066406 133.515625 430.367188 133.597656 430.675781 133.660156 C 454.125 138.261719 475.875 149.175781 493.578125 165.222656 L 503.019531 173.78125 C 504.542969 175.164062 506.492188 175.882812 508.46875 175.882812 C 509.578125 175.882812 510.699219 175.65625 511.753906 175.1875 C 514.683594 173.886719 516.578125 170.984375 516.578125 167.773438 L 516.59375 119.871094 C 526.199219 116.492188 533.101562 107.335938 533.101562 96.589844 C 533.101562 85.847656 526.199219 76.6875 516.59375 73.3125 L 516.578125 25.167969 C 516.578125 21.960938 514.683594 19.054688 511.753906 17.753906 C 508.820312 16.453125 505.398438 17.007812 503.019531 19.160156 L 493.578125 27.71875 C 475.875 43.765625 454.125 54.679688 430.675781 59.285156 C 430.078125 59.402344 429.511719 59.582031 428.972656 59.816406 L 376.59375 59.816406 C 356.523438 59.816406 340.15625 75.964844 339.796875 95.949219 C 339.15625 96.078125 338.515625 96.210938 337.878906 96.347656 L 341.226562 112.21875 C 341.839844 112.085938 342.460938 111.957031 343.078125 111.832031 Z M 516.542969 95.417969 C 516.582031 95.089844 516.601562 94.761719 516.601562 94.429688 L 516.601562 87.765625 C 518.972656 89.964844 520.460938 93.105469 520.460938 96.589844 C 520.460938 100.074219 518.972656 103.214844 516.597656 105.414062 L 516.601562 98.511719 C 516.601562 98.179688 516.578125 97.851562 516.539062 97.523438 L 516.539062 95.417969 Z M 440.382812 98.511719 L 440.382812 73.75 C 462.445312 68.359375 482.976562 57.949219 500.363281 43.324219 L 500.378906 93.445312 C 500.339844 93.769531 500.320312 94.097656 500.320312 94.433594 L 500.320312 98.511719 C 500.320312 98.847656 500.339844 99.179688 500.378906 99.503906 L 500.363281 149.621094 C 482.976562 134.996094 462.445312 124.582031 440.382812 119.195312 Z M 398.855469 181.503906 C 398.855469 183.449219 397.273438 185.027344 395.332031 185.027344 L 393.414062 185.027344 C 391.46875 185.027344 389.890625 183.445312 389.890625 181.503906 L 389.890625 133.484375 L 398.855469 133.484375 Z M 376.589844 76.039062 L 424.125 76.039062 L 424.125 94.433594 C 424.125 94.6875 424.136719 94.9375 424.160156 95.1875 L 424.160156 97.757812 C 424.136719 98.003906 424.125 98.253906 424.125 98.511719 L 424.125 117.207031 L 376.589844 117.207031 C 365.242188 117.207031 356.007812 107.972656 356.007812 96.621094 C 356.007812 85.269531 365.242188 76.039062 376.589844 76.039062 Z M 376.589844 76.039062 " fill-opacity="1" fill-rule="nonzero"/><path fill="#ffffff" d="M 97.328125 488.242188 L 81.464844 491.628906 C 82.445312 496.226562 83.539062 500.871094 84.714844 505.421875 L 100.421875 501.363281 C 99.300781 497.03125 98.261719 492.621094 97.328125 488.242188 Z M 97.328125 488.242188 " fill-opacity="1" fill-rule="nonzero"/><path fill="#ffffff" d="M 120.050781 555.921875 L 105.359375 562.796875 C 107.355469 567.058594 109.46875 571.332031 111.640625 575.503906 L 126.027344 568.003906 C 123.957031 564.039062 121.949219 559.976562 120.050781 555.921875 Z M 120.050781 555.921875 " fill-opacity="1" fill-rule="nonzero"/><path fill="#ffffff" d="M 103.179688 511.355469 L 87.617188 515.933594 C 88.945312 520.445312 90.390625 524.992188 91.90625 529.441406 L 107.257812 524.199219 C 105.8125 519.972656 104.441406 515.648438 103.179688 511.355469 Z M 103.179688 511.355469 " fill-opacity="1" fill-rule="nonzero"/><path fill="#ffffff" d="M 110.769531 533.957031 L 95.601562 539.703125 C 97.265625 544.097656 99.050781 548.523438 100.902344 552.847656 L 115.8125 546.457031 C 114.046875 542.347656 112.351562 538.140625 110.769531 533.957031 Z M 110.769531 533.957031 " fill-opacity="1" fill-rule="nonzero"/><path fill="#ffffff" d="M 143.457031 597.441406 L 129.96875 606.449219 C 132.578125 610.359375 135.308594 614.269531 138.085938 618.066406 L 151.179688 608.492188 C 148.542969 604.878906 145.941406 601.164062 143.457031 597.441406 Z M 143.457031 597.441406 " fill-opacity="1" fill-rule="nonzero"/><path fill="#ffffff" d="M 157.4375 616.765625 L 144.660156 626.761719 C 147.558594 630.464844 150.574219 634.15625 153.628906 637.734375 L 165.96875 627.207031 C 163.066406 623.804688 160.195312 620.289062 157.4375 616.765625 Z M 157.4375 616.765625 " fill-opacity="1" fill-rule="nonzero"/><path fill="#ffffff" d="M 130.96875 577.121094 L 116.839844 585.085938 C 119.148438 589.183594 121.578125 593.285156 124.058594 597.28125 L 137.835938 588.722656 C 135.476562 584.921875 133.164062 581.015625 130.96875 577.121094 Z M 130.96875 577.121094 " fill-opacity="1" fill-rule="nonzero"/><path fill="#ffffff" d="M 94.761719 474.78125 L 139.125 474.78125 C 153.941406 474.78125 165.992188 462.730469 165.992188 447.914062 L 165.992188 335.648438 C 165.992188 320.835938 153.941406 308.78125 139.125 308.78125 L 107.855469 308.78125 L 95.59375 304.140625 C 95.011719 305.675781 94.4375 307.230469 93.875 308.78125 L 26.859375 308.78125 C 12.046875 308.78125 -0.0078125 320.835938 -0.0078125 335.648438 L -0.0078125 447.914062 C -0.0078125 462.730469 12.046875 474.78125 26.859375 474.78125 L 78.328125 474.78125 C 78.652344 476.820312 79 478.875 79.359375 480.898438 L 95.328125 478.042969 C 95.136719 476.960938 94.945312 475.871094 94.761719 474.78125 Z M 26.859375 458.558594 C 20.988281 458.558594 16.214844 453.785156 16.214844 447.914062 L 16.214844 335.648438 C 16.214844 329.777344 20.988281 325.003906 26.859375 325.003906 L 139.125 325.003906 C 144.996094 325.003906 149.769531 329.777344 149.769531 335.648438 L 149.769531 335.863281 L 149.367188 335.863281 L 149.367188 348.503906 L 149.769531 348.503906 L 149.769531 435.925781 L 149.367188 435.925781 L 149.367188 448.5625 L 149.75 448.5625 C 149.410156 454.132812 144.777344 458.558594 139.125 458.558594 Z M 26.859375 458.558594 " fill-opacity="1" fill-rule="nonzero"/><path fill="#ffffff" d="M 406.882812 738.425781 C 404.933594 738.425781 402.964844 738.410156 401.027344 738.375 L 400.730469 754.59375 C 402.765625 754.632812 404.835938 754.648438 406.882812 754.648438 C 409.589844 754.648438 412.328125 754.613281 415.027344 754.550781 L 414.636719 738.335938 C 412.070312 738.394531 409.460938 738.425781 406.882812 738.425781 Z M 406.882812 738.425781 " fill-opacity="1" fill-rule="nonzero"/><path fill="#ffffff" d="M 472.761719 731.5625 L 476.117188 747.429688 C 480.757812 746.449219 485.445312 745.351562 490.042969 744.167969 L 486 728.460938 C 481.625 729.582031 477.171875 730.628906 472.761719 731.5625 Z M 472.761719 731.5625 " fill-opacity="1" fill-rule="nonzero"/><path fill="#ffffff" d="M 449.050781 735.640625 L 451.191406 751.722656 C 455.898438 751.097656 460.648438 750.359375 465.320312 749.53125 L 462.492188 733.558594 C 458.046875 734.347656 453.527344 735.046875 449.050781 735.640625 Z M 449.050781 735.640625 " fill-opacity="1" fill-rule="nonzero"/><path fill="#ffffff" d="M 350.398438 749.871094 C 355.070312 750.671875 359.832031 751.378906 364.542969 751.980469 L 366.585938 735.886719 C 362.101562 735.316406 357.578125 734.644531 353.132812 733.882812 Z M 350.398438 749.871094 " fill-opacity="1" fill-rule="nonzero"/><path fill="#ffffff" d="M 375.480469 753.183594 C 380.199219 753.625 384.996094 753.972656 389.738281 754.210938 L 390.5625 738.011719 C 386.046875 737.78125 381.480469 737.453125 376.992188 737.03125 Z M 375.480469 753.183594 " fill-opacity="1" fill-rule="nonzero"/><path fill="#ffffff" d="M 325.644531 744.65625 C 330.246094 745.8125 334.9375 746.882812 339.585938 747.835938 L 342.851562 731.945312 C 338.429688 731.039062 333.96875 730.019531 329.589844 728.921875 Z M 325.644531 744.65625 " fill-opacity="1" fill-rule="nonzero"/><path fill="#ffffff" d="M 425.09375 737.910156 L 426.011719 754.105469 C 430.753906 753.835938 435.546875 753.464844 440.265625 752.992188 L 438.65625 736.851562 C 434.167969 737.300781 429.605469 737.65625 425.09375 737.910156 Z M 425.09375 737.910156 " fill-opacity="1" fill-rule="nonzero"/><path fill="#ffffff" d="M 301.355469 737.5625 C 305.855469 739.066406 310.453125 740.492188 315.015625 741.800781 L 319.484375 726.210938 C 315.148438 724.964844 310.777344 723.609375 306.496094 722.179688 Z M 301.355469 737.5625 " fill-opacity="1" fill-rule="nonzero"/><g clip-path="url(#41b581b501)"><path fill="#ffffff" d="M 292.796875 672.058594 C 292.796875 670.160156 292.042969 668.335938 290.699219 666.996094 L 257.675781 633.972656 C 257.570312 633.867188 257.457031 633.765625 257.347656 633.664062 C 257.316406 633.636719 257.285156 633.613281 257.253906 633.585938 C 257.148438 633.496094 257.035156 633.40625 256.921875 633.320312 C 256.90625 633.308594 256.894531 633.296875 256.878906 633.285156 C 256.757812 633.195312 256.632812 633.109375 256.503906 633.027344 C 256.464844 633.003906 256.425781 632.976562 256.390625 632.957031 C 256.273438 632.882812 256.15625 632.8125 256.035156 632.746094 C 256.019531 632.738281 256.003906 632.726562 255.988281 632.71875 C 255.855469 632.648438 255.71875 632.582031 255.582031 632.519531 C 255.542969 632.503906 255.503906 632.484375 255.464844 632.46875 C 255.335938 632.410156 255.203125 632.359375 255.070312 632.3125 C 255.058594 632.304688 255.046875 632.300781 255.035156 632.296875 C 254.890625 632.242188 254.746094 632.199219 254.597656 632.15625 C 254.5625 632.144531 254.523438 632.136719 254.484375 632.125 C 254.347656 632.085938 254.207031 632.054688 254.066406 632.023438 C 254.054688 632.023438 254.042969 632.019531 254.03125 632.015625 C 253.882812 631.984375 253.730469 631.960938 253.578125 631.941406 C 253.535156 631.933594 253.5 631.929688 253.460938 631.925781 C 253.328125 631.910156 253.191406 631.898438 253.058594 631.890625 C 253.035156 631.886719 253.011719 631.886719 252.988281 631.886719 C 252.863281 631.878906 252.742188 631.875 252.617188 631.875 L 168.207031 631.875 C 164.25 631.875 161.042969 635.082031 161.042969 639.035156 L 161.042969 645.726562 L 160.839844 645.914062 C 160.90625 645.988281 160.976562 646.0625 161.042969 646.136719 L 161.042969 786.316406 C 161.042969 790.273438 164.25 793.480469 168.207031 793.480469 L 285.636719 793.480469 C 289.59375 793.480469 292.800781 790.273438 292.800781 786.316406 L 292.800781 729.019531 L 296.636719 718.699219 C 295.359375 718.226562 294.078125 717.738281 292.800781 717.242188 L 292.800781 672.058594 Z M 259.773438 656.449219 L 266.722656 663.460938 L 259.773438 663.460938 Z M 278.472656 779.15625 L 175.367188 779.15625 L 175.367188 646.203125 L 245.453125 646.203125 L 245.453125 670.628906 C 245.453125 674.582031 248.660156 677.789062 252.613281 677.789062 L 278.476562 677.789062 L 278.476562 779.15625 Z M 278.472656 779.15625 " fill-opacity="1" fill-rule="nonzero"/></g><path fill="#ffffff" d="M 700.726562 539.769531 L 715.777344 545.816406 C 717.589844 541.304688 719.324219 536.699219 720.925781 532.121094 L 705.621094 526.746094 C 704.09375 531.101562 702.445312 535.484375 700.726562 539.769531 Z M 700.726562 539.769531 " fill-opacity="1" fill-rule="nonzero"/><path fill="#ffffff" d="M 678.886719 583.855469 L 692.816406 592.164062 C 695.304688 587.992188 697.734375 583.710938 700.03125 579.441406 L 685.75 571.75 C 683.566406 575.8125 681.257812 579.882812 678.886719 583.855469 Z M 678.886719 583.855469 " fill-opacity="1" fill-rule="nonzero"/><path fill="#ffffff" d="M 690.667969 562.238281 L 705.203125 569.441406 C 707.359375 565.085938 709.449219 560.628906 711.40625 556.191406 L 696.570312 549.636719 C 694.703125 553.859375 692.71875 558.101562 690.667969 562.238281 Z M 690.667969 562.238281 " fill-opacity="1" fill-rule="nonzero"/><path fill="#ffffff" d="M 708.992188 516.585938 L 724.472656 521.429688 C 725.925781 516.796875 727.289062 512.066406 728.535156 507.375 L 712.855469 503.21875 C 711.671875 507.683594 710.375 512.179688 708.992188 516.585938 Z M 708.992188 516.585938 " fill-opacity="1" fill-rule="nonzero"/><path fill="#ffffff" d="M 734.183594 482.113281 L 718.226562 479.195312 C 717.394531 483.738281 716.449219 488.324219 715.421875 492.824219 L 731.234375 496.441406 C 732.316406 491.710938 733.308594 486.890625 734.183594 482.113281 Z M 734.183594 482.113281 " fill-opacity="1" fill-rule="nonzero"/><path fill="#ffffff" d="M 665.460938 604.488281 L 678.703125 613.855469 C 681.507812 609.890625 684.261719 605.8125 686.886719 601.734375 L 673.246094 592.957031 C 670.75 596.835938 668.128906 600.71875 665.460938 604.488281 Z M 665.460938 604.488281 " fill-opacity="1" fill-rule="nonzero"/><path fill="#ffffff" d="M 650.476562 624.019531 L 662.953125 634.386719 C 666.054688 630.648438 669.117188 626.796875 672.050781 622.933594 L 659.132812 613.125 C 656.339844 616.800781 653.429688 620.46875 650.476562 624.019531 Z M 650.476562 624.019531 " fill-opacity="1" fill-rule="nonzero"/><path fill="#ffffff" d="M 634.023438 642.339844 L 645.660156 653.636719 C 649.042969 650.152344 652.390625 646.546875 655.617188 642.917969 L 643.496094 632.140625 C 640.425781 635.59375 637.238281 639.023438 634.023438 642.339844 Z M 634.023438 642.339844 " fill-opacity="1" fill-rule="nonzero"/><path fill="#ffffff" d="M 578.15625 136.589844 C 576.15625 135.390625 574.121094 134.195312 572.105469 133.035156 L 564.039062 147.109375 C 565.960938 148.210938 567.894531 149.347656 569.792969 150.488281 Z M 578.15625 136.589844 " fill-opacity="1" fill-rule="nonzero"/><path fill="#ffffff" d="M 675.394531 254.261719 L 689.144531 245.65625 C 686.542969 241.496094 683.808594 237.332031 681.023438 233.292969 L 667.667969 242.496094 C 670.320312 246.34375 672.917969 250.300781 675.394531 254.261719 Z M 675.394531 254.261719 " fill-opacity="1" fill-rule="nonzero"/><path fill="#ffffff" d="M 687.757812 275.863281 L 702.144531 268.367188 C 699.878906 264.019531 697.480469 259.65625 695.019531 255.402344 L 680.984375 263.535156 C 683.320312 267.578125 685.601562 271.726562 687.757812 275.863281 Z M 687.757812 275.863281 " fill-opacity="1" fill-rule="nonzero"/><path fill="#ffffff" d="M 661.371094 233.691406 L 674.40625 224.035156 C 671.484375 220.089844 668.433594 216.160156 665.339844 212.347656 L 652.746094 222.570312 C 655.691406 226.199219 658.59375 229.941406 661.371094 233.691406 Z M 661.371094 233.691406 " fill-opacity="1" fill-rule="nonzero"/><path fill="#ffffff" d="M 698.378906 298.375 L 713.308594 292.039062 C 711.394531 287.519531 709.347656 282.984375 707.226562 278.550781 L 692.59375 285.546875 C 694.609375 289.761719 696.554688 294.078125 698.378906 298.375 Z M 698.378906 298.375 " fill-opacity="1" fill-rule="nonzero"/><path fill="#ffffff" d="M 610.289062 179.40625 L 620.71875 166.984375 C 616.957031 163.824219 613.078125 160.710938 609.179688 157.722656 L 599.308594 170.59375 C 603.019531 173.4375 606.710938 176.402344 610.289062 179.40625 Z M 610.289062 179.40625 " fill-opacity="1" fill-rule="nonzero"/><path fill="#ffffff" d="M 628.714844 196.148438 L 640.085938 184.582031 C 636.585938 181.140625 632.960938 177.730469 629.308594 174.449219 L 618.460938 186.507812 C 621.933594 189.628906 625.386719 192.875 628.714844 196.148438 Z M 628.714844 196.148438 " fill-opacity="1" fill-rule="nonzero"/><path fill="#ffffff" d="M 600.035156 150.953125 C 596.039062 148.097656 591.925781 145.296875 587.804688 142.621094 L 578.976562 156.226562 C 582.890625 158.769531 586.804688 161.4375 590.609375 164.152344 Z M 600.035156 150.953125 " fill-opacity="1" fill-rule="nonzero"/><path fill="#ffffff" d="M 645.78125 214.28125 L 658.015625 203.636719 C 654.792969 199.929688 651.445312 196.25 648.0625 192.691406 L 636.308594 203.867188 C 639.527344 207.253906 642.714844 210.757812 645.78125 214.28125 Z M 645.78125 214.28125 " fill-opacity="1" fill-rule="nonzero"/><path fill="#ffffff" d="M 493.582031 377.742188 C 495.898438 375.652344 496.648438 372.332031 495.453125 369.449219 L 488.019531 351.5 C 486.824219 348.621094 483.945312 346.800781 480.832031 346.960938 L 460.964844 347.976562 L 454.777344 341.789062 L 455.792969 321.921875 C 455.953125 318.808594 454.132812 315.929688 451.25 314.734375 L 433.304688 307.300781 C 430.421875 306.105469 427.101562 306.855469 425.011719 309.171875 L 411.683594 323.9375 L 402.929688 323.9375 L 389.601562 309.171875 C 387.511719 306.855469 384.191406 306.105469 381.308594 307.300781 L 363.359375 314.734375 C 360.480469 315.929688 358.660156 318.808594 358.820312 321.921875 L 359.835938 341.789062 L 353.648438 347.976562 L 333.78125 346.960938 C 330.667969 346.800781 327.789062 348.621094 326.59375 351.5 L 319.160156 369.449219 C 317.964844 372.332031 318.714844 375.652344 321.03125 377.742188 L 335.796875 391.070312 L 335.796875 399.824219 L 321.03125 413.152344 C 318.714844 415.242188 317.964844 418.5625 319.160156 421.445312 L 326.59375 439.390625 C 327.789062 442.273438 330.667969 444.097656 333.78125 443.933594 L 353.648438 442.917969 L 359.835938 449.105469 L 358.820312 468.972656 C 358.660156 472.085938 360.480469 474.964844 363.359375 476.160156 L 381.308594 483.59375 C 384.191406 484.785156 387.511719 484.039062 389.601562 481.722656 L 402.929688 466.960938 L 411.683594 466.960938 L 425.011719 481.722656 C 426.4375 483.304688 428.441406 484.15625 430.484375 484.15625 C 431.433594 484.15625 432.390625 483.972656 433.304688 483.59375 L 451.25 476.160156 C 454.132812 474.964844 455.953125 472.085938 455.792969 468.972656 L 454.777344 449.105469 L 460.964844 442.917969 L 480.832031 443.933594 C 483.949219 444.097656 486.824219 442.273438 488.019531 439.390625 L 495.453125 421.445312 C 496.648438 418.5625 495.898438 415.242188 493.582031 413.152344 L 478.820312 399.824219 L 478.820312 391.070312 Z M 466.503906 408.574219 L 479.839844 420.613281 L 476.386719 428.945312 L 458.445312 428.03125 C 456.359375 427.921875 454.328125 428.703125 452.855469 430.179688 L 442.035156 441 C 440.558594 442.476562 439.777344 444.507812 439.882812 446.589844 L 440.800781 464.53125 L 432.464844 467.984375 L 420.425781 454.648438 C 419.027344 453.101562 417.039062 452.21875 414.953125 452.21875 L 399.648438 452.21875 C 397.5625 452.21875 395.574219 453.101562 394.175781 454.648438 L 382.136719 467.984375 L 373.804688 464.53125 L 374.71875 446.589844 C 374.824219 444.507812 374.046875 442.476562 372.570312 441 L 361.746094 430.179688 C 360.273438 428.707031 358.242188 427.921875 356.160156 428.03125 L 338.21875 428.945312 L 334.765625 420.613281 L 348.097656 408.574219 C 349.648438 407.175781 350.53125 405.1875 350.53125 403.101562 L 350.53125 387.796875 C 350.53125 385.710938 349.648438 383.722656 348.097656 382.324219 L 334.765625 370.285156 L 338.21875 361.953125 L 356.160156 362.867188 C 358.242188 362.972656 360.273438 362.195312 361.746094 360.71875 L 372.570312 349.898438 C 374.042969 348.421875 374.824219 346.390625 374.71875 344.308594 L 373.804688 326.367188 L 382.136719 322.914062 L 394.175781 336.246094 C 395.574219 337.796875 397.5625 338.679688 399.648438 338.679688 L 414.953125 338.679688 C 417.039062 338.679688 419.027344 337.796875 420.425781 336.246094 L 432.464844 322.914062 L 440.796875 326.367188 L 439.878906 344.308594 C 439.773438 346.390625 440.554688 348.421875 442.03125 349.898438 L 452.851562 360.71875 C 454.328125 362.191406 456.359375 362.972656 458.441406 362.867188 L 476.382812 361.953125 L 479.835938 370.285156 L 466.5 382.324219 C 464.953125 383.722656 464.070312 385.710938 464.070312 387.796875 L 464.070312 403.101562 C 464.070312 405.1875 464.957031 407.175781 466.503906 408.574219 Z M 466.503906 408.574219 " fill-opacity="1" fill-rule="nonzero"/><path fill="#ffffff" d="M 407.304688 354.867188 C 384.929688 354.867188 366.722656 373.074219 366.722656 395.449219 C 366.722656 417.824219 384.929688 436.027344 407.304688 436.027344 C 429.679688 436.027344 447.882812 417.824219 447.882812 395.449219 C 447.882812 373.070312 429.679688 354.867188 407.304688 354.867188 Z M 407.304688 421.28125 C 393.058594 421.28125 381.46875 409.695312 381.46875 395.449219 C 381.46875 381.203125 393.058594 369.613281 407.304688 369.613281 C 421.550781 369.613281 433.136719 381.203125 433.136719 395.449219 C 433.136719 409.695312 421.550781 421.28125 407.304688 421.28125 Z M 407.304688 421.28125 " fill-opacity="1" fill-rule="nonzero"/></svg>