<?xml version="1.0" encoding="UTF-8" standalone="no"?><svg xmlns="http://www.w3.org/2000/svg" xmlns:xlink="http://www.w3.org/1999/xlink" width="769" zoomAndPan="magnify" viewBox="0 0 576.75 809.999993" height="1080" preserveAspectRatio="xMidYMid meet" version="1.0"><defs><clipPath id="b48940620c"><path d="M 94 51 L 515 51 L 515 761 L 94 761 Z M 94 51 " clip-rule="nonzero"/></clipPath><clipPath id="662f8d9a28"><path d="M -177.5625 525.007812 L 398.410156 -80.765625 L 783.066406 284.964844 L 207.089844 890.738281 Z M -177.5625 525.007812 " clip-rule="nonzero"/></clipPath><clipPath id="48256a42bf"><path d="M -177.5625 525.007812 L 398.410156 -80.765625 L 783.066406 284.964844 L 207.089844 890.738281 Z M -177.5625 525.007812 " clip-rule="nonzero"/></clipPath><clipPath id="bc7935fc49"><path d="M -177.5625 525.007812 L 398.410156 -80.765625 L 783.066406 284.964844 L 207.089844 890.738281 Z M -177.5625 525.007812 " clip-rule="nonzero"/></clipPath><clipPath id="d741084ad4"><path d="M 60 18 L 515 18 L 515 763 L 60 763 Z M 60 18 " clip-rule="nonzero"/></clipPath><clipPath id="3c25057274"><path d="M -177.5625 525.007812 L 398.410156 -80.765625 L 783.066406 284.964844 L 207.089844 890.738281 Z M -177.5625 525.007812 " clip-rule="nonzero"/></clipPath><clipPath id="ccdf8167d3"><path d="M -177.5625 525.007812 L 398.410156 -80.765625 L 783.066406 284.964844 L 207.089844 890.738281 Z M -177.5625 525.007812 " clip-rule="nonzero"/></clipPath><clipPath id="a2edce612f"><path d="M -177.5625 525.007812 L 398.410156 -80.765625 L 783.066406 284.964844 L 207.089844 890.738281 Z M -177.5625 525.007812 " clip-rule="nonzero"/></clipPath><clipPath id="cee8229f16"><path d="M 76 45 L 500 45 L 500 736 L 76 736 Z M 76 45 " clip-rule="nonzero"/></clipPath><clipPath id="a13459cfe2"><path d="M -177.5625 525.007812 L 398.410156 -80.765625 L 783.066406 284.964844 L 207.089844 890.738281 Z M -177.5625 525.007812 " clip-rule="nonzero"/></clipPath><clipPath id="83a4b113e5"><path d="M -177.5625 525.007812 L 398.410156 -80.765625 L 783.066406 284.964844 L 207.089844 890.738281 Z M -177.5625 525.007812 " clip-rule="nonzero"/></clipPath><clipPath id="905ed270db"><path d="M -177.5625 525.007812 L 398.410156 -80.765625 L 783.066406 284.964844 L 207.089844 890.738281 Z M -177.5625 525.007812 " clip-rule="nonzero"/></clipPath><clipPath id="08f1f4ae4a"><path d="M 207 45 L 500 45 L 500 166 L 207 166 Z M 207 45 " clip-rule="nonzero"/></clipPath><clipPath id="953bbbbd60"><path d="M -177.5625 525.007812 L 398.410156 -80.765625 L 783.066406 284.964844 L 207.089844 890.738281 Z M -177.5625 525.007812 " clip-rule="nonzero"/></clipPath><clipPath id="527a3e8cce"><path d="M -177.5625 525.007812 L 398.410156 -80.765625 L 783.066406 284.964844 L 207.089844 890.738281 Z M -177.5625 525.007812 " clip-rule="nonzero"/></clipPath><clipPath id="4be46e59c4"><path d="M -177.5625 525.007812 L 398.410156 -80.765625 L 783.066406 284.964844 L 207.089844 890.738281 Z M -177.5625 525.007812 " clip-rule="nonzero"/></clipPath><clipPath id="79be14c885"><path d="M 287 56 L 434 56 L 434 130 L 287 130 Z M 287 56 " clip-rule="nonzero"/></clipPath><clipPath id="df10eca4ff"><path d="M -177.5625 525.007812 L 398.410156 -80.765625 L 783.066406 284.964844 L 207.089844 890.738281 Z M -177.5625 525.007812 " clip-rule="nonzero"/></clipPath><clipPath id="533af66c50"><path d="M -177.5625 525.007812 L 398.410156 -80.765625 L 783.066406 284.964844 L 207.089844 890.738281 Z M -177.5625 525.007812 " clip-rule="nonzero"/></clipPath><clipPath id="d99bed3413"><path d="M -177.5625 525.007812 L 398.410156 -80.765625 L 783.066406 284.964844 L 207.089844 890.738281 Z M -177.5625 525.007812 " clip-rule="nonzero"/></clipPath><clipPath id="0c54ea9fbd"><path d="M 320 72 L 400 72 L 400 108 L 320 108 Z M 320 72 " clip-rule="nonzero"/></clipPath><clipPath id="3e5808395b"><path d="M -177.5625 525.007812 L 398.410156 -80.765625 L 783.066406 284.964844 L 207.089844 890.738281 Z M -177.5625 525.007812 " clip-rule="nonzero"/></clipPath><clipPath id="1616cad57b"><path d="M -177.5625 525.007812 L 398.410156 -80.765625 L 783.066406 284.964844 L 207.089844 890.738281 Z M -177.5625 525.007812 " clip-rule="nonzero"/></clipPath><clipPath id="e4ba0b0ae5"><path d="M -177.5625 525.007812 L 398.410156 -80.765625 L 783.066406 284.964844 L 207.089844 890.738281 Z M -177.5625 525.007812 " clip-rule="nonzero"/></clipPath><clipPath id="75da172bf6"><path d="M 213 151 L 337 151 L 337 228 L 213 228 Z M 213 151 " clip-rule="nonzero"/></clipPath><clipPath id="65ce196dcb"><path d="M -177.5625 525.007812 L 398.410156 -80.765625 L 783.066406 284.964844 L 207.089844 890.738281 Z M -177.5625 525.007812 " clip-rule="nonzero"/></clipPath><clipPath id="8e52154907"><path d="M -177.5625 525.007812 L 398.410156 -80.765625 L 783.066406 284.964844 L 207.089844 890.738281 Z M -177.5625 525.007812 " clip-rule="nonzero"/></clipPath><clipPath id="8b7e46dee8"><path d="M -177.5625 525.007812 L 398.410156 -80.765625 L 783.066406 284.964844 L 207.089844 890.738281 Z M -177.5625 525.007812 " clip-rule="nonzero"/></clipPath><clipPath id="f389b265d1"><path d="M 345 112 L 469 112 L 469 189 L 345 189 Z M 345 112 " clip-rule="nonzero"/></clipPath><clipPath id="8eeb1172dc"><path d="M -177.5625 525.007812 L 398.410156 -80.765625 L 783.066406 284.964844 L 207.089844 890.738281 Z M -177.5625 525.007812 " clip-rule="nonzero"/></clipPath><clipPath id="cc3028b7a7"><path d="M -177.5625 525.007812 L 398.410156 -80.765625 L 783.066406 284.964844 L 207.089844 890.738281 Z M -177.5625 525.007812 " clip-rule="nonzero"/></clipPath><clipPath id="f73e00bbe7"><path d="M -177.5625 525.007812 L 398.410156 -80.765625 L 783.066406 284.964844 L 207.089844 890.738281 Z M -177.5625 525.007812 " clip-rule="nonzero"/></clipPath><clipPath id="4db59556a1"><path d="M 263 203 L 390 203 L 390 257 L 263 257 Z M 263 203 " clip-rule="nonzero"/></clipPath><clipPath id="dd0b939105"><path d="M -177.5625 525.007812 L 398.410156 -80.765625 L 783.066406 284.964844 L 207.089844 890.738281 Z M -177.5625 525.007812 " clip-rule="nonzero"/></clipPath><clipPath id="a1cbb68b86"><path d="M -177.5625 525.007812 L 398.410156 -80.765625 L 783.066406 284.964844 L 207.089844 890.738281 Z M -177.5625 525.007812 " clip-rule="nonzero"/></clipPath><clipPath id="6dbb61940e"><path d="M -177.5625 525.007812 L 398.410156 -80.765625 L 783.066406 284.964844 L 207.089844 890.738281 Z M -177.5625 525.007812 " clip-rule="nonzero"/></clipPath><clipPath id="38cad2ae3d"><path d="M 194 225 L 441 225 L 441 309 L 194 309 Z M 194 225 " clip-rule="nonzero"/></clipPath><clipPath id="9a20e45c42"><path d="M -177.5625 525.007812 L 398.410156 -80.765625 L 783.066406 284.964844 L 207.089844 890.738281 Z M -177.5625 525.007812 " clip-rule="nonzero"/></clipPath><clipPath id="14c7e42790"><path d="M -177.5625 525.007812 L 398.410156 -80.765625 L 783.066406 284.964844 L 207.089844 890.738281 Z M -177.5625 525.007812 " clip-rule="nonzero"/></clipPath><clipPath id="485d33b73f"><path d="M -177.5625 525.007812 L 398.410156 -80.765625 L 783.066406 284.964844 L 207.089844 890.738281 Z M -177.5625 525.007812 " clip-rule="nonzero"/></clipPath><clipPath id="d27a525c49"><path d="M 189 246 L 436 246 L 436 329 L 189 329 Z M 189 246 " clip-rule="nonzero"/></clipPath><clipPath id="8955402792"><path d="M -177.5625 525.007812 L 398.410156 -80.765625 L 783.066406 284.964844 L 207.089844 890.738281 Z M -177.5625 525.007812 " clip-rule="nonzero"/></clipPath><clipPath id="6c485cfc38"><path d="M -177.5625 525.007812 L 398.410156 -80.765625 L 783.066406 284.964844 L 207.089844 890.738281 Z M -177.5625 525.007812 " clip-rule="nonzero"/></clipPath><clipPath id="18432b72e6"><path d="M -177.5625 525.007812 L 398.410156 -80.765625 L 783.066406 284.964844 L 207.089844 890.738281 Z M -177.5625 525.007812 " clip-rule="nonzero"/></clipPath><clipPath id="59a453848f"><path d="M 184 266 L 431 266 L 431 350 L 184 350 Z M 184 266 " clip-rule="nonzero"/></clipPath><clipPath id="abc2af356f"><path d="M -177.5625 525.007812 L 398.410156 -80.765625 L 783.066406 284.964844 L 207.089844 890.738281 Z M -177.5625 525.007812 " clip-rule="nonzero"/></clipPath><clipPath id="098d79f835"><path d="M -177.5625 525.007812 L 398.410156 -80.765625 L 783.066406 284.964844 L 207.089844 890.738281 Z M -177.5625 525.007812 " clip-rule="nonzero"/></clipPath><clipPath id="4a1807cfdc"><path d="M -177.5625 525.007812 L 398.410156 -80.765625 L 783.066406 284.964844 L 207.089844 890.738281 Z M -177.5625 525.007812 " clip-rule="nonzero"/></clipPath><clipPath id="707c325dff"><path d="M 165 361 L 229 361 L 229 429 L 165 429 Z M 165 361 " clip-rule="nonzero"/></clipPath><clipPath id="c2b1819ff2"><path d="M -177.5625 525.007812 L 398.410156 -80.765625 L 783.066406 284.964844 L 207.089844 890.738281 Z M -177.5625 525.007812 " clip-rule="nonzero"/></clipPath><clipPath id="98e80bcbd5"><path d="M -177.5625 525.007812 L 398.410156 -80.765625 L 783.066406 284.964844 L 207.089844 890.738281 Z M -177.5625 525.007812 " clip-rule="nonzero"/></clipPath><clipPath id="619dcf2931"><path d="M -177.5625 525.007812 L 398.410156 -80.765625 L 783.066406 284.964844 L 207.089844 890.738281 Z M -177.5625 525.007812 " clip-rule="nonzero"/></clipPath><clipPath id="91e848f2b3"><path d="M 239 355 L 306 355 L 306 390 L 239 390 Z M 239 355 " clip-rule="nonzero"/></clipPath><clipPath id="2cbf5ef450"><path d="M -177.5625 525.007812 L 398.410156 -80.765625 L 783.066406 284.964844 L 207.089844 890.738281 Z M -177.5625 525.007812 " clip-rule="nonzero"/></clipPath><clipPath id="b67846efa4"><path d="M -177.5625 525.007812 L 398.410156 -80.765625 L 783.066406 284.964844 L 207.089844 890.738281 Z M -177.5625 525.007812 " clip-rule="nonzero"/></clipPath><clipPath id="a3fbab1ec0"><path d="M -177.5625 525.007812 L 398.410156 -80.765625 L 783.066406 284.964844 L 207.089844 890.738281 Z M -177.5625 525.007812 " clip-rule="nonzero"/></clipPath><clipPath id="0d034c0f54"><path d="M 321 339 L 359 339 L 359 366 L 321 366 Z M 321 339 " clip-rule="nonzero"/></clipPath><clipPath id="562a916e84"><path d="M -177.5625 525.007812 L 398.410156 -80.765625 L 783.066406 284.964844 L 207.089844 890.738281 Z M -177.5625 525.007812 " clip-rule="nonzero"/></clipPath><clipPath id="77a2b83451"><path d="M -177.5625 525.007812 L 398.410156 -80.765625 L 783.066406 284.964844 L 207.089844 890.738281 Z M -177.5625 525.007812 " clip-rule="nonzero"/></clipPath><clipPath id="b41b874527"><path d="M -177.5625 525.007812 L 398.410156 -80.765625 L 783.066406 284.964844 L 207.089844 890.738281 Z M -177.5625 525.007812 " clip-rule="nonzero"/></clipPath><clipPath id="b34fd481a8"><path d="M 145 442 L 210 442 L 210 510 L 145 510 Z M 145 442 " clip-rule="nonzero"/></clipPath><clipPath id="81205af97c"><path d="M -177.5625 525.007812 L 398.410156 -80.765625 L 783.066406 284.964844 L 207.089844 890.738281 Z M -177.5625 525.007812 " clip-rule="nonzero"/></clipPath><clipPath id="03b8f827d6"><path d="M -177.5625 525.007812 L 398.410156 -80.765625 L 783.066406 284.964844 L 207.089844 890.738281 Z M -177.5625 525.007812 " clip-rule="nonzero"/></clipPath><clipPath id="d2131df7cc"><path d="M -177.5625 525.007812 L 398.410156 -80.765625 L 783.066406 284.964844 L 207.089844 890.738281 Z M -177.5625 525.007812 " clip-rule="nonzero"/></clipPath><clipPath id="2466e2aa5d"><path d="M 219 429 L 309 429 L 309 471 L 219 471 Z M 219 429 " clip-rule="nonzero"/></clipPath><clipPath id="1f972eb5de"><path d="M -177.5625 525.007812 L 398.410156 -80.765625 L 783.066406 284.964844 L 207.089844 890.738281 Z M -177.5625 525.007812 " clip-rule="nonzero"/></clipPath><clipPath id="198eb16200"><path d="M -177.5625 525.007812 L 398.410156 -80.765625 L 783.066406 284.964844 L 207.089844 890.738281 Z M -177.5625 525.007812 " clip-rule="nonzero"/></clipPath><clipPath id="3b614ca3b7"><path d="M -177.5625 525.007812 L 398.410156 -80.765625 L 783.066406 284.964844 L 207.089844 890.738281 Z M -177.5625 525.007812 " clip-rule="nonzero"/></clipPath><clipPath id="731f93ba46"><path d="M 331 408 L 381 408 L 381 438 L 331 438 Z M 331 408 " clip-rule="nonzero"/></clipPath><clipPath id="261a188547"><path d="M -177.5625 525.007812 L 398.410156 -80.765625 L 783.066406 284.964844 L 207.089844 890.738281 Z M -177.5625 525.007812 " clip-rule="nonzero"/></clipPath><clipPath id="17f358b19d"><path d="M -177.5625 525.007812 L 398.410156 -80.765625 L 783.066406 284.964844 L 207.089844 890.738281 Z M -177.5625 525.007812 " clip-rule="nonzero"/></clipPath><clipPath id="552f7c24d9"><path d="M -177.5625 525.007812 L 398.410156 -80.765625 L 783.066406 284.964844 L 207.089844 890.738281 Z M -177.5625 525.007812 " clip-rule="nonzero"/></clipPath><clipPath id="efc9ca87c9"><path d="M 126 523 L 190 523 L 190 591 L 126 591 Z M 126 523 " clip-rule="nonzero"/></clipPath><clipPath id="f503a84b62"><path d="M -177.5625 525.007812 L 398.410156 -80.765625 L 783.066406 284.964844 L 207.089844 890.738281 Z M -177.5625 525.007812 " clip-rule="nonzero"/></clipPath><clipPath id="b253747ae8"><path d="M -177.5625 525.007812 L 398.410156 -80.765625 L 783.066406 284.964844 L 207.089844 890.738281 Z M -177.5625 525.007812 " clip-rule="nonzero"/></clipPath><clipPath id="7d03d725ae"><path d="M -177.5625 525.007812 L 398.410156 -80.765625 L 783.066406 284.964844 L 207.089844 890.738281 Z M -177.5625 525.007812 " clip-rule="nonzero"/></clipPath><clipPath id="1132bdceb1"><path d="M 200 517 L 267 517 L 267 552 L 200 552 Z M 200 517 " clip-rule="nonzero"/></clipPath><clipPath id="3e28c097ec"><path d="M -177.5625 525.007812 L 398.410156 -80.765625 L 783.066406 284.964844 L 207.089844 890.738281 Z M -177.5625 525.007812 " clip-rule="nonzero"/></clipPath><clipPath id="df56173339"><path d="M -177.5625 525.007812 L 398.410156 -80.765625 L 783.066406 284.964844 L 207.089844 890.738281 Z M -177.5625 525.007812 " clip-rule="nonzero"/></clipPath><clipPath id="e0776c8d36"><path d="M -177.5625 525.007812 L 398.410156 -80.765625 L 783.066406 284.964844 L 207.089844 890.738281 Z M -177.5625 525.007812 " clip-rule="nonzero"/></clipPath><clipPath id="a3a5061fe2"><path d="M 112 624 L 160 624 L 160 649 L 112 649 Z M 112 624 " clip-rule="nonzero"/></clipPath><clipPath id="e57263499a"><path d="M -177.5625 525.007812 L 398.410156 -80.765625 L 783.066406 284.964844 L 207.089844 890.738281 Z M -177.5625 525.007812 " clip-rule="nonzero"/></clipPath><clipPath id="89a68db19f"><path d="M -177.5625 525.007812 L 398.410156 -80.765625 L 783.066406 284.964844 L 207.089844 890.738281 Z M -177.5625 525.007812 " clip-rule="nonzero"/></clipPath><clipPath id="7a7e14db82"><path d="M -177.5625 525.007812 L 398.410156 -80.765625 L 783.066406 284.964844 L 207.089844 890.738281 Z M -177.5625 525.007812 " clip-rule="nonzero"/></clipPath><clipPath id="167125b122"><path d="M 157 566 L 359 566 L 359 635 L 157 635 Z M 157 566 " clip-rule="nonzero"/></clipPath><clipPath id="c5f2529d4d"><path d="M -177.5625 525.007812 L 398.410156 -80.765625 L 783.066406 284.964844 L 207.089844 890.738281 Z M -177.5625 525.007812 " clip-rule="nonzero"/></clipPath><clipPath id="92abb50e67"><path d="M -177.5625 525.007812 L 398.410156 -80.765625 L 783.066406 284.964844 L 207.089844 890.738281 Z M -177.5625 525.007812 " clip-rule="nonzero"/></clipPath><clipPath id="27019083b3"><path d="M -177.5625 525.007812 L 398.410156 -80.765625 L 783.066406 284.964844 L 207.089844 890.738281 Z M -177.5625 525.007812 " clip-rule="nonzero"/></clipPath><clipPath id="7c0c036ba3"><path d="M 157 605 L 195 605 L 195 644 L 157 644 Z M 157 605 " clip-rule="nonzero"/></clipPath><clipPath id="e58339e299"><path d="M -177.5625 525.007812 L 398.410156 -80.765625 L 783.066406 284.964844 L 207.089844 890.738281 Z M -177.5625 525.007812 " clip-rule="nonzero"/></clipPath><clipPath id="23416f87f7"><path d="M -177.5625 525.007812 L 398.410156 -80.765625 L 783.066406 284.964844 L 207.089844 890.738281 Z M -177.5625 525.007812 " clip-rule="nonzero"/></clipPath><clipPath id="fa61091ea7"><path d="M -177.5625 525.007812 L 398.410156 -80.765625 L 783.066406 284.964844 L 207.089844 890.738281 Z M -177.5625 525.007812 " clip-rule="nonzero"/></clipPath><clipPath id="7b50c77d7f"><path d="M 163 165 L 439 165 L 439 555 L 163 555 Z M 163 165 " clip-rule="nonzero"/></clipPath><clipPath id="f961a73ce4"><path d="M -177.5625 525.007812 L 398.410156 -80.765625 L 783.066406 284.964844 L 207.089844 890.738281 Z M -177.5625 525.007812 " clip-rule="nonzero"/></clipPath><clipPath id="132e051f1b"><path d="M -177.5625 525.007812 L 398.410156 -80.765625 L 783.066406 284.964844 L 207.089844 890.738281 Z M -177.5625 525.007812 " clip-rule="nonzero"/></clipPath><clipPath id="6f93060edc"><path d="M -177.5625 525.007812 L 398.410156 -80.765625 L 783.066406 284.964844 L 207.089844 890.738281 Z M -177.5625 525.007812 " clip-rule="nonzero"/></clipPath><clipPath id="25104ff140"><path d="M 163 151 L 439 151 L 439 555 L 163 555 Z M 163 151 " clip-rule="nonzero"/></clipPath><clipPath id="a36cc2fa82"><path d="M -177.5625 525.007812 L 398.410156 -80.765625 L 783.066406 284.964844 L 207.089844 890.738281 Z M -177.5625 525.007812 " clip-rule="nonzero"/></clipPath><clipPath id="bc9c537ff5"><path d="M -177.5625 525.007812 L 398.410156 -80.765625 L 783.066406 284.964844 L 207.089844 890.738281 Z M -177.5625 525.007812 " clip-rule="nonzero"/></clipPath><clipPath id="b57a6729da"><path d="M -177.5625 525.007812 L 398.410156 -80.765625 L 783.066406 284.964844 L 207.089844 890.738281 Z M -177.5625 525.007812 " clip-rule="nonzero"/></clipPath><clipPath id="11c5f1a82b"><path d="M 207 127 L 255 127 L 255 166 L 207 166 Z M 207 127 " clip-rule="nonzero"/></clipPath><clipPath id="d54177815b"><path d="M -177.5625 525.007812 L 398.410156 -80.765625 L 783.066406 284.964844 L 207.089844 890.738281 Z M -177.5625 525.007812 " clip-rule="nonzero"/></clipPath><clipPath id="c2a6be7501"><path d="M -177.5625 525.007812 L 398.410156 -80.765625 L 783.066406 284.964844 L 207.089844 890.738281 Z M -177.5625 525.007812 " clip-rule="nonzero"/></clipPath><clipPath id="3f84a1d8a1"><path d="M -177.5625 525.007812 L 398.410156 -80.765625 L 783.066406 284.964844 L 207.089844 890.738281 Z M -177.5625 525.007812 " clip-rule="nonzero"/></clipPath><clipPath id="cc5c8de3df"><path d="M 213 169 L 306 169 L 306 228 L 213 228 Z M 213 169 " clip-rule="nonzero"/></clipPath><clipPath id="fa3d51a32d"><path d="M -177.5625 525.007812 L 398.410156 -80.765625 L 783.066406 284.964844 L 207.089844 890.738281 Z M -177.5625 525.007812 " clip-rule="nonzero"/></clipPath><clipPath id="59987f1b59"><path d="M -177.5625 525.007812 L 398.410156 -80.765625 L 783.066406 284.964844 L 207.089844 890.738281 Z M -177.5625 525.007812 " clip-rule="nonzero"/></clipPath><clipPath id="74d7f15cb2"><path d="M -177.5625 525.007812 L 398.410156 -80.765625 L 783.066406 284.964844 L 207.089844 890.738281 Z M -177.5625 525.007812 " clip-rule="nonzero"/></clipPath><clipPath id="ba9a1e34b7"><path d="M 263 221 L 342 221 L 342 257 L 263 257 Z M 263 221 " clip-rule="nonzero"/></clipPath><clipPath id="03d6c0d3c2"><path d="M -177.5625 525.007812 L 398.410156 -80.765625 L 783.066406 284.964844 L 207.089844 890.738281 Z M -177.5625 525.007812 " clip-rule="nonzero"/></clipPath><clipPath id="6722ab3439"><path d="M -177.5625 525.007812 L 398.410156 -80.765625 L 783.066406 284.964844 L 207.089844 890.738281 Z M -177.5625 525.007812 " clip-rule="nonzero"/></clipPath><clipPath id="e3212c54f4"><path d="M -177.5625 525.007812 L 398.410156 -80.765625 L 783.066406 284.964844 L 207.089844 890.738281 Z M -177.5625 525.007812 " clip-rule="nonzero"/></clipPath><clipPath id="bfe60be1d1"><path d="M 194 250 L 367 250 L 367 309 L 194 309 Z M 194 250 " clip-rule="nonzero"/></clipPath><clipPath id="d55e9fc449"><path d="M -177.5625 525.007812 L 398.410156 -80.765625 L 783.066406 284.964844 L 207.089844 890.738281 Z M -177.5625 525.007812 " clip-rule="nonzero"/></clipPath><clipPath id="5456c5342e"><path d="M -177.5625 525.007812 L 398.410156 -80.765625 L 783.066406 284.964844 L 207.089844 890.738281 Z M -177.5625 525.007812 " clip-rule="nonzero"/></clipPath><clipPath id="932cf34317"><path d="M -177.5625 525.007812 L 398.410156 -80.765625 L 783.066406 284.964844 L 207.089844 890.738281 Z M -177.5625 525.007812 " clip-rule="nonzero"/></clipPath><clipPath id="f2a0308c55"><path d="M 189 264 L 382 264 L 382 329 L 189 329 Z M 189 264 " clip-rule="nonzero"/></clipPath><clipPath id="8155dc672a"><path d="M -177.5625 525.007812 L 398.410156 -80.765625 L 783.066406 284.964844 L 207.089844 890.738281 Z M -177.5625 525.007812 " clip-rule="nonzero"/></clipPath><clipPath id="d40cd713b9"><path d="M -177.5625 525.007812 L 398.410156 -80.765625 L 783.066406 284.964844 L 207.089844 890.738281 Z M -177.5625 525.007812 " clip-rule="nonzero"/></clipPath><clipPath id="d5c6a52ab9"><path d="M -177.5625 525.007812 L 398.410156 -80.765625 L 783.066406 284.964844 L 207.089844 890.738281 Z M -177.5625 525.007812 " clip-rule="nonzero"/></clipPath><clipPath id="324b471af2"><path d="M 184 279 L 397 279 L 397 350 L 184 350 Z M 184 279 " clip-rule="nonzero"/></clipPath><clipPath id="bffe732d40"><path d="M -177.5625 525.007812 L 398.410156 -80.765625 L 783.066406 284.964844 L 207.089844 890.738281 Z M -177.5625 525.007812 " clip-rule="nonzero"/></clipPath><clipPath id="e17425affa"><path d="M -177.5625 525.007812 L 398.410156 -80.765625 L 783.066406 284.964844 L 207.089844 890.738281 Z M -177.5625 525.007812 " clip-rule="nonzero"/></clipPath><clipPath id="3da97355b8"><path d="M -177.5625 525.007812 L 398.410156 -80.765625 L 783.066406 284.964844 L 207.089844 890.738281 Z M -177.5625 525.007812 " clip-rule="nonzero"/></clipPath><clipPath id="25c0b859c8"><path d="M 191 361 L 229 361 L 229 400 L 191 400 Z M 191 361 " clip-rule="nonzero"/></clipPath><clipPath id="9de2e20ace"><path d="M -177.5625 525.007812 L 398.410156 -80.765625 L 783.066406 284.964844 L 207.089844 890.738281 Z M -177.5625 525.007812 " clip-rule="nonzero"/></clipPath><clipPath id="cb7e8536f8"><path d="M -177.5625 525.007812 L 398.410156 -80.765625 L 783.066406 284.964844 L 207.089844 890.738281 Z M -177.5625 525.007812 " clip-rule="nonzero"/></clipPath><clipPath id="2f1db78ca2"><path d="M -177.5625 525.007812 L 398.410156 -80.765625 L 783.066406 284.964844 L 207.089844 890.738281 Z M -177.5625 525.007812 " clip-rule="nonzero"/></clipPath><clipPath id="bd3a99ebe1"><path d="M 239 355 L 306 355 L 306 390 L 239 390 Z M 239 355 " clip-rule="nonzero"/></clipPath><clipPath id="272e9b7d4c"><path d="M -177.5625 525.007812 L 398.410156 -80.765625 L 783.066406 284.964844 L 207.089844 890.738281 Z M -177.5625 525.007812 " clip-rule="nonzero"/></clipPath><clipPath id="22de87e8bf"><path d="M -177.5625 525.007812 L 398.410156 -80.765625 L 783.066406 284.964844 L 207.089844 890.738281 Z M -177.5625 525.007812 " clip-rule="nonzero"/></clipPath><clipPath id="39279a7bca"><path d="M -177.5625 525.007812 L 398.410156 -80.765625 L 783.066406 284.964844 L 207.089844 890.738281 Z M -177.5625 525.007812 " clip-rule="nonzero"/></clipPath><clipPath id="b517bec5a4"><path d="M 321 339 L 359 339 L 359 366 L 321 366 Z M 321 339 " clip-rule="nonzero"/></clipPath><clipPath id="944874caf7"><path d="M -177.5625 525.007812 L 398.410156 -80.765625 L 783.066406 284.964844 L 207.089844 890.738281 Z M -177.5625 525.007812 " clip-rule="nonzero"/></clipPath><clipPath id="5f00eed5a5"><path d="M -177.5625 525.007812 L 398.410156 -80.765625 L 783.066406 284.964844 L 207.089844 890.738281 Z M -177.5625 525.007812 " clip-rule="nonzero"/></clipPath><clipPath id="cc94476ab6"><path d="M -177.5625 525.007812 L 398.410156 -80.765625 L 783.066406 284.964844 L 207.089844 890.738281 Z M -177.5625 525.007812 " clip-rule="nonzero"/></clipPath><clipPath id="55fca909ef"><path d="M 265 429 L 309 429 L 309 454 L 265 454 Z M 265 429 " clip-rule="nonzero"/></clipPath><clipPath id="76260c0e50"><path d="M -177.5625 525.007812 L 398.410156 -80.765625 L 783.066406 284.964844 L 207.089844 890.738281 Z M -177.5625 525.007812 " clip-rule="nonzero"/></clipPath><clipPath id="b9e6f651c6"><path d="M -177.5625 525.007812 L 398.410156 -80.765625 L 783.066406 284.964844 L 207.089844 890.738281 Z M -177.5625 525.007812 " clip-rule="nonzero"/></clipPath><clipPath id="08b5235626"><path d="M -177.5625 525.007812 L 398.410156 -80.765625 L 783.066406 284.964844 L 207.089844 890.738281 Z M -177.5625 525.007812 " clip-rule="nonzero"/></clipPath><clipPath id="4c7e3dfea1"><path d="M 331 408 L 381 408 L 381 438 L 331 438 Z M 331 408 " clip-rule="nonzero"/></clipPath><clipPath id="c4d3157441"><path d="M -177.5625 525.007812 L 398.410156 -80.765625 L 783.066406 284.964844 L 207.089844 890.738281 Z M -177.5625 525.007812 " clip-rule="nonzero"/></clipPath><clipPath id="57325137fa"><path d="M -177.5625 525.007812 L 398.410156 -80.765625 L 783.066406 284.964844 L 207.089844 890.738281 Z M -177.5625 525.007812 " clip-rule="nonzero"/></clipPath><clipPath id="c7e6df0eb0"><path d="M -177.5625 525.007812 L 398.410156 -80.765625 L 783.066406 284.964844 L 207.089844 890.738281 Z M -177.5625 525.007812 " clip-rule="nonzero"/></clipPath><clipPath id="1d1211059c"><path d="M 37 269 L 290 269 L 290 398 L 37 398 Z M 37 269 " clip-rule="nonzero"/></clipPath><clipPath id="3ef606020e"><path d="M -177.5625 525.007812 L 398.410156 -80.765625 L 783.066406 284.964844 L 207.089844 890.738281 Z M -177.5625 525.007812 " clip-rule="nonzero"/></clipPath><clipPath id="50b6a2bceb"><path d="M -177.5625 525.007812 L 398.410156 -80.765625 L 783.066406 284.964844 L 207.089844 890.738281 Z M -177.5625 525.007812 " clip-rule="nonzero"/></clipPath><clipPath id="10d02dede8"><path d="M -177.5625 525.007812 L 398.410156 -80.765625 L 783.066406 284.964844 L 207.089844 890.738281 Z M -177.5625 525.007812 " clip-rule="nonzero"/></clipPath><clipPath id="53490d4e93"><path d="M 53 339 L 94 339 L 94 380 L 53 380 Z M 53 339 " clip-rule="nonzero"/></clipPath><clipPath id="709b47e846"><path d="M -177.5625 525.007812 L 398.410156 -80.765625 L 783.066406 284.964844 L 207.089844 890.738281 Z M -177.5625 525.007812 " clip-rule="nonzero"/></clipPath><clipPath id="d890d38648"><path d="M -177.5625 525.007812 L 398.410156 -80.765625 L 783.066406 284.964844 L 207.089844 890.738281 Z M -177.5625 525.007812 " clip-rule="nonzero"/></clipPath><clipPath id="cb4cca0d6b"><path d="M -177.5625 525.007812 L 398.410156 -80.765625 L 783.066406 284.964844 L 207.089844 890.738281 Z M -177.5625 525.007812 " clip-rule="nonzero"/></clipPath><clipPath id="9d1d697dac"><path d="M 104 323 L 155 323 L 155 348 L 104 348 Z M 104 323 " clip-rule="nonzero"/></clipPath><clipPath id="529d93db2d"><path d="M -177.5625 525.007812 L 398.410156 -80.765625 L 783.066406 284.964844 L 207.089844 890.738281 Z M -177.5625 525.007812 " clip-rule="nonzero"/></clipPath><clipPath id="f03ab491d5"><path d="M -177.5625 525.007812 L 398.410156 -80.765625 L 783.066406 284.964844 L 207.089844 890.738281 Z M -177.5625 525.007812 " clip-rule="nonzero"/></clipPath><clipPath id="2025b4fc79"><path d="M -177.5625 525.007812 L 398.410156 -80.765625 L 783.066406 284.964844 L 207.089844 890.738281 Z M -177.5625 525.007812 " clip-rule="nonzero"/></clipPath><clipPath id="d27d45462b"><path d="M 163 311 L 194 311 L 194 330 L 163 330 Z M 163 311 " clip-rule="nonzero"/></clipPath><clipPath id="e228d95094"><path d="M -177.5625 525.007812 L 398.410156 -80.765625 L 783.066406 284.964844 L 207.089844 890.738281 Z M -177.5625 525.007812 " clip-rule="nonzero"/></clipPath><clipPath id="f97c211911"><path d="M -177.5625 525.007812 L 398.410156 -80.765625 L 783.066406 284.964844 L 207.089844 890.738281 Z M -177.5625 525.007812 " clip-rule="nonzero"/></clipPath><clipPath id="6edb7e572d"><path d="M -177.5625 525.007812 L 398.410156 -80.765625 L 783.066406 284.964844 L 207.089844 890.738281 Z M -177.5625 525.007812 " clip-rule="nonzero"/></clipPath><clipPath id="7b96fb9755"><path d="M 100 332 L 189 332 L 189 364 L 100 364 Z M 100 332 " clip-rule="nonzero"/></clipPath><clipPath id="d3d3dc5cf7"><path d="M -177.5625 525.007812 L 398.410156 -80.765625 L 783.066406 284.964844 L 207.089844 890.738281 Z M -177.5625 525.007812 " clip-rule="nonzero"/></clipPath><clipPath id="e703ec08fc"><path d="M -177.5625 525.007812 L 398.410156 -80.765625 L 783.066406 284.964844 L 207.089844 890.738281 Z M -177.5625 525.007812 " clip-rule="nonzero"/></clipPath><clipPath id="d651acb881"><path d="M -177.5625 525.007812 L 398.410156 -80.765625 L 783.066406 284.964844 L 207.089844 890.738281 Z M -177.5625 525.007812 " clip-rule="nonzero"/></clipPath><clipPath id="02cfda5d16"><path d="M 238 294 L 264 294 L 264 321 L 238 321 Z M 238 294 " clip-rule="nonzero"/></clipPath><clipPath id="daa5ac6ed9"><path d="M -177.5625 525.007812 L 398.410156 -80.765625 L 783.066406 284.964844 L 207.089844 890.738281 Z M -177.5625 525.007812 " clip-rule="nonzero"/></clipPath><clipPath id="245a43b76d"><path d="M -177.5625 525.007812 L 398.410156 -80.765625 L 783.066406 284.964844 L 207.089844 890.738281 Z M -177.5625 525.007812 " clip-rule="nonzero"/></clipPath><clipPath id="beb61c030e"><path d="M -177.5625 525.007812 L 398.410156 -80.765625 L 783.066406 284.964844 L 207.089844 890.738281 Z M -177.5625 525.007812 " clip-rule="nonzero"/></clipPath><clipPath id="35fd856a9e"><path d="M 37 326 L 283 326 L 283 404 L 37 404 Z M 37 326 " clip-rule="nonzero"/></clipPath><clipPath id="a3cddd48ec"><path d="M -177.5625 525.007812 L 398.410156 -80.765625 L 783.066406 284.964844 L 207.089844 890.738281 Z M -177.5625 525.007812 " clip-rule="nonzero"/></clipPath><clipPath id="81b55bb687"><path d="M -177.5625 525.007812 L 398.410156 -80.765625 L 783.066406 284.964844 L 207.089844 890.738281 Z M -177.5625 525.007812 " clip-rule="nonzero"/></clipPath><clipPath id="0f06946ecf"><path d="M -177.5625 525.007812 L 398.410156 -80.765625 L 783.066406 284.964844 L 207.089844 890.738281 Z M -177.5625 525.007812 " clip-rule="nonzero"/></clipPath><clipPath id="51534e0d37"><path d="M 275 269 L 297 269 L 297 334 L 275 334 Z M 275 269 " clip-rule="nonzero"/></clipPath><clipPath id="3b951fa7c7"><path d="M -177.5625 525.007812 L 398.410156 -80.765625 L 783.066406 284.964844 L 207.089844 890.738281 Z M -177.5625 525.007812 " clip-rule="nonzero"/></clipPath><clipPath id="6419023e5e"><path d="M -177.5625 525.007812 L 398.410156 -80.765625 L 783.066406 284.964844 L 207.089844 890.738281 Z M -177.5625 525.007812 " clip-rule="nonzero"/></clipPath><clipPath id="20e79218fc"><path d="M -177.5625 525.007812 L 398.410156 -80.765625 L 783.066406 284.964844 L 207.089844 890.738281 Z M -177.5625 525.007812 " clip-rule="nonzero"/></clipPath><clipPath id="68875974c2"><path d="M 18 344 L 271 344 L 271 473 L 18 473 Z M 18 344 " clip-rule="nonzero"/></clipPath><clipPath id="bfcea3e128"><path d="M -177.5625 525.007812 L 398.410156 -80.765625 L 783.066406 284.964844 L 207.089844 890.738281 Z M -177.5625 525.007812 " clip-rule="nonzero"/></clipPath><clipPath id="a0fad07841"><path d="M -177.5625 525.007812 L 398.410156 -80.765625 L 783.066406 284.964844 L 207.089844 890.738281 Z M -177.5625 525.007812 " clip-rule="nonzero"/></clipPath><clipPath id="b7711b6715"><path d="M -177.5625 525.007812 L 398.410156 -80.765625 L 783.066406 284.964844 L 207.089844 890.738281 Z M -177.5625 525.007812 " clip-rule="nonzero"/></clipPath><clipPath id="9df23a5aef"><path d="M 35 414 L 75 414 L 75 456 L 35 456 Z M 35 414 " clip-rule="nonzero"/></clipPath><clipPath id="f58fa3adfe"><path d="M -177.5625 525.007812 L 398.410156 -80.765625 L 783.066406 284.964844 L 207.089844 890.738281 Z M -177.5625 525.007812 " clip-rule="nonzero"/></clipPath><clipPath id="221e9dafb2"><path d="M -177.5625 525.007812 L 398.410156 -80.765625 L 783.066406 284.964844 L 207.089844 890.738281 Z M -177.5625 525.007812 " clip-rule="nonzero"/></clipPath><clipPath id="29e6e2d511"><path d="M -177.5625 525.007812 L 398.410156 -80.765625 L 783.066406 284.964844 L 207.089844 890.738281 Z M -177.5625 525.007812 " clip-rule="nonzero"/></clipPath><clipPath id="433392b0ca"><path d="M 86 398 L 136 398 L 136 423 L 86 423 Z M 86 398 " clip-rule="nonzero"/></clipPath><clipPath id="ce8829047a"><path d="M -177.5625 525.007812 L 398.410156 -80.765625 L 783.066406 284.964844 L 207.089844 890.738281 Z M -177.5625 525.007812 " clip-rule="nonzero"/></clipPath><clipPath id="57001e3bba"><path d="M -177.5625 525.007812 L 398.410156 -80.765625 L 783.066406 284.964844 L 207.089844 890.738281 Z M -177.5625 525.007812 " clip-rule="nonzero"/></clipPath><clipPath id="958daeea2b"><path d="M -177.5625 525.007812 L 398.410156 -80.765625 L 783.066406 284.964844 L 207.089844 890.738281 Z M -177.5625 525.007812 " clip-rule="nonzero"/></clipPath><clipPath id="a0db8e3bf3"><path d="M 144 386 L 175 386 L 175 406 L 144 406 Z M 144 386 " clip-rule="nonzero"/></clipPath><clipPath id="808d3a614d"><path d="M -177.5625 525.007812 L 398.410156 -80.765625 L 783.066406 284.964844 L 207.089844 890.738281 Z M -177.5625 525.007812 " clip-rule="nonzero"/></clipPath><clipPath id="bec7d04a28"><path d="M -177.5625 525.007812 L 398.410156 -80.765625 L 783.066406 284.964844 L 207.089844 890.738281 Z M -177.5625 525.007812 " clip-rule="nonzero"/></clipPath><clipPath id="9c73ccb8ce"><path d="M -177.5625 525.007812 L 398.410156 -80.765625 L 783.066406 284.964844 L 207.089844 890.738281 Z M -177.5625 525.007812 " clip-rule="nonzero"/></clipPath><clipPath id="afe9f31297"><path d="M 82 407 L 170 407 L 170 440 L 82 440 Z M 82 407 " clip-rule="nonzero"/></clipPath><clipPath id="fae28dc1ce"><path d="M -177.5625 525.007812 L 398.410156 -80.765625 L 783.066406 284.964844 L 207.089844 890.738281 Z M -177.5625 525.007812 " clip-rule="nonzero"/></clipPath><clipPath id="1be6c427e5"><path d="M -177.5625 525.007812 L 398.410156 -80.765625 L 783.066406 284.964844 L 207.089844 890.738281 Z M -177.5625 525.007812 " clip-rule="nonzero"/></clipPath><clipPath id="bcf89f47a9"><path d="M -177.5625 525.007812 L 398.410156 -80.765625 L 783.066406 284.964844 L 207.089844 890.738281 Z M -177.5625 525.007812 " clip-rule="nonzero"/></clipPath><clipPath id="09e72ca668"><path d="M 219 369 L 245 369 L 245 396 L 219 396 Z M 219 369 " clip-rule="nonzero"/></clipPath><clipPath id="65b6728aaf"><path d="M -177.5625 525.007812 L 398.410156 -80.765625 L 783.066406 284.964844 L 207.089844 890.738281 Z M -177.5625 525.007812 " clip-rule="nonzero"/></clipPath><clipPath id="52095b92af"><path d="M -177.5625 525.007812 L 398.410156 -80.765625 L 783.066406 284.964844 L 207.089844 890.738281 Z M -177.5625 525.007812 " clip-rule="nonzero"/></clipPath><clipPath id="204a5d80f5"><path d="M -177.5625 525.007812 L 398.410156 -80.765625 L 783.066406 284.964844 L 207.089844 890.738281 Z M -177.5625 525.007812 " clip-rule="nonzero"/></clipPath><clipPath id="54c1858761"><path d="M 18 402 L 264 402 L 264 480 L 18 480 Z M 18 402 " clip-rule="nonzero"/></clipPath><clipPath id="eb2fd09b95"><path d="M -177.5625 525.007812 L 398.410156 -80.765625 L 783.066406 284.964844 L 207.089844 890.738281 Z M -177.5625 525.007812 " clip-rule="nonzero"/></clipPath><clipPath id="0367fcad57"><path d="M -177.5625 525.007812 L 398.410156 -80.765625 L 783.066406 284.964844 L 207.089844 890.738281 Z M -177.5625 525.007812 " clip-rule="nonzero"/></clipPath><clipPath id="46ae546cac"><path d="M -177.5625 525.007812 L 398.410156 -80.765625 L 783.066406 284.964844 L 207.089844 890.738281 Z M -177.5625 525.007812 " clip-rule="nonzero"/></clipPath><clipPath id="2123e0cc30"><path d="M 256 344 L 278 344 L 278 409 L 256 409 Z M 256 344 " clip-rule="nonzero"/></clipPath><clipPath id="eca463363d"><path d="M -177.5625 525.007812 L 398.410156 -80.765625 L 783.066406 284.964844 L 207.089844 890.738281 Z M -177.5625 525.007812 " clip-rule="nonzero"/></clipPath><clipPath id="02fba66060"><path d="M -177.5625 525.007812 L 398.410156 -80.765625 L 783.066406 284.964844 L 207.089844 890.738281 Z M -177.5625 525.007812 " clip-rule="nonzero"/></clipPath><clipPath id="d4a9c60583"><path d="M -177.5625 525.007812 L 398.410156 -80.765625 L 783.066406 284.964844 L 207.089844 890.738281 Z M -177.5625 525.007812 " clip-rule="nonzero"/></clipPath><clipPath id="dd767d821b"><path d="M 0 419 L 252 419 L 252 548 L 0 548 Z M 0 419 " clip-rule="nonzero"/></clipPath><clipPath id="d347d5a0f5"><path d="M -177.5625 525.007812 L 398.410156 -80.765625 L 783.066406 284.964844 L 207.089844 890.738281 Z M -177.5625 525.007812 " clip-rule="nonzero"/></clipPath><clipPath id="31250834e3"><path d="M -177.5625 525.007812 L 398.410156 -80.765625 L 783.066406 284.964844 L 207.089844 890.738281 Z M -177.5625 525.007812 " clip-rule="nonzero"/></clipPath><clipPath id="4c3f954e19"><path d="M -177.5625 525.007812 L 398.410156 -80.765625 L 783.066406 284.964844 L 207.089844 890.738281 Z M -177.5625 525.007812 " clip-rule="nonzero"/></clipPath><clipPath id="ae98fa83ba"><path d="M 16 490 L 56 490 L 56 531 L 16 531 Z M 16 490 " clip-rule="nonzero"/></clipPath><clipPath id="ae7187842a"><path d="M -177.5625 525.007812 L 398.410156 -80.765625 L 783.066406 284.964844 L 207.089844 890.738281 Z M -177.5625 525.007812 " clip-rule="nonzero"/></clipPath><clipPath id="5009eac4de"><path d="M -177.5625 525.007812 L 398.410156 -80.765625 L 783.066406 284.964844 L 207.089844 890.738281 Z M -177.5625 525.007812 " clip-rule="nonzero"/></clipPath><clipPath id="884211c325"><path d="M -177.5625 525.007812 L 398.410156 -80.765625 L 783.066406 284.964844 L 207.089844 890.738281 Z M -177.5625 525.007812 " clip-rule="nonzero"/></clipPath><clipPath id="936a133a60"><path d="M 67 473 L 117 473 L 117 498 L 67 498 Z M 67 473 " clip-rule="nonzero"/></clipPath><clipPath id="6ab9e7ad1e"><path d="M -177.5625 525.007812 L 398.410156 -80.765625 L 783.066406 284.964844 L 207.089844 890.738281 Z M -177.5625 525.007812 " clip-rule="nonzero"/></clipPath><clipPath id="41fa165a4d"><path d="M -177.5625 525.007812 L 398.410156 -80.765625 L 783.066406 284.964844 L 207.089844 890.738281 Z M -177.5625 525.007812 " clip-rule="nonzero"/></clipPath><clipPath id="b37b5b9f2f"><path d="M -177.5625 525.007812 L 398.410156 -80.765625 L 783.066406 284.964844 L 207.089844 890.738281 Z M -177.5625 525.007812 " clip-rule="nonzero"/></clipPath><clipPath id="a79b8a68d0"><path d="M 125 462 L 156 462 L 156 481 L 125 481 Z M 125 462 " clip-rule="nonzero"/></clipPath><clipPath id="16c8c92067"><path d="M -177.5625 525.007812 L 398.410156 -80.765625 L 783.066406 284.964844 L 207.089844 890.738281 Z M -177.5625 525.007812 " clip-rule="nonzero"/></clipPath><clipPath id="a0b0df9880"><path d="M -177.5625 525.007812 L 398.410156 -80.765625 L 783.066406 284.964844 L 207.089844 890.738281 Z M -177.5625 525.007812 " clip-rule="nonzero"/></clipPath><clipPath id="a1cd0ff5ca"><path d="M -177.5625 525.007812 L 398.410156 -80.765625 L 783.066406 284.964844 L 207.089844 890.738281 Z M -177.5625 525.007812 " clip-rule="nonzero"/></clipPath><clipPath id="7c00ad1b86"><path d="M 63 483 L 151 483 L 151 515 L 63 515 Z M 63 483 " clip-rule="nonzero"/></clipPath><clipPath id="5c9ab12a89"><path d="M -177.5625 525.007812 L 398.410156 -80.765625 L 783.066406 284.964844 L 207.089844 890.738281 Z M -177.5625 525.007812 " clip-rule="nonzero"/></clipPath><clipPath id="a77286e4a6"><path d="M -177.5625 525.007812 L 398.410156 -80.765625 L 783.066406 284.964844 L 207.089844 890.738281 Z M -177.5625 525.007812 " clip-rule="nonzero"/></clipPath><clipPath id="4fba1b5295"><path d="M -177.5625 525.007812 L 398.410156 -80.765625 L 783.066406 284.964844 L 207.089844 890.738281 Z M -177.5625 525.007812 " clip-rule="nonzero"/></clipPath><clipPath id="e5ad5a23d6"><path d="M 200 445 L 226 445 L 226 472 L 200 472 Z M 200 445 " clip-rule="nonzero"/></clipPath><clipPath id="a7115344d3"><path d="M -177.5625 525.007812 L 398.410156 -80.765625 L 783.066406 284.964844 L 207.089844 890.738281 Z M -177.5625 525.007812 " clip-rule="nonzero"/></clipPath><clipPath id="c39ca45803"><path d="M -177.5625 525.007812 L 398.410156 -80.765625 L 783.066406 284.964844 L 207.089844 890.738281 Z M -177.5625 525.007812 " clip-rule="nonzero"/></clipPath><clipPath id="e15c2be508"><path d="M -177.5625 525.007812 L 398.410156 -80.765625 L 783.066406 284.964844 L 207.089844 890.738281 Z M -177.5625 525.007812 " clip-rule="nonzero"/></clipPath><clipPath id="45a969b346"><path d="M 0 477 L 245 477 L 245 555 L 0 555 Z M 0 477 " clip-rule="nonzero"/></clipPath><clipPath id="eb4b580916"><path d="M -177.5625 525.007812 L 398.410156 -80.765625 L 783.066406 284.964844 L 207.089844 890.738281 Z M -177.5625 525.007812 " clip-rule="nonzero"/></clipPath><clipPath id="48b3b55f2c"><path d="M -177.5625 525.007812 L 398.410156 -80.765625 L 783.066406 284.964844 L 207.089844 890.738281 Z M -177.5625 525.007812 " clip-rule="nonzero"/></clipPath><clipPath id="9d58d2afa9"><path d="M -177.5625 525.007812 L 398.410156 -80.765625 L 783.066406 284.964844 L 207.089844 890.738281 Z M -177.5625 525.007812 " clip-rule="nonzero"/></clipPath><clipPath id="c749da92c6"><path d="M 237 419 L 259 419 L 259 485 L 237 485 Z M 237 419 " clip-rule="nonzero"/></clipPath><clipPath id="8425a0001f"><path d="M -177.5625 525.007812 L 398.410156 -80.765625 L 783.066406 284.964844 L 207.089844 890.738281 Z M -177.5625 525.007812 " clip-rule="nonzero"/></clipPath><clipPath id="c990639b66"><path d="M -177.5625 525.007812 L 398.410156 -80.765625 L 783.066406 284.964844 L 207.089844 890.738281 Z M -177.5625 525.007812 " clip-rule="nonzero"/></clipPath><clipPath id="c3acae4c3b"><path d="M -177.5625 525.007812 L 398.410156 -80.765625 L 783.066406 284.964844 L 207.089844 890.738281 Z M -177.5625 525.007812 " clip-rule="nonzero"/></clipPath><clipPath id="98062fc4d5"><path d="M 103 657 L 316 657 L 316 725 L 103 725 Z M 103 657 " clip-rule="nonzero"/></clipPath><clipPath id="d9c150fcb9"><path d="M -177.5625 525.007812 L 398.410156 -80.765625 L 783.066406 284.964844 L 207.089844 890.738281 Z M -177.5625 525.007812 " clip-rule="nonzero"/></clipPath><clipPath id="20e3a18007"><path d="M -177.5625 525.007812 L 398.410156 -80.765625 L 783.066406 284.964844 L 207.089844 890.738281 Z M -177.5625 525.007812 " clip-rule="nonzero"/></clipPath><clipPath id="47ff04cf5d"><path d="M -177.5625 525.007812 L 398.410156 -80.765625 L 783.066406 284.964844 L 207.089844 890.738281 Z M -177.5625 525.007812 " clip-rule="nonzero"/></clipPath><clipPath id="022c4b1a8b"><path d="M 307 600 L 329 600 L 329 665 L 307 665 Z M 307 600 " clip-rule="nonzero"/></clipPath><clipPath id="102c2b7979"><path d="M -177.5625 525.007812 L 398.410156 -80.765625 L 783.066406 284.964844 L 207.089844 890.738281 Z M -177.5625 525.007812 " clip-rule="nonzero"/></clipPath><clipPath id="663c00357f"><path d="M -177.5625 525.007812 L 398.410156 -80.765625 L 783.066406 284.964844 L 207.089844 890.738281 Z M -177.5625 525.007812 " clip-rule="nonzero"/></clipPath><clipPath id="1603cc08de"><path d="M -177.5625 525.007812 L 398.410156 -80.765625 L 783.066406 284.964844 L 207.089844 890.738281 Z M -177.5625 525.007812 " clip-rule="nonzero"/></clipPath><clipPath id="c9ae825b52"><path d="M 103 600 L 322 600 L 322 718 L 103 718 Z M 103 600 " clip-rule="nonzero"/></clipPath><clipPath id="2c2b8641e1"><path d="M -177.5625 525.007812 L 398.410156 -80.765625 L 783.066406 284.964844 L 207.089844 890.738281 Z M -177.5625 525.007812 " clip-rule="nonzero"/></clipPath><clipPath id="16cc6ed3d3"><path d="M -177.5625 525.007812 L 398.410156 -80.765625 L 783.066406 284.964844 L 207.089844 890.738281 Z M -177.5625 525.007812 " clip-rule="nonzero"/></clipPath><clipPath id="f4010c6493"><path d="M -177.5625 525.007812 L 398.410156 -80.765625 L 783.066406 284.964844 L 207.089844 890.738281 Z M -177.5625 525.007812 " clip-rule="nonzero"/></clipPath><clipPath id="077ce2dc41"><path d="M 145 661 L 172 661 L 172 689 L 145 689 Z M 145 661 " clip-rule="nonzero"/></clipPath><clipPath id="4ec09af57c"><path d="M -177.5625 525.007812 L 398.410156 -80.765625 L 783.066406 284.964844 L 207.089844 890.738281 Z M -177.5625 525.007812 " clip-rule="nonzero"/></clipPath><clipPath id="b1f345b168"><path d="M -177.5625 525.007812 L 398.410156 -80.765625 L 783.066406 284.964844 L 207.089844 890.738281 Z M -177.5625 525.007812 " clip-rule="nonzero"/></clipPath><clipPath id="4de7f3da5d"><path d="M -177.5625 525.007812 L 398.410156 -80.765625 L 783.066406 284.964844 L 207.089844 890.738281 Z M -177.5625 525.007812 " clip-rule="nonzero"/></clipPath><clipPath id="85fe9368bb"><path d="M 253 629 L 280 629 L 280 657 L 253 657 Z M 253 629 " clip-rule="nonzero"/></clipPath><clipPath id="ce41de940c"><path d="M -177.5625 525.007812 L 398.410156 -80.765625 L 783.066406 284.964844 L 207.089844 890.738281 Z M -177.5625 525.007812 " clip-rule="nonzero"/></clipPath><clipPath id="92086a0bb7"><path d="M -177.5625 525.007812 L 398.410156 -80.765625 L 783.066406 284.964844 L 207.089844 890.738281 Z M -177.5625 525.007812 " clip-rule="nonzero"/></clipPath><clipPath id="a13ece4010"><path d="M -177.5625 525.007812 L 398.410156 -80.765625 L 783.066406 284.964844 L 207.089844 890.738281 Z M -177.5625 525.007812 " clip-rule="nonzero"/></clipPath><clipPath id="391b51da6a"><path d="M 199 655 L 222 655 L 222 679 L 199 679 Z M 199 655 " clip-rule="nonzero"/></clipPath><clipPath id="4ce0c5c5a0"><path d="M -177.5625 525.007812 L 398.410156 -80.765625 L 783.066406 284.964844 L 207.089844 890.738281 Z M -177.5625 525.007812 " clip-rule="nonzero"/></clipPath><clipPath id="4618bc7f69"><path d="M -177.5625 525.007812 L 398.410156 -80.765625 L 783.066406 284.964844 L 207.089844 890.738281 Z M -177.5625 525.007812 " clip-rule="nonzero"/></clipPath><clipPath id="a06eb95d7e"><path d="M -177.5625 525.007812 L 398.410156 -80.765625 L 783.066406 284.964844 L 207.089844 890.738281 Z M -177.5625 525.007812 " clip-rule="nonzero"/></clipPath><clipPath id="df077f567c"><path d="M 200 642 L 226 642 L 226 659 L 200 659 Z M 200 642 " clip-rule="nonzero"/></clipPath><clipPath id="f95ace2ca8"><path d="M -177.5625 525.007812 L 398.410156 -80.765625 L 783.066406 284.964844 L 207.089844 890.738281 Z M -177.5625 525.007812 " clip-rule="nonzero"/></clipPath><clipPath id="b7398c0b46"><path d="M -177.5625 525.007812 L 398.410156 -80.765625 L 783.066406 284.964844 L 207.089844 890.738281 Z M -177.5625 525.007812 " clip-rule="nonzero"/></clipPath><clipPath id="ef348bbcb0"><path d="M -177.5625 525.007812 L 398.410156 -80.765625 L 783.066406 284.964844 L 207.089844 890.738281 Z M -177.5625 525.007812 " clip-rule="nonzero"/></clipPath><clipPath id="a316f9e8ba"><path d="M 67 24 L 548 24 L 548 794 L 67 794 Z M 67 24 " clip-rule="nonzero"/></clipPath><clipPath id="cbd1e11305"><path d="M -177.5625 525.007812 L 398.410156 -80.765625 L 783.066406 284.964844 L 207.089844 890.738281 Z M -177.5625 525.007812 " clip-rule="nonzero"/></clipPath><clipPath id="faa3361d70"><path d="M -177.5625 525.007812 L 398.410156 -80.765625 L 783.066406 284.964844 L 207.089844 890.738281 Z M -177.5625 525.007812 " clip-rule="nonzero"/></clipPath><clipPath id="4871046133"><path d="M -177.5625 525.007812 L 398.410156 -80.765625 L 783.066406 284.964844 L 207.089844 890.738281 Z M -177.5625 525.007812 " clip-rule="nonzero"/></clipPath><clipPath id="4571a8d29a"><path d="M -68.046875 628.027344 L 506.816406 23.417969 L 783.585938 286.570312 L 208.722656 891.179688 Z M -68.046875 628.027344 " clip-rule="nonzero"/></clipPath><clipPath id="b5d5b241fc"><path d="M -68.046875 628.027344 L 506.816406 23.417969 L 782.496094 285.539062 L 207.636719 890.144531 Z M -68.046875 628.027344 " clip-rule="nonzero"/></clipPath></defs><g clip-path="url(#b48940620c)"><g clip-path="url(#662f8d9a28)"><g clip-path="url(#48256a42bf)"><g clip-path="url(#bc7935fc49)"><path fill="#364852" d="M 514.332031 51.722656 C 514.097656 53.535156 513.664062 55.355469 513.242188 57.167969 L 374.515625 632.128906 C 368.070312 659.398438 343.761719 687.109375 320.441406 693.886719 L 94.171875 760.738281 C 94.410156 758.929688 94.746094 757.207031 95.175781 755.390625 L 233.707031 180.433594 C 240.339844 153.164062 264.558594 125.546875 287.871094 118.582031 L 514.332031 51.722656 " fill-opacity="1" fill-rule="nonzero"/></g></g></g></g><g clip-path="url(#d741084ad4)"><g clip-path="url(#3c25057274)"><g clip-path="url(#ccdf8167d3)"><g clip-path="url(#a2edce612f)"><path fill="#506c7f" d="M 507.652344 24.214844 C 513.496094 29.773438 516.121094 39.5 514.332031 51.722656 C 514.097656 53.535156 513.664062 55.355469 513.242188 57.167969 L 374.515625 632.128906 C 368.070312 659.398438 343.761719 687.109375 320.441406 693.886719 L 94.171875 760.738281 L 92.660156 761.160156 C 82.089844 764.277344 73.582031 762.6875 67.929688 757.3125 C 61.207031 750.917969 58.820312 739.1875 62.4375 724.261719 L 200.964844 149.300781 C 207.601562 122.035156 231.820312 94.417969 255.132812 87.453125 L 482.824219 20.273438 C 493.398438 17.15625 502 18.839844 507.652344 24.214844 " fill-opacity="1" fill-rule="nonzero"/></g></g></g></g><g clip-path="url(#cee8229f16)"><g clip-path="url(#a13459cfe2)"><g clip-path="url(#83a4b113e5)"><g clip-path="url(#905ed270db)"><path fill="#364852" d="M 498.003906 77.554688 L 367.628906 618.265625 C 361.957031 641.792969 338.496094 666.5625 315.152344 673.457031 L 109.480469 734.164062 C 86.140625 741.058594 71.8125 727.4375 77.488281 703.914062 L 207.863281 163.203125 C 210.890625 150.652344 219.046875 137.683594 229.578125 127.289062 C 238.691406 118.28125 249.503906 111.210938 260.464844 107.972656 L 466.140625 47.261719 C 489.480469 40.371094 503.675781 54.027344 498.003906 77.554688 " fill-opacity="1" fill-rule="nonzero"/></g></g></g></g><g clip-path="url(#08f1f4ae4a)"><g clip-path="url(#953bbbbd60)"><g clip-path="url(#527a3e8cce)"><g clip-path="url(#4be46e59c4)"><path fill="#82c3ed" d="M 498.003906 77.554688 L 497.496094 79.652344 L 207.359375 165.296875 L 207.863281 163.203125 C 213.539062 139.671875 237.125 114.863281 260.464844 107.972656 L 466.140625 47.261719 C 489.480469 40.371094 503.675781 54.027344 498.003906 77.554688 " fill-opacity="1" fill-rule="nonzero"/></g></g></g></g><g clip-path="url(#79be14c885)"><g clip-path="url(#df10eca4ff)"><g clip-path="url(#533af66c50)"><g clip-path="url(#d99bed3413)"><path fill="#506c7f" d="M 433.519531 56.894531 L 428.53125 77.546875 C 426.742188 85 419.203125 92.929688 411.71875 95.136719 L 298.367188 128.589844 C 290.894531 130.796875 286.3125 126.441406 288.105469 118.996094 L 293.09375 98.34375 L 433.519531 56.894531 " fill-opacity="1" fill-rule="nonzero"/></g></g></g></g><g clip-path="url(#0c54ea9fbd)"><g clip-path="url(#3e5808395b)"><g clip-path="url(#1616cad57b)"><g clip-path="url(#e4ba0b0ae5)"><path fill="#364852" d="M 396.746094 84.828125 L 320.988281 107.1875 L 323.945312 94.933594 L 399.699219 72.566406 L 396.746094 84.828125 " fill-opacity="1" fill-rule="nonzero"/></g></g></g></g><g clip-path="url(#75da172bf6)"><g clip-path="url(#65ce196dcb)"><g clip-path="url(#8e52154907)"><g clip-path="url(#8b7e46dee8)"><path fill="#82c3ed" d="M 325.996094 193.941406 L 213.972656 227.011719 L 224.269531 184.316406 L 336.292969 151.25 L 325.996094 193.941406 " fill-opacity="1" fill-rule="nonzero"/></g></g></g></g><g clip-path="url(#f389b265d1)"><g clip-path="url(#8eeb1172dc)"><g clip-path="url(#cc3028b7a7)"><g clip-path="url(#f73e00bbe7)"><path fill="#ebd024" d="M 457.824219 155.03125 L 345.800781 188.101562 L 356.097656 145.40625 L 468.121094 112.335938 L 457.824219 155.03125 " fill-opacity="1" fill-rule="nonzero"/></g></g></g></g><g clip-path="url(#4db59556a1)"><g clip-path="url(#dd0b939105)"><g clip-path="url(#a1cbb68b86)"><g clip-path="url(#6dbb61940e)"><path fill="#dddaf1" d="M 384.953125 221.089844 L 263.714844 256.878906 L 267.984375 239.183594 L 389.222656 203.398438 L 384.953125 221.089844 " fill-opacity="1" fill-rule="nonzero"/></g></g></g></g><g clip-path="url(#38cad2ae3d)"><g clip-path="url(#9a20e45c42)"><g clip-path="url(#14c7e42790)"><g clip-path="url(#485d33b73f)"><path fill="#dddaf1" d="M 438.285156 236.0625 L 194.433594 308.042969 L 196.90625 297.792969 L 440.757812 225.8125 L 438.285156 236.0625 " fill-opacity="1" fill-rule="nonzero"/></g></g></g></g><g clip-path="url(#d27a525c49)"><g clip-path="url(#8955402792)"><g clip-path="url(#6c485cfc38)"><g clip-path="url(#18432b72e6)"><path fill="#dddaf1" d="M 433.347656 256.558594 L 189.496094 328.542969 L 191.96875 318.289062 L 435.8125 246.316406 L 433.347656 256.558594 " fill-opacity="1" fill-rule="nonzero"/></g></g></g></g><g clip-path="url(#59a453848f)"><g clip-path="url(#abc2af356f)"><g clip-path="url(#098d79f835)"><g clip-path="url(#4a1807cfdc)"><path fill="#dddaf1" d="M 428.402344 277.0625 L 184.546875 349.039062 L 187.019531 338.785156 L 430.875 266.8125 L 428.402344 277.0625 " fill-opacity="1" fill-rule="nonzero"/></g></g></g></g><g clip-path="url(#707c325dff)"><g clip-path="url(#c2b1819ff2)"><g clip-path="url(#98e80bcbd5)"><g clip-path="url(#619dcf2931)"><path fill="#82c3ed" d="M 216.480469 413.066406 L 165.480469 428.121094 L 177.949219 376.429688 L 228.945312 361.375 L 216.480469 413.066406 " fill-opacity="1" fill-rule="nonzero"/></g></g></g></g><g clip-path="url(#91e848f2b3)"><g clip-path="url(#2cbf5ef450)"><g clip-path="url(#b67846efa4)"><g clip-path="url(#a3fbab1ec0)"><path fill="#dddaf1" d="M 239.105469 389.574219 L 302.054688 370.988281 L 305.792969 355.507812 L 242.839844 374.085938 L 239.105469 389.574219 " fill-opacity="1" fill-rule="nonzero"/></g></g></g></g><g clip-path="url(#0d034c0f54)"><g clip-path="url(#562a916e84)"><g clip-path="url(#77a2b83451)"><g clip-path="url(#b41b874527)"><path fill="#dddaf1" d="M 321.746094 365.179688 L 354.882812 355.394531 L 358.617188 339.917969 L 325.480469 349.691406 L 321.746094 365.179688 " fill-opacity="1" fill-rule="nonzero"/></g></g></g></g><g clip-path="url(#b34fd481a8)"><g clip-path="url(#81205af97c)"><g clip-path="url(#03b8f827d6)"><g clip-path="url(#d2131df7cc)"><path fill="#ebd024" d="M 196.925781 494.15625 L 145.929688 509.210938 L 158.394531 457.519531 L 209.386719 442.46875 L 196.925781 494.15625 " fill-opacity="1" fill-rule="nonzero"/></g></g></g></g><g clip-path="url(#2466e2aa5d)"><g clip-path="url(#1f972eb5de)"><g clip-path="url(#198eb16200)"><g clip-path="url(#3b614ca3b7)"><path fill="#dddaf1" d="M 219.554688 470.660156 L 305.050781 445.429688 L 308.789062 429.945312 L 223.292969 455.179688 L 219.554688 470.660156 " fill-opacity="1" fill-rule="nonzero"/></g></g></g></g><g clip-path="url(#731f93ba46)"><g clip-path="url(#261a188547)"><g clip-path="url(#17f358b19d)"><g clip-path="url(#552f7c24d9)"><path fill="#dddaf1" d="M 331.796875 437.53125 L 376.800781 424.25 L 380.539062 408.769531 L 335.523438 422.050781 L 331.796875 437.53125 " fill-opacity="1" fill-rule="nonzero"/></g></g></g></g><g clip-path="url(#efc9ca87c9)"><g clip-path="url(#f503a84b62)"><g clip-path="url(#b253747ae8)"><g clip-path="url(#7d03d725ae)"><path fill="#e0183d" d="M 177.375 575.253906 L 126.382812 590.304688 L 138.835938 538.613281 L 189.839844 523.5625 L 177.375 575.253906 " fill-opacity="1" fill-rule="nonzero"/></g></g></g></g><g clip-path="url(#1132bdceb1)"><g clip-path="url(#3e28c097ec)"><g clip-path="url(#df56173339)"><g clip-path="url(#e0776c8d36)"><path fill="#dddaf1" d="M 200.007812 551.757812 L 262.949219 533.175781 L 266.6875 517.695312 L 203.734375 536.273438 L 200.007812 551.757812 " fill-opacity="1" fill-rule="nonzero"/></g></g></g></g><g clip-path="url(#a3a5061fe2)"><g clip-path="url(#e57263499a)"><g clip-path="url(#89a68db19f)"><g clip-path="url(#7a7e14db82)"><path fill="#82c3ed" d="M 157.949219 630.023438 C 157.539062 631.722656 157.386719 633.347656 157.519531 634.761719 L 112.390625 648.082031 L 114.75 638.285156 L 159.886719 624.957031 C 159.023438 626.546875 158.351562 628.328125 157.949219 630.023438 " fill-opacity="1" fill-rule="nonzero"/></g></g></g></g><g clip-path="url(#167125b122)"><g clip-path="url(#c5f2529d4d)"><g clip-path="url(#92abb50e67)"><g clip-path="url(#27019083b3)"><path fill="#dddaf1" d="M 358.726562 566.265625 L 356.363281 576.066406 L 157.519531 634.761719 C 157.386719 633.347656 157.539062 631.722656 157.949219 630.023438 C 158.351562 628.328125 159.023438 626.546875 159.886719 624.957031 L 358.726562 566.265625 " fill-opacity="1" fill-rule="nonzero"/></g></g></g></g><g clip-path="url(#7c0c036ba3)"><g clip-path="url(#e58339e299)"><g clip-path="url(#23416f87f7)"><g clip-path="url(#fa61091ea7)"><path fill="#82c3ed" d="M 194.175781 619.328125 C 193.773438 621.023438 193.101562 622.804688 192.207031 624.523438 C 188.28125 632.84375 179.941406 640.648438 171.550781 643.125 C 163.296875 645.5625 157.722656 641.859375 157.519531 634.761719 C 157.386719 633.347656 157.539062 631.722656 157.949219 630.023438 C 158.351562 628.328125 159.023438 626.546875 159.886719 624.957031 C 163.808594 616.636719 172.160156 608.832031 180.414062 606.394531 C 188.792969 603.917969 194.371094 607.613281 194.570312 614.71875 C 194.742188 616.011719 194.59375 617.628906 194.175781 619.328125 " fill-opacity="1" fill-rule="nonzero"/></g></g></g></g><g clip-path="url(#7b50c77d7f)"><g clip-path="url(#f961a73ce4)"><g clip-path="url(#132e051f1b)"><g clip-path="url(#6f93060edc)"><path fill="#788c97" d="M 382.910156 554.882812 L 438.1875 325.625 L 382.910156 554.882812 M 163.644531 346.574219 L 207.359375 165.296875 L 163.644531 346.574219 " fill-opacity="1" fill-rule="nonzero"/></g></g></g></g><g clip-path="url(#25104ff140)"><g clip-path="url(#a36cc2fa82)"><g clip-path="url(#bc9c537ff5)"><g clip-path="url(#b57a6729da)"><path fill="#5a6972" d="M 382.910156 554.882812 L 276.558594 453.839844 L 305.050781 445.429688 L 308.789062 429.945312 L 265.007812 442.867188 L 219.679688 399.800781 L 228.945312 361.375 L 191.015625 372.566406 L 163.644531 346.574219 L 207.359375 165.296875 L 254.816406 151.285156 L 274.085938 169.609375 L 224.269531 184.316406 L 213.972656 227.011719 L 305.921875 199.867188 L 328.484375 221.320312 L 267.984375 239.183594 L 263.714844 256.878906 L 341.679688 233.867188 L 358.6875 250.039062 L 196.90625 297.792969 L 194.433594 308.042969 L 366.328125 257.304688 L 373.96875 264.570312 L 191.96875 318.289062 L 189.496094 328.542969 L 381.605469 271.828125 L 389.246094 279.09375 L 187.019531 338.785156 L 184.546875 349.039062 L 396.886719 286.359375 L 438.1875 325.625 L 382.910156 554.882812 M 335.523438 422.050781 L 331.796875 437.53125 L 376.800781 424.25 L 380.539062 408.769531 L 335.523438 422.050781 M 325.480469 349.691406 L 321.746094 365.179688 L 354.882812 355.394531 L 358.617188 339.917969 L 325.480469 349.691406 M 242.839844 374.085938 L 239.105469 389.574219 L 302.054688 370.988281 L 305.792969 355.507812 L 242.839844 374.085938 M 207.863281 163.203125 C 207.996094 162.652344 208.136719 162.09375 208.292969 161.542969 C 208.136719 162.09375 207.996094 162.652344 207.863281 163.203125 M 208.300781 161.523438 C 208.300781 161.511719 208.304688 161.496094 208.308594 161.480469 C 208.304688 161.496094 208.300781 161.511719 208.300781 161.523438 " fill-opacity="1" fill-rule="nonzero"/></g></g></g></g><g clip-path="url(#11c5f1a82b)"><g clip-path="url(#d54177815b)"><g clip-path="url(#c2a6be7501)"><g clip-path="url(#3f84a1d8a1)"><path fill="#9ad2f2" d="M 254.816406 151.285156 L 207.359375 165.296875 L 207.863281 163.203125 C 207.996094 162.652344 208.136719 162.09375 208.292969 161.542969 C 208.296875 161.539062 208.296875 161.527344 208.300781 161.523438 C 208.300781 161.511719 208.304688 161.496094 208.308594 161.480469 C 211.40625 150.324219 218.433594 138.9375 227.480469 129.421875 C 228.167969 128.699219 228.867188 127.992188 229.578125 127.289062 L 254.816406 151.285156 " fill-opacity="1" fill-rule="nonzero"/></g></g></g></g><g clip-path="url(#cc5c8de3df)"><g clip-path="url(#fa3d51a32d)"><g clip-path="url(#59987f1b59)"><g clip-path="url(#74d7f15cb2)"><path fill="#9ad2f2" d="M 305.921875 199.867188 L 213.972656 227.011719 L 224.269531 184.316406 L 274.085938 169.609375 L 305.921875 199.867188 " fill-opacity="1" fill-rule="nonzero"/></g></g></g></g><g clip-path="url(#ba9a1e34b7)"><g clip-path="url(#03d6c0d3c2)"><g clip-path="url(#6722ab3439)"><g clip-path="url(#e3212c54f4)"><path fill="#e3e1f3" d="M 341.679688 233.867188 L 263.714844 256.878906 L 267.984375 239.183594 L 328.484375 221.320312 L 341.679688 233.867188 " fill-opacity="1" fill-rule="nonzero"/></g></g></g></g><g clip-path="url(#bfe60be1d1)"><g clip-path="url(#d55e9fc449)"><g clip-path="url(#5456c5342e)"><g clip-path="url(#932cf34317)"><path fill="#e3e1f3" d="M 366.328125 257.304688 L 194.433594 308.042969 L 196.90625 297.792969 L 358.6875 250.039062 L 366.328125 257.304688 " fill-opacity="1" fill-rule="nonzero"/></g></g></g></g><g clip-path="url(#f2a0308c55)"><g clip-path="url(#8155dc672a)"><g clip-path="url(#d40cd713b9)"><g clip-path="url(#d5c6a52ab9)"><path fill="#e3e1f3" d="M 381.605469 271.828125 L 189.496094 328.542969 L 191.96875 318.289062 L 373.96875 264.570312 L 381.605469 271.828125 " fill-opacity="1" fill-rule="nonzero"/></g></g></g></g><g clip-path="url(#324b471af2)"><g clip-path="url(#bffe732d40)"><g clip-path="url(#e17425affa)"><g clip-path="url(#3da97355b8)"><path fill="#e3e1f3" d="M 396.886719 286.359375 L 184.546875 349.039062 L 187.019531 338.785156 L 389.246094 279.09375 L 396.886719 286.359375 " fill-opacity="1" fill-rule="nonzero"/></g></g></g></g><g clip-path="url(#25c0b859c8)"><g clip-path="url(#9de2e20ace)"><g clip-path="url(#cb7e8536f8)"><g clip-path="url(#2f1db78ca2)"><path fill="#9ad2f2" d="M 219.679688 399.800781 L 191.015625 372.566406 L 228.945312 361.375 L 219.679688 399.800781 " fill-opacity="1" fill-rule="nonzero"/></g></g></g></g><g clip-path="url(#bd3a99ebe1)"><g clip-path="url(#272e9b7d4c)"><g clip-path="url(#22de87e8bf)"><g clip-path="url(#39279a7bca)"><path fill="#e3e1f3" d="M 302.054688 370.988281 L 239.105469 389.574219 L 242.839844 374.085938 L 305.792969 355.507812 L 302.054688 370.988281 " fill-opacity="1" fill-rule="nonzero"/></g></g></g></g><g clip-path="url(#b517bec5a4)"><g clip-path="url(#944874caf7)"><g clip-path="url(#5f00eed5a5)"><g clip-path="url(#cc94476ab6)"><path fill="#e3e1f3" d="M 354.882812 355.394531 L 321.746094 365.179688 L 325.480469 349.691406 L 358.617188 339.917969 L 354.882812 355.394531 " fill-opacity="1" fill-rule="nonzero"/></g></g></g></g><g clip-path="url(#55fca909ef)"><g clip-path="url(#76260c0e50)"><g clip-path="url(#b9e6f651c6)"><g clip-path="url(#08b5235626)"><path fill="#e3e1f3" d="M 305.050781 445.429688 L 276.558594 453.839844 L 265.007812 442.867188 L 308.789062 429.945312 L 305.050781 445.429688 " fill-opacity="1" fill-rule="nonzero"/></g></g></g></g><g clip-path="url(#4c7e3dfea1)"><g clip-path="url(#c4d3157441)"><g clip-path="url(#57325137fa)"><g clip-path="url(#c7e6df0eb0)"><path fill="#e3e1f3" d="M 376.800781 424.25 L 331.796875 437.53125 L 335.523438 422.050781 L 380.539062 408.769531 L 376.800781 424.25 " fill-opacity="1" fill-rule="nonzero"/></g></g></g></g><g clip-path="url(#1d1211059c)"><g clip-path="url(#3ef606020e)"><g clip-path="url(#50b6a2bceb)"><g clip-path="url(#10d02dede8)"><path fill="#506c7f" d="M 275.597656 326.84375 L 37.824219 397.035156 L 51.734375 339.347656 L 289.515625 269.160156 L 275.597656 326.84375 " fill-opacity="1" fill-rule="nonzero"/></g></g></g></g><g clip-path="url(#53490d4e93)"><g clip-path="url(#709b47e846)"><g clip-path="url(#d890d38648)"><g clip-path="url(#cb4cca0d6b)"><path fill="#82c3ed" d="M 92.585938 354.078125 C 90.019531 364.726562 79.417969 375.875 68.914062 378.964844 C 58.410156 382.070312 51.976562 375.949219 54.539062 365.308594 C 57.109375 354.660156 67.707031 343.511719 78.214844 340.410156 C 88.71875 337.308594 95.152344 343.425781 92.585938 354.078125 " fill-opacity="1" fill-rule="nonzero"/></g></g></g></g><g clip-path="url(#9d1d697dac)"><g clip-path="url(#529d93db2d)"><g clip-path="url(#f03ab491d5)"><g clip-path="url(#2025b4fc79)"><path fill="#ffffff" d="M 152.089844 333.207031 L 104.910156 347.140625 L 107.335938 337.0625 L 154.515625 323.132812 L 152.089844 333.207031 " fill-opacity="1" fill-rule="nonzero"/></g></g></g></g><g clip-path="url(#d27d45462b)"><g clip-path="url(#e228d95094)"><g clip-path="url(#f97c211911)"><g clip-path="url(#6edb7e572d)"><path fill="#ffffff" d="M 191.152344 321.679688 L 163.207031 329.925781 L 165.640625 319.851562 L 193.582031 311.601562 L 191.152344 321.679688 " fill-opacity="1" fill-rule="nonzero"/></g></g></g></g><g clip-path="url(#7b96fb9755)"><g clip-path="url(#d3d3dc5cf7)"><g clip-path="url(#e703ec08fc)"><g clip-path="url(#d651acb881)"><path fill="#ffffff" d="M 187.144531 338.285156 L 100.90625 363.746094 L 102.351562 357.753906 L 188.589844 332.296875 L 187.144531 338.285156 " fill-opacity="1" fill-rule="nonzero"/></g></g></g></g><g clip-path="url(#02cfda5d16)"><g clip-path="url(#daa5ac6ed9)"><g clip-path="url(#245a43b76d)"><g clip-path="url(#beb61c030e)"><path fill="#dddaf1" d="M 258.460938 314.460938 L 238.613281 320.320312 L 243.460938 300.199219 L 263.3125 294.339844 L 258.460938 314.460938 " fill-opacity="1" fill-rule="nonzero"/></g></g></g></g><g clip-path="url(#35fd856a9e)"><g clip-path="url(#a3cddd48ec)"><g clip-path="url(#81b55bb687)"><g clip-path="url(#0f06946ecf)"><path fill="#364852" d="M 282.628906 333.53125 L 44.851562 403.714844 L 37.816406 397.023438 L 275.589844 326.839844 L 282.628906 333.53125 " fill-opacity="1" fill-rule="nonzero"/></g></g></g></g><g clip-path="url(#51534e0d37)"><g clip-path="url(#3b951fa7c7)"><g clip-path="url(#6419023e5e)"><g clip-path="url(#20e79218fc)"><path fill="#30383f" d="M 296.542969 275.839844 L 282.628906 333.53125 L 275.589844 326.839844 L 289.503906 269.148438 L 296.542969 275.839844 " fill-opacity="1" fill-rule="nonzero"/></g></g></g></g><g clip-path="url(#68875974c2)"><g clip-path="url(#bfcea3e128)"><g clip-path="url(#a0fad07841)"><g clip-path="url(#b7711b6715)"><path fill="#506c7f" d="M 256.746094 402.214844 L 18.964844 472.402344 L 32.878906 414.710938 L 270.652344 344.53125 L 256.746094 402.214844 " fill-opacity="1" fill-rule="nonzero"/></g></g></g></g><g clip-path="url(#9df23a5aef)"><g clip-path="url(#f58fa3adfe)"><g clip-path="url(#221e9dafb2)"><g clip-path="url(#29e6e2d511)"><path fill="#ebd024" d="M 73.726562 429.449219 C 71.15625 440.097656 60.5625 451.238281 50.058594 454.339844 C 39.546875 457.4375 33.113281 451.320312 35.683594 440.675781 C 38.253906 430.027344 48.847656 418.882812 59.351562 415.78125 C 69.855469 412.679688 76.296875 418.789062 73.726562 429.449219 " fill-opacity="1" fill-rule="nonzero"/></g></g></g></g><g clip-path="url(#433392b0ca)"><g clip-path="url(#ce8829047a)"><g clip-path="url(#57001e3bba)"><g clip-path="url(#958daeea2b)"><path fill="#ffffff" d="M 133.230469 408.578125 L 86.054688 422.503906 L 88.480469 412.429688 L 135.65625 398.503906 L 133.230469 408.578125 " fill-opacity="1" fill-rule="nonzero"/></g></g></g></g><g clip-path="url(#a0db8e3bf3)"><g clip-path="url(#808d3a614d)"><g clip-path="url(#bec7d04a28)"><g clip-path="url(#9c73ccb8ce)"><path fill="#ffffff" d="M 172.292969 397.046875 L 144.351562 405.292969 L 146.78125 395.222656 L 174.71875 386.972656 L 172.292969 397.046875 " fill-opacity="1" fill-rule="nonzero"/></g></g></g></g><g clip-path="url(#afe9f31297)"><g clip-path="url(#fae28dc1ce)"><g clip-path="url(#1be6c427e5)"><g clip-path="url(#bcf89f47a9)"><path fill="#ffffff" d="M 168.289062 413.664062 L 82.042969 439.113281 L 83.488281 433.125 L 169.730469 407.667969 L 168.289062 413.664062 " fill-opacity="1" fill-rule="nonzero"/></g></g></g></g><g clip-path="url(#09e72ca668)"><g clip-path="url(#65b6728aaf)"><g clip-path="url(#52095b92af)"><g clip-path="url(#204a5d80f5)"><path fill="#dddaf1" d="M 239.605469 389.828125 L 219.753906 395.683594 L 224.605469 375.566406 L 244.457031 369.707031 L 239.605469 389.828125 " fill-opacity="1" fill-rule="nonzero"/></g></g></g></g><g clip-path="url(#54c1858761)"><g clip-path="url(#eb2fd09b95)"><g clip-path="url(#0367fcad57)"><g clip-path="url(#46ae546cac)"><path fill="#364852" d="M 263.773438 408.898438 L 25.992188 479.085938 L 18.953125 472.394531 L 256.734375 402.207031 L 263.773438 408.898438 " fill-opacity="1" fill-rule="nonzero"/></g></g></g></g><g clip-path="url(#2123e0cc30)"><g clip-path="url(#eca463363d)"><g clip-path="url(#02fba66060)"><g clip-path="url(#d4a9c60583)"><path fill="#30383f" d="M 277.679688 351.210938 L 263.773438 408.898438 L 256.734375 402.207031 L 270.640625 344.519531 L 277.679688 351.210938 " fill-opacity="1" fill-rule="nonzero"/></g></g></g></g><g clip-path="url(#dd767d821b)"><g clip-path="url(#d347d5a0f5)"><g clip-path="url(#31250834e3)"><g clip-path="url(#4c3f954e19)"><path fill="#506c7f" d="M 237.886719 477.582031 L 0.109375 547.769531 L 14.015625 490.082031 L 251.796875 419.894531 L 237.886719 477.582031 " fill-opacity="1" fill-rule="nonzero"/></g></g></g></g><g clip-path="url(#ae98fa83ba)"><g clip-path="url(#ae7187842a)"><g clip-path="url(#5009eac4de)"><g clip-path="url(#884211c325)"><path fill="#e0183d" d="M 54.871094 504.8125 C 52.300781 515.460938 41.703125 526.609375 31.203125 529.707031 C 20.695312 532.808594 14.261719 526.691406 16.820312 516.042969 C 19.390625 505.398438 29.992188 494.25 40.496094 491.148438 C 51.003906 488.046875 57.4375 494.167969 54.871094 504.8125 " fill-opacity="1" fill-rule="nonzero"/></g></g></g></g><g clip-path="url(#936a133a60)"><g clip-path="url(#6ab9e7ad1e)"><g clip-path="url(#41fa165a4d)"><g clip-path="url(#b37b5b9f2f)"><path fill="#ffffff" d="M 114.367188 483.949219 L 67.195312 497.875 L 69.625 487.792969 L 116.804688 473.875 L 114.367188 483.949219 " fill-opacity="1" fill-rule="nonzero"/></g></g></g></g><g clip-path="url(#a79b8a68d0)"><g clip-path="url(#16c8c92067)"><g clip-path="url(#a0b0df9880)"><g clip-path="url(#a1cd0ff5ca)"><path fill="#ffffff" d="M 153.433594 472.417969 L 125.492188 480.667969 L 127.921875 470.585938 L 155.863281 462.335938 L 153.433594 472.417969 " fill-opacity="1" fill-rule="nonzero"/></g></g></g></g><g clip-path="url(#7c00ad1b86)"><g clip-path="url(#5c9ab12a89)"><g clip-path="url(#a77286e4a6)"><g clip-path="url(#4fba1b5295)"><path fill="#ffffff" d="M 149.429688 489.027344 L 63.191406 514.484375 L 64.632812 508.492188 L 150.875 483.035156 L 149.429688 489.027344 " fill-opacity="1" fill-rule="nonzero"/></g></g></g></g><g clip-path="url(#e5ad5a23d6)"><g clip-path="url(#a7115344d3)"><g clip-path="url(#c39ca45803)"><g clip-path="url(#e15c2be508)"><path fill="#dddaf1" d="M 220.742188 465.195312 L 200.894531 471.054688 L 205.746094 450.9375 L 225.59375 445.078125 L 220.742188 465.195312 " fill-opacity="1" fill-rule="nonzero"/></g></g></g></g><g clip-path="url(#45a969b346)"><g clip-path="url(#eb4b580916)"><g clip-path="url(#48b3b55f2c)"><g clip-path="url(#9d58d2afa9)"><path fill="#364852" d="M 244.914062 484.261719 L 7.136719 554.449219 L 0.0976562 547.757812 L 237.878906 477.570312 L 244.914062 484.261719 " fill-opacity="1" fill-rule="nonzero"/></g></g></g></g><g clip-path="url(#c749da92c6)"><g clip-path="url(#8425a0001f)"><g clip-path="url(#c990639b66)"><g clip-path="url(#c3acae4c3b)"><path fill="#30383f" d="M 258.824219 426.578125 L 244.910156 484.269531 L 237.871094 477.574219 L 251.785156 419.886719 L 258.824219 426.578125 " fill-opacity="1" fill-rule="nonzero"/></g></g></g></g><g clip-path="url(#98062fc4d5)"><g clip-path="url(#d9c150fcb9)"><g clip-path="url(#20e3a18007)"><g clip-path="url(#47ff04cf5d)"><path fill="#364852" d="M 315.003906 664.242188 L 110.375 724.640625 L 103.195312 717.8125 L 307.824219 657.414062 L 315.003906 664.242188 " fill-opacity="1" fill-rule="nonzero"/></g></g></g></g><g clip-path="url(#022c4b1a8b)"><g clip-path="url(#102c2b7979)"><g clip-path="url(#663c00357f)"><g clip-path="url(#1603cc08de)"><path fill="#30383f" d="M 328.675781 607.53125 L 315.003906 664.242188 L 307.824219 657.414062 L 321.5 600.710938 L 328.675781 607.53125 " fill-opacity="1" fill-rule="nonzero"/></g></g></g></g><g clip-path="url(#c9ae825b52)"><g clip-path="url(#2c2b8641e1)"><g clip-path="url(#16cc6ed3d3)"><g clip-path="url(#f4010c6493)"><path fill="#506c7f" d="M 307.738281 657.335938 L 103.109375 717.734375 L 116.78125 661.023438 L 321.410156 600.625 L 307.738281 657.335938 " fill-opacity="1" fill-rule="nonzero"/></g></g></g></g><g clip-path="url(#077ce2dc41)"><g clip-path="url(#4ec09af57c)"><g clip-path="url(#b1f345b168)"><g clip-path="url(#4de7f3da5d)"><path fill="#dddaf1" d="M 171.128906 671.324219 C 169.414062 678.4375 162.328125 685.890625 155.304688 687.96875 C 148.285156 690.035156 143.980469 685.941406 145.695312 678.832031 C 147.410156 671.707031 154.496094 664.253906 161.519531 662.1875 C 168.542969 660.109375 172.84375 664.203125 171.128906 671.324219 " fill-opacity="1" fill-rule="nonzero"/></g></g></g></g><g clip-path="url(#85fe9368bb)"><g clip-path="url(#ce41de940c)"><g clip-path="url(#92086a0bb7)"><g clip-path="url(#a13ece4010)"><path fill="#dddaf1" d="M 278.824219 639.527344 C 277.109375 646.648438 270.027344 654.097656 263 656.171875 C 255.980469 658.246094 251.675781 654.15625 253.398438 647.039062 C 255.109375 639.921875 262.195312 632.46875 269.222656 630.394531 C 276.238281 628.324219 280.542969 632.414062 278.824219 639.527344 " fill-opacity="1" fill-rule="nonzero"/></g></g></g></g><g clip-path="url(#391b51da6a)"><g clip-path="url(#4ce0c5c5a0)"><g clip-path="url(#4618bc7f69)"><g clip-path="url(#a06eb95d7e)"><path fill="#dddaf1" d="M 217.140625 673.179688 L 199.367188 678.429688 L 203.714844 660.417969 L 221.480469 655.175781 L 217.140625 673.179688 " fill-opacity="1" fill-rule="nonzero"/></g></g></g></g><g clip-path="url(#df077f567c)"><g clip-path="url(#f95ace2ca8)"><g clip-path="url(#b7398c0b46)"><g clip-path="url(#ef348bbcb0)"><path fill="#dddaf1" d="M 225.757812 651.578125 L 200.636719 659 L 216.269531 642.554688 Z M 225.757812 651.578125 " fill-opacity="1" fill-rule="nonzero"/></g></g></g></g><g clip-path="url(#a316f9e8ba)"><g clip-path="url(#cbd1e11305)"><g clip-path="url(#faa3361d70)"><g clip-path="url(#4871046133)"><g clip-path="url(#4571a8d29a)"><g clip-path="url(#b5d5b241fc)"><path fill="#364852" d="M 507.652344 24.214844 L 540.390625 55.339844 C 547.113281 61.734375 549.496094 73.464844 545.980469 88.296875 L 407.253906 663.257812 C 400.808594 690.527344 376.5 718.238281 353.273438 725.105469 L 125.398438 792.285156 C 114.828125 795.40625 106.320312 793.8125 100.671875 788.445312 L 67.929688 757.3125 C 73.582031 762.6875 82.089844 764.277344 92.660156 761.160156 L 94.171875 760.738281 L 320.441406 693.886719 C 343.761719 687.109375 368.070312 659.398438 374.515625 632.128906 L 513.242188 57.167969 C 513.664062 55.355469 514.097656 53.535156 514.332031 51.722656 C 516.121094 39.5 513.496094 29.773438 507.652344 24.214844 " fill-opacity="1" fill-rule="nonzero"/></g></g></g></g></g></g></svg>