<?xml version="1.0" encoding="UTF-8" standalone="no"?><svg xmlns="http://www.w3.org/2000/svg" xmlns:xlink="http://www.w3.org/1999/xlink" width="1080" zoomAndPan="magnify" viewBox="0 0 810 809.999993" height="1080" preserveAspectRatio="xMidYMid meet" version="1.0"><path fill="#ffffff" d="M 759.375 31.640625 C 759.375 32.054688 759.335938 32.46875 759.253906 32.875 C 759.171875 33.28125 759.050781 33.679688 758.894531 34.0625 C 758.734375 34.445312 758.539062 34.8125 758.308594 35.15625 C 758.078125 35.5 757.816406 35.820312 757.519531 36.117188 C 757.226562 36.410156 756.90625 36.671875 756.5625 36.902344 C 756.21875 37.132812 755.851562 37.328125 755.46875 37.488281 C 755.085938 37.644531 754.6875 37.765625 754.28125 37.847656 C 753.875 37.929688 753.460938 37.96875 753.046875 37.96875 C 752.632812 37.96875 752.21875 37.929688 751.8125 37.847656 C 751.40625 37.765625 751.007812 37.644531 750.625 37.488281 C 750.242188 37.328125 749.875 37.132812 749.53125 36.902344 C 749.183594 36.671875 748.867188 36.410156 748.570312 36.117188 C 748.277344 35.820312 748.015625 35.5 747.785156 35.15625 C 747.554688 34.8125 747.359375 34.445312 747.199219 34.0625 C 747.042969 33.679688 746.921875 33.28125 746.839844 32.875 C 746.757812 32.46875 746.71875 32.054688 746.71875 31.640625 C 746.71875 31.226562 746.757812 30.8125 746.839844 30.40625 C 746.921875 30 747.042969 29.601562 747.199219 29.21875 C 747.359375 28.835938 747.554688 28.46875 747.785156 28.125 C 748.015625 27.78125 748.277344 27.460938 748.570312 27.164062 C 748.867188 26.871094 749.183594 26.609375 749.53125 26.378906 C 749.875 26.148438 750.242188 25.953125 750.625 25.792969 C 751.007812 25.636719 751.40625 25.515625 751.8125 25.433594 C 752.21875 25.351562 752.632812 25.3125 753.046875 25.3125 C 753.460938 25.3125 753.875 25.351562 754.28125 25.433594 C 754.6875 25.515625 755.085938 25.636719 755.46875 25.792969 C 755.851562 25.953125 756.21875 26.148438 756.5625 26.378906 C 756.90625 26.609375 757.226562 26.871094 757.519531 27.164062 C 757.816406 27.460938 758.078125 27.78125 758.308594 28.125 C 758.539062 28.46875 758.734375 28.835938 758.894531 29.21875 C 759.050781 29.601562 759.171875 30 759.253906 30.40625 C 759.335938 30.8125 759.375 31.226562 759.375 31.640625 Z M 759.375 31.640625 " fill-opacity="1" fill-rule="nonzero"/><path fill="#ffffff" d="M 728.113281 25.324219 C 728.527344 25.347656 728.933594 25.414062 729.335938 25.519531 C 729.738281 25.625 730.125 25.765625 730.5 25.949219 C 730.875 26.128906 731.226562 26.347656 731.558594 26.597656 C 731.886719 26.847656 732.191406 27.128906 732.46875 27.441406 C 732.742188 27.75 732.988281 28.085938 733.195312 28.445312 C 733.40625 28.804688 733.578125 29.179688 733.714844 29.570312 C 733.851562 29.964844 733.945312 30.367188 734.003906 30.777344 C 734.058594 31.191406 734.074219 31.601562 734.050781 32.019531 C 734.027344 32.433594 733.960938 32.839844 733.855469 33.242188 C 733.75 33.644531 733.609375 34.03125 733.425781 34.40625 C 733.246094 34.78125 733.027344 35.132812 732.777344 35.464844 C 732.527344 35.796875 732.246094 36.097656 731.933594 36.375 C 731.625 36.648438 731.289062 36.894531 730.929688 37.101562 C 730.570312 37.3125 730.195312 37.484375 729.804688 37.621094 C 729.410156 37.757812 729.007812 37.851562 728.597656 37.910156 C 728.183594 37.964844 727.773438 37.980469 727.355469 37.957031 C 726.941406 37.933594 726.535156 37.867188 726.132812 37.761719 C 725.730469 37.65625 725.34375 37.515625 724.96875 37.332031 C 724.59375 37.152344 724.242188 36.933594 723.910156 36.683594 C 723.578125 36.433594 723.277344 36.152344 723 35.839844 C 722.726562 35.53125 722.480469 35.195312 722.273438 34.835938 C 722.0625 34.476562 721.890625 34.101562 721.753906 33.710938 C 721.617188 33.316406 721.523438 32.914062 721.464844 32.503906 C 721.410156 32.089844 721.394531 31.679688 721.417969 31.261719 C 721.441406 30.847656 721.507812 30.441406 721.613281 30.039062 C 721.71875 29.636719 721.859375 29.25 722.042969 28.875 C 722.222656 28.5 722.441406 28.148438 722.691406 27.816406 C 722.941406 27.488281 723.222656 27.183594 723.535156 26.90625 C 723.84375 26.632812 724.179688 26.390625 724.539062 26.179688 C 724.898438 25.96875 725.273438 25.796875 725.664062 25.660156 C 726.058594 25.523438 726.460938 25.429688 726.871094 25.371094 C 727.285156 25.316406 727.695312 25.300781 728.113281 25.324219 Z M 728.113281 25.324219 " fill-opacity="1" fill-rule="nonzero"/><path fill="#ffffff" d="M 702.800781 25.324219 C 703.214844 25.347656 703.621094 25.414062 704.023438 25.519531 C 704.425781 25.625 704.8125 25.765625 705.1875 25.949219 C 705.5625 26.128906 705.914062 26.347656 706.246094 26.597656 C 706.574219 26.847656 706.878906 27.128906 707.15625 27.441406 C 707.429688 27.75 707.675781 28.085938 707.882812 28.445312 C 708.09375 28.804688 708.265625 29.179688 708.402344 29.570312 C 708.539062 29.964844 708.632812 30.367188 708.691406 30.777344 C 708.746094 31.191406 708.761719 31.601562 708.738281 32.019531 C 708.714844 32.433594 708.648438 32.839844 708.542969 33.242188 C 708.4375 33.644531 708.296875 34.03125 708.113281 34.40625 C 707.933594 34.78125 707.714844 35.132812 707.464844 35.464844 C 707.214844 35.796875 706.933594 36.097656 706.621094 36.375 C 706.3125 36.648438 705.976562 36.894531 705.617188 37.101562 C 705.257812 37.3125 704.882812 37.484375 704.492188 37.621094 C 704.097656 37.757812 703.695312 37.851562 703.285156 37.910156 C 702.871094 37.964844 702.460938 37.980469 702.042969 37.957031 C 701.628906 37.933594 701.222656 37.867188 700.820312 37.761719 C 700.417969 37.65625 700.03125 37.515625 699.65625 37.332031 C 699.28125 37.152344 698.929688 36.933594 698.597656 36.683594 C 698.269531 36.433594 697.964844 36.152344 697.6875 35.839844 C 697.414062 35.53125 697.167969 35.195312 696.960938 34.835938 C 696.75 34.476562 696.578125 34.101562 696.441406 33.710938 C 696.304688 33.316406 696.210938 32.914062 696.152344 32.503906 C 696.097656 32.089844 696.082031 31.679688 696.105469 31.261719 C 696.128906 30.847656 696.195312 30.441406 696.300781 30.039062 C 696.40625 29.636719 696.546875 29.25 696.730469 28.875 C 696.910156 28.5 697.128906 28.148438 697.378906 27.816406 C 697.628906 27.488281 697.910156 27.183594 698.222656 26.90625 C 698.53125 26.632812 698.867188 26.386719 699.226562 26.179688 C 699.585938 25.96875 699.960938 25.796875 700.351562 25.660156 C 700.746094 25.523438 701.148438 25.429688 701.558594 25.371094 C 701.972656 25.316406 702.382812 25.300781 702.800781 25.324219 Z M 702.800781 25.324219 " fill-opacity="1" fill-rule="nonzero"/><path fill="#ffffff" d="M 746.71875 297.421875 L 411.328125 297.421875 C 407.832031 297.421875 405 300.253906 405 303.75 C 405 307.246094 407.832031 310.078125 411.328125 310.078125 L 746.71875 310.078125 C 750.214844 310.078125 753.046875 307.246094 753.046875 303.75 C 753.046875 300.253906 750.214844 297.421875 746.71875 297.421875 Z M 746.71875 297.421875 " fill-opacity="1" fill-rule="nonzero"/><path fill="#ffffff" d="M 746.71875 335.390625 L 411.328125 335.390625 C 407.832031 335.390625 405 338.222656 405 341.71875 C 405 345.214844 407.832031 348.046875 411.328125 348.046875 L 746.71875 348.046875 C 750.214844 348.046875 753.046875 345.214844 753.046875 341.71875 C 753.046875 338.222656 750.214844 335.390625 746.71875 335.390625 Z M 746.71875 335.390625 " fill-opacity="1" fill-rule="nonzero"/><path fill="#ffffff" d="M 746.71875 373.359375 L 411.328125 373.359375 C 407.832031 373.359375 405 376.191406 405 379.6875 C 405 383.183594 407.832031 386.015625 411.328125 386.015625 L 746.71875 386.015625 C 750.214844 386.015625 753.046875 383.183594 753.046875 379.6875 C 753.046875 376.191406 750.214844 373.359375 746.71875 373.359375 Z M 746.71875 373.359375 " fill-opacity="1" fill-rule="nonzero"/><path fill="#ffffff" d="M 746.71875 411.328125 L 411.328125 411.328125 C 407.832031 411.328125 405 414.160156 405 417.65625 C 405 421.152344 407.832031 423.984375 411.328125 423.984375 L 746.71875 423.984375 C 750.214844 423.984375 753.046875 421.152344 753.046875 417.65625 C 753.046875 414.160156 750.214844 411.328125 746.71875 411.328125 Z M 746.71875 411.328125 " fill-opacity="1" fill-rule="nonzero"/><path fill="#ffffff" d="M 746.71875 449.296875 L 411.328125 449.296875 C 407.832031 449.296875 405 452.128906 405 455.625 C 405 459.121094 407.832031 461.953125 411.328125 461.953125 L 746.71875 461.953125 C 750.214844 461.953125 753.046875 459.121094 753.046875 455.625 C 753.046875 452.128906 750.214844 449.296875 746.71875 449.296875 Z M 746.71875 449.296875 " fill-opacity="1" fill-rule="nonzero"/><path fill="#ffffff" d="M 746.71875 487.265625 L 411.328125 487.265625 C 407.832031 487.265625 405 490.097656 405 493.59375 C 405 497.089844 407.832031 499.921875 411.328125 499.921875 L 746.71875 499.921875 C 750.214844 499.921875 753.046875 497.089844 753.046875 493.59375 C 753.046875 490.097656 750.214844 487.265625 746.71875 487.265625 Z M 746.71875 487.265625 " fill-opacity="1" fill-rule="nonzero"/><path fill="#ffffff" d="M 746.71875 525.234375 L 411.328125 525.234375 C 407.832031 525.234375 405 528.066406 405 531.5625 C 405 535.058594 407.832031 537.890625 411.328125 537.890625 L 746.71875 537.890625 C 750.214844 537.890625 753.046875 535.058594 753.046875 531.5625 C 753.046875 528.066406 750.214844 525.234375 746.71875 525.234375 Z M 746.71875 525.234375 " fill-opacity="1" fill-rule="nonzero"/><path fill="#ffffff" d="M 82.265625 537.890625 L 322.734375 537.890625 C 336.65625 537.890625 348.046875 526.5 348.046875 512.578125 L 348.046875 322.734375 C 348.046875 308.8125 336.65625 297.421875 322.734375 297.421875 L 82.265625 297.421875 C 68.34375 297.421875 56.953125 308.8125 56.953125 322.734375 L 56.953125 512.578125 C 56.953125 526.5 68.34375 537.890625 82.265625 537.890625 Z M 322.734375 525.234375 L 82.265625 525.234375 C 79.453125 525.234375 76.882812 524.28125 74.777344 522.726562 L 162.351562 440.152344 L 201.351562 479.558594 C 202.566406 480.78125 204.320312 481.457031 205.933594 481.4375 C 207.648438 481.414062 209.285156 480.695312 210.460938 479.449219 L 295.699219 388.871094 L 335.390625 430.207031 L 335.390625 512.578125 C 335.390625 519.554688 329.714844 525.234375 322.734375 525.234375 Z M 82.265625 310.078125 L 322.734375 310.078125 C 329.714844 310.078125 335.390625 315.753906 335.390625 322.734375 L 335.390625 411.933594 L 300.214844 375.304688 C 299.023438 374.0625 297.371094 373.359375 295.652344 373.359375 C 295.640625 373.359375 295.628906 373.359375 295.621094 373.359375 C 293.886719 373.367188 292.230469 374.089844 291.042969 375.347656 L 205.738281 466 L 167.003906 426.859375 C 164.585938 424.421875 160.664062 424.355469 158.164062 426.703125 L 69.609375 510.210938 L 69.609375 322.734375 C 69.609375 315.753906 75.285156 310.078125 82.265625 310.078125 Z M 82.265625 310.078125 " fill-opacity="1" fill-rule="nonzero"/><path fill="#ffffff" d="M 784.6875 0 L 25.3125 0 C 11.390625 0 0 11.390625 0 25.3125 L 0 784.6875 C 0 798.609375 11.390625 810 25.3125 810 L 784.6875 810 C 798.609375 810 810 798.609375 810 784.6875 L 810 25.3125 C 810 11.390625 798.609375 0 784.6875 0 Z M 25.3125 12.65625 L 784.6875 12.65625 C 791.667969 12.65625 797.34375 18.332031 797.34375 25.3125 L 797.34375 50.625 L 12.65625 50.625 L 12.65625 25.3125 C 12.65625 18.332031 18.332031 12.65625 25.3125 12.65625 Z M 784.6875 797.34375 L 25.3125 797.34375 C 18.332031 797.34375 12.65625 791.664062 12.65625 784.6875 L 12.65625 63.28125 L 797.34375 63.28125 L 797.34375 784.6875 C 797.34375 791.664062 791.667969 797.34375 784.6875 797.34375 Z M 784.6875 797.34375 " fill-opacity="1" fill-rule="nonzero"/><path fill="#ffffff" d="M 82.265625 272.109375 L 721.40625 272.109375 C 735.328125 272.109375 746.71875 260.71875 746.71875 246.796875 L 746.71875 113.90625 C 746.71875 99.984375 735.328125 88.59375 721.40625 88.59375 L 82.265625 88.59375 C 68.34375 88.59375 56.953125 99.984375 56.953125 113.90625 L 56.953125 246.796875 C 56.953125 260.71875 68.34375 272.109375 82.265625 272.109375 Z M 69.609375 113.90625 C 69.609375 106.925781 75.285156 101.25 82.265625 101.25 L 721.40625 101.25 C 728.386719 101.25 734.0625 106.925781 734.0625 113.90625 L 734.0625 246.796875 C 734.0625 253.777344 728.386719 259.453125 721.40625 259.453125 L 82.265625 259.453125 C 75.285156 259.453125 69.609375 253.777344 69.609375 246.796875 Z M 69.609375 113.90625 " fill-opacity="1" fill-rule="nonzero"/><path fill="#ffffff" d="M 164.53125 411.328125 C 178.488281 411.328125 189.84375 399.972656 189.84375 386.015625 C 189.84375 372.058594 178.488281 360.703125 164.53125 360.703125 C 150.574219 360.703125 139.21875 372.058594 139.21875 386.015625 C 139.21875 399.972656 150.574219 411.328125 164.53125 411.328125 Z M 164.53125 373.359375 C 171.511719 373.359375 177.1875 379.035156 177.1875 386.015625 C 177.1875 392.996094 171.511719 398.671875 164.53125 398.671875 C 157.550781 398.671875 151.875 392.996094 151.875 386.015625 C 151.875 379.035156 157.550781 373.359375 164.53125 373.359375 Z M 164.53125 373.359375 " fill-opacity="1" fill-rule="nonzero"/><path fill="#ffffff" d="M 164.53125 563.203125 L 82.265625 563.203125 C 68.34375 563.203125 56.953125 574.59375 56.953125 588.515625 L 56.953125 746.71875 C 56.953125 760.640625 68.34375 772.03125 82.265625 772.03125 L 164.53125 772.03125 C 178.453125 772.03125 189.84375 760.640625 189.84375 746.71875 L 189.84375 588.515625 C 189.84375 574.59375 178.453125 563.203125 164.53125 563.203125 Z M 177.1875 746.71875 C 177.1875 753.695312 171.511719 759.375 164.53125 759.375 L 82.265625 759.375 C 75.285156 759.375 69.609375 753.695312 69.609375 746.71875 L 69.609375 588.515625 C 69.609375 581.539062 75.285156 575.859375 82.265625 575.859375 L 164.53125 575.859375 C 171.511719 575.859375 177.1875 581.539062 177.1875 588.515625 Z M 177.1875 746.71875 " fill-opacity="1" fill-rule="nonzero"/><path fill="#ffffff" d="M 721.40625 563.203125 L 632.8125 563.203125 C 618.890625 563.203125 607.5 574.59375 607.5 588.515625 L 607.5 746.71875 C 607.5 760.640625 618.890625 772.03125 632.8125 772.03125 L 721.40625 772.03125 C 735.328125 772.03125 746.71875 760.640625 746.71875 746.71875 L 746.71875 588.515625 C 746.71875 574.59375 735.328125 563.203125 721.40625 563.203125 Z M 734.0625 746.71875 C 734.0625 753.695312 728.386719 759.375 721.40625 759.375 L 632.8125 759.375 C 625.832031 759.375 620.15625 753.695312 620.15625 746.71875 L 620.15625 588.515625 C 620.15625 581.539062 625.832031 575.859375 632.8125 575.859375 L 721.40625 575.859375 C 728.386719 575.859375 734.0625 581.539062 734.0625 588.515625 Z M 734.0625 746.71875 " fill-opacity="1" fill-rule="nonzero"/><path fill="#ffffff" d="M 348.046875 563.203125 L 265.78125 563.203125 C 251.859375 563.203125 240.46875 574.59375 240.46875 588.515625 L 240.46875 746.71875 C 240.46875 760.640625 251.859375 772.03125 265.78125 772.03125 L 348.046875 772.03125 C 361.96875 772.03125 373.359375 760.640625 373.359375 746.71875 L 373.359375 588.515625 C 373.359375 574.59375 361.96875 563.203125 348.046875 563.203125 Z M 360.703125 746.71875 C 360.703125 753.695312 355.027344 759.375 348.046875 759.375 L 265.78125 759.375 C 258.800781 759.375 253.125 753.695312 253.125 746.71875 L 253.125 588.515625 C 253.125 581.539062 258.800781 575.859375 265.78125 575.859375 L 348.046875 575.859375 C 355.027344 575.859375 360.703125 581.539062 360.703125 588.515625 Z M 360.703125 746.71875 " fill-opacity="1" fill-rule="nonzero"/><path fill="#ffffff" d="M 531.5625 563.203125 L 449.296875 563.203125 C 435.375 563.203125 423.984375 574.59375 423.984375 588.515625 L 423.984375 746.71875 C 423.984375 760.640625 435.375 772.03125 449.296875 772.03125 L 531.5625 772.03125 C 545.484375 772.03125 556.875 760.640625 556.875 746.71875 L 556.875 588.515625 C 556.875 574.59375 545.484375 563.203125 531.5625 563.203125 Z M 544.21875 746.71875 C 544.21875 753.695312 538.542969 759.375 531.5625 759.375 L 449.296875 759.375 C 442.316406 759.375 436.640625 753.695312 436.640625 746.71875 L 436.640625 588.515625 C 436.640625 581.539062 442.316406 575.859375 449.296875 575.859375 L 531.5625 575.859375 C 538.542969 575.859375 544.21875 581.539062 544.21875 588.515625 Z M 544.21875 746.71875 " fill-opacity="1" fill-rule="nonzero"/></svg>